{
.appVersion = "1158";
copyright = "Copyright (c) 2012-13 by vernon adams.";
customParameters = (
{
name = note;
value = "";
},
{
name = description;
value = "Copyright (c) 2011 by vernon adams. All rights reserved.";
},
{
name = openTypeNameLicense;
value = "Copyright (c) 2013, vernon adams (<URL|email>),\012with Reserved Font Name Topmarks.\012\012This Font Software is licensed under the SIL Open Font License, Version 1.1.\012This license is copied below, and is also available with a FAQ at:\012http://scripts.sil.org/OFL";
},
{
name = openTypeNameLicenseURL;
value = "http://scripts.sil.org/OFL";
},
{
name = openTypeNameVersion;
value = "Version ";
},
{
name = openTypeOS2FamilyClass;
value = (
0,
0
);
},
{
name = vendorID;
value = newt;
},
{
name = blueFuzz;
value = 1;
},
{
name = blueScale;
value = 0.03963;
},
{
name = blueShift;
value = 7;
},
{
name = trademark;
value = "Topmarks is a trademark of vernon adams.";
}
);
date = "2018-07-25 18:37:01 +0000";
designer = "vernon adams";
disablesAutomaticAlignment = 1;
disablesNiceNames = 1;
familyName = Topmarks;
fontMaster = (
{
alignmentZones = (
"{1560, 26}",
"{1026, 26}",
"{0, -24}",
"{-508, -66}"
);
ascender = 1560;
capHeight = 1560;
customParameters = (
{
name = typoAscender;
value = 1968;
},
{
name = typoDescender;
value = -656;
},
{
name = typoLineGap;
value = 0;
},
{
name = winAscent;
value = 1968;
},
{
name = winDescent;
value = 656;
},
{
name = underlineThickness;
value = 0;
},
{
name = underlinePosition;
value = 0;
}
);
descender = -656;
horizontalStems = (
20,
106,
124,
132,
138,
150
);
id = "850197A4-73EE-4DD1-A43D-17FCD4749099";
verticalStems = (
164,
170,
174,
184
);
xHeight = 1026;
}
);
glyphs = (
{
glyphname = A;
lastChange = "2018-07-25 18:37:45 +0000";
layers = (
{
layerId = "850197A4-73EE-4DD1-A43D-17FCD4749099";
paths = (
{
closed = 1;
nodes = (
"216 0 LINE",
"383 479 LINE",
"1008 479 LINE",
"1176 0 LINE",
"1357 0 LINE",
"787 1560 LINE",
"609 1560 LINE",
"40 0 LINE"
);
},
{
closed = 1;
nodes = (
"522 872 OFFCURVE",
"609 1130 OFFCURVE",
"698 1385 CURVE",
"781 1125 OFFCURVE",
"869 871 OFFCURVE",
"956 615 CURVE",
"435 615 LINE"
);
}
);
width = 1397;
}
);
unicode = 0041;
},
{
glyphname = AE;
lastChange = "2018-07-25 18:37:45 +0000";
layers = (
{
layerId = "850197A4-73EE-4DD1-A43D-17FCD4749099";
paths = (
{
closed = 1;
nodes = (
"211 0 LINE",
"430 398 LINE",
"1050 398 LINE",
"1080 0 LINE",
"1855 0 LINE",
"1855 148 LINE",
"1227 148 LINE",
"1187 672 LINE",
"1791 672 LINE",
"1791 820 LINE",
"1169 820 LINE",
"1133 1308 LINE",
"1832 1308 LINE",
"1832 1456 LINE",
"823 1456 LINE",
"15 0 LINE"
);
},
{
closed = 1;
nodes = (
"926 1308 LINE",
"974 1308 LINE",
"1032 546 LINE",
"506 546 LINE"
);
}
);
width = 1981;
}
);
unicode = 00C6;
},
{
glyphname = B;
lastChange = "2018-07-25 18:37:45 +0000";
layers = (
{
layerId = "850197A4-73EE-4DD1-A43D-17FCD4749099";
paths = (
{
closed = 1;
nodes = (
"643 0 LINE SMOOTH",
"985 0 OFFCURVE",
"1218 122 OFFCURVE",
"1218 432 CURVE SMOOTH",
"1218 669 OFFCURVE",
"1098 782 OFFCURVE",
"897 824 CURVE",
"1059 882 OFFCURVE",
"1150 983 OFFCURVE",
"1150 1184 CURVE SMOOTH",
"1150 1454 OFFCURVE",
"966 1560 OFFCURVE",
"596 1560 CURVE SMOOTH",
"198 1560 LINE",
"198 0 LINE"
);
},
{
closed = 1;
nodes = (
"372 733 LINE",
"592 733 LINE SMOOTH",
"897 733 OFFCURVE",
"1036 645 OFFCURVE",
"1036 435 CURVE SMOOTH",
"1036 229 OFFCURVE",
"901 138 OFFCURVE",
"637 138 CURVE SMOOTH",
"372 138 LINE"
);
},
{
closed = 1;
nodes = (
"372 1422 LINE",
"596 1422 LINE SMOOTH",
"883 1422 OFFCURVE",
"971 1339 OFFCURVE",
"971 1154 CURVE SMOOTH",
"971 962 OFFCURVE",
"840 884 OFFCURVE",
"562 884 CURVE SMOOTH",
"372 884 LINE"
);
}
);
width = 1360;
}
);
unicode = 0042;
},
{
glyphname = C;
lastChange = "2018-07-25 18:37:45 +0000";
layers = (
{
layerId = "850197A4-73EE-4DD1-A43D-17FCD4749099";
paths = (
{
closed = 1;
nodes = (
"988 -24 OFFCURVE",
"1120 18 OFFCURVE",
"1266 100 CURVE",
"1213 230 LINE",
"1088 161 OFFCURVE",
"949 126 OFFCURVE",
"837 126 CURVE SMOOTH",
"535 126 OFFCURVE",
"309 375 OFFCURVE",
"309 783 CURVE SMOOTH",
"309 1198 OFFCURVE",
"544 1436 OFFCURVE",
"843 1436 CURVE SMOOTH",
"957 1436 OFFCURVE",
"1078 1402 OFFCURVE",
"1205 1332 CURVE",
"1266 1466 LINE",
"1120 1548 OFFCURVE",
"988 1586 OFFCURVE",
"824 1586 CURVE SMOOTH",
"446 1586 OFFCURVE",
"126 1310 OFFCURVE",
"126 783 CURVE SMOOTH",
"126 256 OFFCURVE",
"446 -24 OFFCURVE",
"824 -24 CURVE SMOOTH"
);
}
);
width = 1404;
}
);
unicode = 0043;
},
{
glyphname = D;
lastChange = "2018-07-25 18:37:45 +0000";
layers = (
{
layerId = "850197A4-73EE-4DD1-A43D-17FCD4749099";
paths = (
{
closed = 1;
nodes = (
"610 0 LINE SMOOTH",
"1076 0 OFFCURVE",
"1400 295 OFFCURVE",
"1400 778 CURVE SMOOTH",
"1400 1327 OFFCURVE",
"1049 1560 OFFCURVE",
"523 1560 CURVE SMOOTH",
"198 1560 LINE",
"198 0 LINE"
);
},
{
closed = 1;
nodes = (
"372 1422 LINE",
"527 1422 LINE SMOOTH",
"959 1422 OFFCURVE",
"1218 1232 OFFCURVE",
"1218 775 CURVE SMOOTH",
"1218 388 OFFCURVE",
"991 138 OFFCURVE",
"621 138 CURVE SMOOTH",
"372 138 LINE"
);
}
);
width = 1526;
}
);
unicode = 0044;
},
{
glyphname = Eth;
lastChange = "2018-07-25 18:37:45 +0000";
layers = (
{
components = (
{
name = D;
}
);
layerId = "850197A4-73EE-4DD1-A43D-17FCD4749099";
paths = (
{
closed = 1;
nodes = (
"610 672 LINE",
"610 800 LINE",
"43 800 LINE",
"43 672 LINE"
);
}
);
width = 1518;
}
);
unicode = 00D0;
},
{
glyphname = E;
lastChange = "2018-07-25 18:37:45 +0000";
layers = (
{
layerId = "850197A4-73EE-4DD1-A43D-17FCD4749099";
paths = (
{
closed = 1;
nodes = (
"1095 0 LINE",
"1095 138 LINE",
"372 138 LINE",
"372 732 LINE",
"1007 732 LINE",
"1007 870 LINE",
"372 870 LINE",
"372 1422 LINE",
"1045 1422 LINE",
"1045 1560 LINE",
"198 1560 LINE",
"198 0 LINE"
);
}
);
width = 1192;
}
);
unicode = 0045;
},
{
glyphname = F;
lastChange = "2018-07-25 18:37:45 +0000";
layers = (
{
layerId = "850197A4-73EE-4DD1-A43D-17FCD4749099";
paths = (
{
closed = 1;
nodes = (
"372 0 LINE",
"372 777 LINE",
"990 777 LINE",
"990 925 LINE",
"372 925 LINE",
"372 1422 LINE",
"1024 1422 LINE",
"1024 1560 LINE",
"198 1560 LINE",
"198 0 LINE"
);
}
);
width = 1104;
}
);
unicode = 0046;
},
{
glyphname = G;
lastChange = "2018-07-25 18:37:45 +0000";
layers = (
{
layerId = "850197A4-73EE-4DD1-A43D-17FCD4749099";
paths = (
{
closed = 1;
nodes = (
"1028 -24 OFFCURVE",
"1182 15 OFFCURVE",
"1327 88 CURVE",
"1327 812 LINE",
"752 812 LINE",
"752 653 LINE",
"1164 653 LINE",
"1164 178 LINE",
"1078 139 OFFCURVE",
"966 126 OFFCURVE",
"850 126 CURVE SMOOTH",
"494 126 OFFCURVE",
"309 370 OFFCURVE",
"309 766 CURVE SMOOTH",
"309 1187 OFFCURVE",
"544 1436 OFFCURVE",
"858 1436 CURVE SMOOTH",
"973 1436 OFFCURVE",
"1099 1395 OFFCURVE",
"1228 1327 CURVE",
"1296 1466 LINE",
"1147 1547 OFFCURVE",
"992 1587 OFFCURVE",
"847 1587 CURVE SMOOTH",
"455 1587 OFFCURVE",
"126 1298 OFFCURVE",
"126 752 CURVE SMOOTH",
"126 258 OFFCURVE",
"391 -24 OFFCURVE",
"837 -24 CURVE SMOOTH"
);
}
);
width = 1507;
}
);
unicode = 0047;
},
{
glyphname = H;
lastChange = "2018-07-25 18:37:45 +0000";
layers = (
{
layerId = "850197A4-73EE-4DD1-A43D-17FCD4749099";
paths = (
{
closed = 1;
nodes = (
"372 0 LINE",
"372 741 LINE",
"1138 741 LINE",
"1138 0 LINE",
"1312 0 LINE",
"1312 1560 LINE",
"1138 1560 LINE",
"1138 889 LINE",
"372 889 LINE",
"372 1560 LINE",
"198 1560 LINE",
"198 0 LINE"
);
}
);
width = 1510;
}
);
unicode = 0048;
},
{
glyphname = I;
lastChange = "2018-07-25 18:37:45 +0000";
layers = (
{
layerId = "850197A4-73EE-4DD1-A43D-17FCD4749099";
paths = (
{
closed = 1;
nodes = (
"746 0 LINE",
"746 124 LINE",
"538 124 LINE",
"538 1436 LINE",
"746 1436 LINE",
"746 1560 LINE",
"156 1560 LINE",
"156 1436 LINE",
"364 1436 LINE",
"364 124 LINE",
"156 124 LINE",
"156 0 LINE"
);
}
);
width = 902;
}
);
unicode = 0049;
},
{
glyphname = J;
lastChange = "2018-07-25 18:37:45 +0000";
layers = (
{
layerId = "850197A4-73EE-4DD1-A43D-17FCD4749099";
paths = (
{
closed = 1;
nodes = (
"716 -24 OFFCURVE",
"860 123 OFFCURVE",
"860 434 CURVE SMOOTH",
"860 1436 LINE",
"1131 1436 LINE",
"1131 1560 LINE",
"288 1560 LINE",
"288 1436 LINE",
"693 1436 LINE",
"693 467 LINE SMOOTH",
"693 209 OFFCURVE",
"616 126 OFFCURVE",
"455 126 CURVE SMOOTH",
"370 126 OFFCURVE",
"276 166 OFFCURVE",
"208 248 CURVE",
"121 130 LINE",
"206 24 OFFCURVE",
"342 -24 OFFCURVE",
"465 -24 CURVE SMOOTH"
);
}
);
width = 1201;
}
);
unicode = 004A;
},
{
glyphname = K;
lastChange = "2018-07-25 18:37:45 +0000";
layers = (
{
layerId = "850197A4-73EE-4DD1-A43D-17FCD4749099";
paths = (
{
closed = 1;
nodes = (
"372 0 LINE",
"372 779 LINE",
"1021 0 LINE",
"1239 0 LINE",
"548 818 LINE",
"1199 1560 LINE",
"988 1560 LINE",
"372 850 LINE",
"372 1560 LINE",
"198 1560 LINE",
"198 0 LINE"
);
}
);
width = 1258;
}
);
unicode = 004B;
},
{
glyphname = L;
lastChange = "2018-07-25 18:37:45 +0000";
layers = (
{
layerId = "850197A4-73EE-4DD1-A43D-17FCD4749099";
paths = (
{
closed = 1;
nodes = (
"1051 0 LINE",
"1051 138 LINE",
"372 138 LINE",
"372 1560 LINE",
"198 1560 LINE",
"198 0 LINE"
);
}
);
width = 1070;
}
);
unicode = 004C;
},
{
glyphname = Lslash;
lastChange = "2018-07-25 18:37:45 +0000";
layers = (
{
components = (
{
name = L;
}
);
layerId = "850197A4-73EE-4DD1-A43D-17FCD4749099";
paths = (
{
closed = 1;
nodes = (
"653 890 LINE",
"653 1027 LINE",
"25 626 LINE",
"25 489 LINE"
);
}
);
width = 1076;
}
);
unicode = 0141;
},
{
glyphname = M;
lastChange = "2018-07-25 18:37:45 +0000";
layers = (
{
layerId = "850197A4-73EE-4DD1-A43D-17FCD4749099";
paths = (
{
closed = 1;
nodes = (
"365 0 LINE",
"365 1350 LINE",
"435 1190 LINE",
"909 220 LINE",
"1030 220 LINE",
"1213 591 OFFCURVE",
"1394 964 OFFCURVE",
"1579 1333 CURVE",
"1579 0 LINE",
"1744 0 LINE",
"1744 1560 LINE",
"1532 1560 LINE",
"1346 1179 OFFCURVE",
"1152 806 OFFCURVE",
"972 420 CURVE",
"791 802 OFFCURVE",
"607 1180 OFFCURVE",
"424 1560 CURVE",
"198 1560 LINE",
"198 0 LINE"
);
}
);
width = 1942;
}
);
unicode = 004D;
},
{
glyphname = N;
lastChange = "2018-07-25 18:37:45 +0000";
layers = (
{
layerId = "850197A4-73EE-4DD1-A43D-17FCD4749099";
paths = (
{
closed = 1;
nodes = (
"370 0 LINE",
"370 1341 LINE",
"439 1217 LINE",
"1178 0 LINE",
"1385 0 LINE",
"1385 1560 LINE",
"1214 1560 LINE",
"1214 215 LINE",
"946 665 OFFCURVE",
"673 1111 OFFCURVE",
"403 1560 CURVE",
"198 1560 LINE",
"198 0 LINE"
);
}
);
width = 1583;
}
);
unicode = 004E;
},
{
glyphname = O;
lastChange = "2018-07-25 18:37:45 +0000";
layers = (
{
layerId = "850197A4-73EE-4DD1-A43D-17FCD4749099";
paths = (
{
closed = 1;
nodes = (
"1278 -24 OFFCURVE",
"1520 340 OFFCURVE",
"1520 782 CURVE SMOOTH",
"1520 1226 OFFCURVE",
"1278 1586 OFFCURVE",
"823 1586 CURVE SMOOTH",
"368 1586 OFFCURVE",
"126 1226 OFFCURVE",
"126 782 CURVE SMOOTH",
"126 340 OFFCURVE",
"368 -24 OFFCURVE",
"823 -24 CURVE SMOOTH"
);
},
{
closed = 1;
nodes = (
"536 126 OFFCURVE",
"310 353 OFFCURVE",
"310 782 CURVE SMOOTH",
"310 1211 OFFCURVE",
"536 1436 OFFCURVE",
"823 1436 CURVE SMOOTH",
"1110 1436 OFFCURVE",
"1336 1211 OFFCURVE",
"1336 782 CURVE SMOOTH",
"1336 353 OFFCURVE",
"1110 126 OFFCURVE",
"823 126 CURVE SMOOTH"
);
}
);
width = 1646;
}
);
unicode = 004F;
},
{
glyphname = Oslash;
lastChange = "2018-07-25 18:37:45 +0000";
layers = (
{
components = (
{
name = O;
}
);
layerId = "850197A4-73EE-4DD1-A43D-17FCD4749099";
paths = (
{
closed = 1;
nodes = (
"1232 1571 LINE",
"1125 1604 LINE",
"418 -142 LINE",
"521 -175 LINE"
);
}
);
width = 1626;
}
);
unicode = 00D8;
},
{
glyphname = OE;
lastChange = "2018-07-25 18:37:45 +0000";
layers = (
{
components = (
{
name = E;
transform = "{1, 0, 0, 1, 807, 0}";
}
);
layerId = "850197A4-73EE-4DD1-A43D-17FCD4749099";
paths = (
{
closed = 1;
nodes = (
"883 -24 OFFCURVE",
"948 -16 OFFCURVE",
"1007 0 CURVE",
"1007 165 LINE",
"946 139 OFFCURVE",
"880 126 OFFCURVE",
"813 126 CURVE SMOOTH",
"546 126 OFFCURVE",
"300 330 OFFCURVE",
"300 729 CURVE SMOOTH",
"300 1128 OFFCURVE",
"546 1330 OFFCURVE",
"813 1330 CURVE SMOOTH",
"880 1330 OFFCURVE",
"946 1317 OFFCURVE",
"1007 1292 CURVE",
"1007 1456 LINE",
"948 1472 OFFCURVE",
"883 1480 OFFCURVE",
"813 1480 CURVE SMOOTH",
"358 1480 OFFCURVE",
"116 1122 OFFCURVE",
"116 728 CURVE SMOOTH",
"116 336 OFFCURVE",
"358 -24 OFFCURVE",
"813 -24 CURVE SMOOTH"
);
}
);
width = 1998;
}
);
unicode = 0152;
},
{
glyphname = P;
lastChange = "2018-07-25 18:37:45 +0000";
layers = (
{
layerId = "850197A4-73EE-4DD1-A43D-17FCD4749099";
paths = (
{
closed = 1;
nodes = (
"372 0 LINE",
"372 691 LINE",
"621 691 LINE SMOOTH",
"991 691 OFFCURVE",
"1169 838 OFFCURVE",
"1169 1124 CURVE SMOOTH",
"1169 1420 OFFCURVE",
"1012 1560 OFFCURVE",
"597 1560 CURVE SMOOTH",
"198 1560 LINE",
"198 0 LINE"
);
},
{
closed = 1;
nodes = (
"372 1422 LINE",
"620 1422 LINE SMOOTH",
"899 1422 OFFCURVE",
"985 1326 OFFCURVE",
"985 1122 CURVE SMOOTH",
"985 936 OFFCURVE",
"881 840 OFFCURVE",
"640 840 CURVE SMOOTH",
"372 840 LINE"
);
}
);
width = 1238;
}
);
unicode = 0050;
},
{
glyphname = Thorn;
lastChange = "2018-07-25 18:37:45 +0000";
layers = (
{
layerId = "850197A4-73EE-4DD1-A43D-17FCD4749099";
paths = (
{
closed = 1;
nodes = (
"385 0 LINE",
"385 443 LINE",
"651 443 LINE SMOOTH",
"973 443 OFFCURVE",
"1187 554 OFFCURVE",
"1187 876 CURVE SMOOTH",
"1187 1231 OFFCURVE",
"941 1312 OFFCURVE",
"600 1312 CURVE SMOOTH",
"385 1312 LINE",
"385 1456 LINE",
"213 1456 LINE",
"213 0 LINE"
);
},
{
closed = 1;
nodes = (
"385 1164 LINE",
"642 1164 LINE SMOOTH",
"872 1164 OFFCURVE",
"1003 1114 OFFCURVE",
"1003 874 CURVE SMOOTH",
"1003 674 OFFCURVE",
"899 592 OFFCURVE",
"689 592 CURVE SMOOTH",
"385 592 LINE"
);
}
);
width = 1261;
}
);
unicode = 00DE;
},
{
glyphname = Q;
lastChange = "2018-07-25 18:37:45 +0000";
layers = (
{
layerId = "850197A4-73EE-4DD1-A43D-17FCD4749099";
paths = (
{
closed = 1;
nodes = (
"1359 -168 LINE",
"1218 92 LINE",
"1419 234 OFFCURVE",
"1524 491 OFFCURVE",
"1524 782 CURVE SMOOTH",
"1524 1226 OFFCURVE",
"1282 1586 OFFCURVE",
"827 1586 CURVE SMOOTH",
"372 1586 OFFCURVE",
"130 1226 OFFCURVE",
"130 782 CURVE SMOOTH",
"130 340 OFFCURVE",
"372 -24 OFFCURVE",
"827 -24 CURVE SMOOTH",
"923 -24 OFFCURVE",
"1008 -7 OFFCURVE",
"1085 22 CURVE",
"1231 -237 LINE"
);
},
{
closed = 1;
nodes = (
"540 126 OFFCURVE",
"314 353 OFFCURVE",
"314 782 CURVE SMOOTH",
"314 1211 OFFCURVE",
"540 1436 OFFCURVE",
"827 1436 CURVE SMOOTH",
"1114 1436 OFFCURVE",
"1340 1211 OFFCURVE",
"1340 782 CURVE SMOOTH",
"1340 529 OFFCURVE",
"1261 346 OFFCURVE",
"1138 239 CURVE",
"1009 477 LINE",
"871 402 LINE",
"1008 159 LINE",
"952 137 OFFCURVE",
"891 126 OFFCURVE",
"827 126 CURVE SMOOTH"
);
}
);
width = 1646;
}
);
unicode = 0051;
},
{
glyphname = R;
lastChange = "2018-07-25 18:37:45 +0000";
layers = (
{
layerId = "850197A4-73EE-4DD1-A43D-17FCD4749099";
paths = (
{
closed = 1;
nodes = (
"372 0 LINE",
"372 756 LINE",
"672 756 LINE",
"1050 0 LINE",
"1242 0 LINE",
"837 780 LINE",
"1083 833 OFFCURVE",
"1173 982 OFFCURVE",
"1173 1176 CURVE SMOOTH",
"1173 1508 OFFCURVE",
"925 1560 OFFCURVE",
"603 1560 CURVE SMOOTH",
"198 1560 LINE",
"198 0 LINE"
);
},
{
closed = 1;
nodes = (
"372 1422 LINE",
"692 1422 LINE SMOOTH",
"887 1422 OFFCURVE",
"1002 1373 OFFCURVE",
"1002 1162 CURVE SMOOTH",
"1002 963 OFFCURVE",
"870 903 OFFCURVE",
"681 903 CURVE SMOOTH",
"372 903 LINE"
);
}
);
width = 1345;
}
);
unicode = 0052;
},
{
glyphname = S;
lastChange = "2018-07-25 18:37:45 +0000";
layers = (
{
layerId = "850197A4-73EE-4DD1-A43D-17FCD4749099";
paths = (
{
closed = 1;
nodes = (
"852 -24 OFFCURVE",
"1019 158 OFFCURVE",
"1019 420 CURVE SMOOTH",
"1019 636 OFFCURVE",
"934 771 OFFCURVE",
"599 885 CURVE SMOOTH",
"346 972 OFFCURVE",
"280 1034 OFFCURVE",
"280 1180 CURVE SMOOTH",
"280 1184 OFFCURVE",
"281 1189 OFFCURVE",
"281 1194 CURVE SMOOTH",
"284 1348 OFFCURVE",
"403 1436 OFFCURVE",
"584 1436 CURVE SMOOTH",
"709 1436 OFFCURVE",
"829 1373 OFFCURVE",
"911 1310 CURVE",
"977 1444 LINE",
"871 1527 OFFCURVE",
"737 1586 OFFCURVE",
"564 1586 CURVE SMOOTH",
"308 1586 OFFCURVE",
"109 1442 OFFCURVE",
"107 1184 CURVE",
"107 1178 LINE SMOOTH",
"107 946 OFFCURVE",
"219 829 OFFCURVE",
"499 735 CURVE SMOOTH",
"799 634 OFFCURVE",
"850 553 OFFCURVE",
"850 423 CURVE SMOOTH",
"850 249 OFFCURVE",
"752 126 OFFCURVE",
"568 126 CURVE SMOOTH",
"423 126 OFFCURVE",
"255 208 OFFCURVE",
"162 290 CURVE",
"111 139 LINE",
"202 65 OFFCURVE",
"382 -24 OFFCURVE",
"572 -24 CURVE SMOOTH"
);
}
);
width = 1102;
}
);
unicode = 0053;
},
{
glyphname = T;
lastChange = "2018-07-25 18:37:45 +0000";
layers = (
{
layerId = "850197A4-73EE-4DD1-A43D-17FCD4749099";
paths = (
{
closed = 1;
nodes = (
"652 0 LINE",
"652 1422 LINE",
"1098 1422 LINE",
"1098 1560 LINE",
"27 1560 LINE",
"27 1422 LINE",
"478 1422 LINE",
"478 0 LINE"
);
}
);
width = 1124;
}
);
unicode = 0054;
},
{
glyphname = U;
lastChange = "2018-07-25 18:37:45 +0000";
layers = (
{
layerId = "850197A4-73EE-4DD1-A43D-17FCD4749099";
paths = (
{
closed = 1;
nodes = (
"1091 -24 OFFCURVE",
"1286 191 OFFCURVE",
"1288 551 CURVE",
"1288 1560 LINE",
"1115 1560 LINE",
"1115 539 LINE SMOOTH",
"1115 279 OFFCURVE",
"984 126 OFFCURVE",
"742 126 CURVE SMOOTH",
"481 126 OFFCURVE",
"349 260 OFFCURVE",
"349 546 CURVE SMOOTH",
"349 1560 LINE",
"175 1560 LINE",
"175 541 LINE SMOOTH",
"175 157 OFFCURVE",
"374 -24 OFFCURVE",
"743 -24 CURVE SMOOTH"
);
}
);
width = 1462;
}
);
unicode = 0055;
},
{
glyphname = V;
lastChange = "2018-07-25 18:37:45 +0000";
layers = (
{
layerId = "850197A4-73EE-4DD1-A43D-17FCD4749099";
paths = (
{
closed = 1;
nodes = (
"795 0 LINE",
"1333 1560 LINE",
"1149 1560 LINE",
"1000 1102 OFFCURVE",
"850 644 OFFCURVE",
"701 185 CURVE",
"655 335 LINE",
"243 1560 LINE",
"55 1560 LINE",
"609 0 LINE"
);
}
);
width = 1388;
}
);
unicode = 0056;
},
{
glyphname = W;
lastChange = "2018-07-25 18:37:45 +0000";
layers = (
{
layerId = "850197A4-73EE-4DD1-A43D-17FCD4749099";
paths = (
{
closed = 1;
nodes = (
"681 0 LINE",
"1062 1354 LINE",
"1439 0 LINE",
"1651 0 LINE",
"2054 1560 LINE",
"1877 1560 LINE",
"1767 1100 OFFCURVE",
"1659 637 OFFCURVE",
"1547 179 CURVE",
"1418 641 OFFCURVE",
"1285 1099 OFFCURVE",
"1154 1560 CURVE",
"981 1560 LINE",
"848 1099 OFFCURVE",
"715 638 OFFCURVE",
"581 178 CURVE",
"543 349 LINE",
"250 1560 LINE",
"67 1560 LINE",
"470 0 LINE"
);
}
);
width = 2120;
}
);
unicode = 0057;
},
{
glyphname = X;
lastChange = "2018-07-25 18:37:45 +0000";
layers = (
{
layerId = "850197A4-73EE-4DD1-A43D-17FCD4749099";
paths = (
{
closed = 1;
nodes = (
"265 0 LINE",
"681 697 LINE",
"1099 0 LINE",
"1300 0 LINE",
"792 816 LINE",
"1290 1560 LINE",
"1094 1560 LINE",
"694 928 LINE",
"306 1560 LINE",
"100 1560 LINE",
"585 815 LINE",
"61 0 LINE"
);
}
);
width = 1360;
}
);
unicode = 0058;
},
{
glyphname = Y;
lastChange = "2018-07-25 18:37:45 +0000";
layers = (
{
layerId = "850197A4-73EE-4DD1-A43D-17FCD4749099";
paths = (
{
closed = 1;
nodes = (
"721 0 LINE",
"721 655 LINE",
"1244 1560 LINE",
"1054 1560 LINE",
"634 797 LINE",
"218 1560 LINE",
"26 1560 LINE",
"547 652 LINE",
"547 0 LINE"
);
}
);
width = 1269;
}
);
unicode = 0059;
},
{
glyphname = Z;
lastChange = "2018-07-25 18:37:45 +0000";
layers = (
{
layerId = "850197A4-73EE-4DD1-A43D-17FCD4749099";
paths = (
{
closed = 1;
nodes = (
"1076 0 LINE",
"1076 138 LINE",
"320 138 LINE",
"1084 1472 LINE",
"1084 1560 LINE",
"124 1560 LINE",
"124 1422 LINE",
"852 1422 LINE",
"92 92 LINE",
"92 0 LINE"
);
}
);
width = 1143;
}
);
unicode = 005A;
},
{
glyphname = a;
lastChange = "2018-07-25 18:37:45 +0000";
layers = (
{
layerId = "850197A4-73EE-4DD1-A43D-17FCD4749099";
paths = (
{
closed = 1;
nodes = (
"694 -22 OFFCURVE",
"774 46 OFFCURVE",
"830 145 CURVE",
"994 241 LINE",
"994 976 LINE",
"916 1017 OFFCURVE",
"802.157 1052 OFFCURVE",
"675.157 1052 CURVE SMOOTH",
"279.026 1052 OFFCURVE",
"106 752.235 OFFCURVE",
"106 475.063 CURVE SMOOTH",
"106 215.836 OFFCURVE",
"256 -22 OFFCURVE",
"545 -22 CURVE SMOOTH"
);
},
{
closed = 1;
nodes = (
"364.945 109.893 OFFCURVE",
"280.313 278.577 OFFCURVE",
"280.313 465.131 CURVE SMOOTH",
"280.313 681.548 OFFCURVE",
"397.319 920.286 OFFCURVE",
"645.065 920.286 CURVE SMOOTH",
"719.93 920.286 OFFCURVE",
"782.851 907.425 OFFCURVE",
"824.157 894 CURVE",
"824.157 453 LINE SMOOTH",
"824.157 258.03 OFFCURVE",
"746.411 109.893 OFFCURVE",
"554.939 109.893 CURVE SMOOTH"
);
},
{
closed = 1;
nodes = (
"1208 146 LINE",
"1160 124 OFFCURVE",
"994 41 OFFCURVE {name = inserted;}",
"994 241 CURVE",
"829 145 LINE",
"869 -101 OFFCURVE",
"1162 -17 OFFCURVE {name = inserted;}",
"1230 33 CURVE"
);
}
);
width = 1206;
}
);
unicode = 0061;
userData = {
com.typemytype.robofont.guides = (
{
angle = 0;
isGlobal = 0;
magnetic = 5;
x = 572;
y = 110;
}
);
com.typemytype.robofont.layerData = {
b = {
anchors = (
);
components = (
{
baseGlyph = lc_kick;
transformation = (
1,
0,
0,
1,
754,
0
);
}
);
contours = (
{
points = (
{
segmentType = line;
smooth = 0;
x = 994;
y = 241;
},
{
name = inserted;
smooth = 0;
x = 994;
y = 163;
},
{
smooth = 0;
x = 1025;
y = 124;
},
{
segmentType = curve;
smooth = 1;
x = 1088;
y = 124;
},
{
name = inserted;
smooth = 0;
x = 1123;
y = 124;
},
{
smooth = 0;
x = 1152;
y = 128;
},
{
segmentType = curve;
smooth = 0;
x = 1176;
y = 136;
},
{
segmentType = line;
smooth = 0;
x = 1198;
y = 7;
},
{
name = inserted;
smooth = 0;
x = 1142;
y = -12;
},
{
smooth = 0;
x = 1087;
y = -21;
},
{
segmentType = curve;
smooth = 1;
x = 1032;
y = -21;
},
{
name = inserted;
smooth = 0;
x = 917;
y = -21;
},
{
smooth = 0;
x = 850;
y = 34;
},
{
segmentType = curve;
smooth = 0;
x = 830;
y = 145;
}
);
}
);
lib = {
};
name = a;
unicodes = (
);
width = 1206;
};
};
};
},
{
glyphname = ae;
lastChange = "2018-07-25 18:37:45 +0000";
layers = (
{
layerId = "850197A4-73EE-4DD1-A43D-17FCD4749099";
paths = (
{
closed = 1;
nodes = (
"659 -22 OFFCURVE",
"782 87 OFFCURVE",
"852 213 CURVE",
"927 61 OFFCURVE",
"1066 -22 OFFCURVE",
"1246 -22 CURVE SMOOTH",
"1402 -22 OFFCURVE",
"1512 25 OFFCURVE",
"1632 122 CURVE",
"1564 232 LINE",
"1499 179 OFFCURVE",
"1408 114 OFFCURVE",
"1257 114 CURVE SMOOTH",
"1073 114 OFFCURVE",
"945 233 OFFCURVE",
"921 445 CURVE",
"1253 445 OFFCURVE",
"1591 510 OFFCURVE",
"1591 755 CURVE SMOOTH",
"1591 922 OFFCURVE",
"1454 1052 OFFCURVE",
"1247 1052 CURVE SMOOTH",
"1068 1052 OFFCURVE",
"945 972 OFFCURVE",
"873 849 CURVE",
"820 976 OFFCURVE",
"692 1052 OFFCURVE",
"541 1052 CURVE SMOOTH",
"394 1052 OFFCURVE",
"273 1021 OFFCURVE",
"130 908 CURVE",
"198 798 LINE",
"309 898 OFFCURVE",
"422 916 OFFCURVE",
"531 916 CURVE SMOOTH",
"667 916 OFFCURVE",
"773 831 OFFCURVE",
"773 632 CURVE SMOOTH",
"773 609 LINE",
"738 609 LINE SMOOTH",
"420 609 OFFCURVE",
"91 603 OFFCURVE",
"91 286 CURVE SMOOTH",
"91 96 OFFCURVE",
"232 -22 OFFCURVE",
"451 -22 CURVE SMOOTH"
);
},
{
closed = 1;
nodes = (
"347 114 OFFCURVE",
"260 167 OFFCURVE",
"260 294 CURVE SMOOTH",
"260 465 OFFCURVE",
"452 485 OFFCURVE",
"637 490 CURVE SMOOTH",
"775 493 LINE",
"775 276 OFFCURVE",
"694 114 OFFCURVE",
"474 114 CURVE SMOOTH"
);
},
{
closed = 1;
nodes = (
"933 794 OFFCURVE",
"1082 916 OFFCURVE",
"1248 916 CURVE SMOOTH",
"1363 916 OFFCURVE",
"1428 852 OFFCURVE",
"1428 758 CURVE SMOOTH",
"1428 597 OFFCURVE",
"1152 566 OFFCURVE",
"919 566 CURVE"
);
}
);
width = 1716;
}
);
unicode = 00E6;
},
{
glyphname = b;
lastChange = "2018-07-25 18:37:45 +0000";
layers = (
{
layerId = "850197A4-73EE-4DD1-A43D-17FCD4749099";
paths = (
{
closed = 1;
nodes = (
"895 -22 OFFCURVE",
"1090 215 OFFCURVE",
"1090 545 CURVE SMOOTH",
"1090 865 OFFCURVE",
"910 1052 OFFCURVE",
"687 1052 CURVE SMOOTH",
"552 1052 OFFCURVE",
"443 1013 OFFCURVE",
"351 879 CURVE",
"351 1560 LINE",
"181 1560 LINE",
"181 71 LINE",
"181 71 OFFCURVE",
"358 -22 OFFCURVE",
"591 -22 CURVE SMOOTH"
);
},
{
closed = 1;
nodes = (
"434 114 OFFCURVE",
"351 151 OFFCURVE",
"351 151 CURVE",
"351 538 LINE SMOOTH",
"351 728 OFFCURVE",
"445 920 OFFCURVE",
"658 920 CURVE SMOOTH",
"800 920 OFFCURVE",
"916 793 OFFCURVE",
"916 550 CURVE SMOOTH",
"916 309 OFFCURVE",
"806 114 OFFCURVE",
"582 114 CURVE SMOOTH"
);
}
);
width = 1196;
}
);
unicode = 0062;
userData = {
com.typemytype.robofont.layerData = {
b = {
anchors = (
);
components = (
);
contours = (
{
points = (
{
segmentType = line;
smooth = 0;
x = 351;
y = 161;
},
{
smooth = 0;
x = 414;
y = 135;
},
{
smooth = 0;
x = 487;
y = 110;
},
{
segmentType = curve;
smooth = 1;
x = 570;
y = 110;
},
{
smooth = 0;
x = 763;
y = 110;
},
{
smooth = 0;
x = 914;
y = 239;
},
{
segmentType = curve;
smooth = 1;
x = 914;
y = 541;
},
{
smooth = 0;
x = 914;
y = 785;
},
{
smooth = 0;
x = 817;
y = 920;
},
{
segmentType = curve;
smooth = 1;
x = 639;
y = 920;
},
{
smooth = 0;
x = 436;
y = 920;
},
{
smooth = 0;
x = 351;
y = 721;
},
{
segmentType = curve;
smooth = 1;
x = 351;
y = 500;
}
);
},
{
points = (
{
segmentType = line;
smooth = 0;
x = 351;
y = -574;
},
{
segmentType = line;
smooth = 0;
x = 181;
y = -574;
},
{
segmentType = line;
smooth = 1;
x = 181;
y = 634;
},
{
smooth = 0;
x = 181;
y = 833;
},
{
smooth = 0;
x = 138;
y = 1026;
},
{
segmentType = curve;
smooth = 0;
x = 138;
y = 1026;
},
{
segmentType = line;
smooth = 0;
x = 309;
y = 1026;
},
{
smooth = 0;
x = 309;
y = 1026;
},
{
smooth = 0;
x = 326;
y = 963;
},
{
segmentType = curve;
smooth = 0;
x = 338;
y = 870;
},
{
smooth = 0;
x = 398;
y = 969;
},
{
smooth = 0;
x = 499;
y = 1052;
},
{
segmentType = curve;
smooth = 1;
x = 674;
y = 1052;
},
{
smooth = 0;
x = 925;
y = 1052;
},
{
smooth = 0;
x = 1088;
y = 853;
},
{
segmentType = curve;
smooth = 1;
x = 1088;
y = 543;
},
{
smooth = 0;
x = 1088;
y = 186;
},
{
smooth = 0;
x = 886;
y = -22;
},
{
segmentType = curve;
smooth = 1;
x = 596;
y = -22;
},
{
smooth = 0;
x = 503;
y = -22;
},
{
smooth = 0;
x = 417;
y = -1;
},
{
segmentType = curve;
smooth = 0;
x = 351;
y = 22;
}
);
}
);
lib = {
};
name = b;
unicodes = (
);
width = 1196;
};
};
};
},
{
glyphname = c;
lastChange = "2018-07-25 18:37:45 +0000";
layers = (
{
layerId = "850197A4-73EE-4DD1-A43D-17FCD4749099";
paths = (
{
closed = 1;
nodes = (
"720 -22 OFFCURVE",
"846 10 OFFCURVE",
"949 78 CURVE",
"899 200 LINE",
"815 144 OFFCURVE",
"731 110 OFFCURVE",
"614 110 CURVE SMOOTH",
"433 110 OFFCURVE",
"280 241 OFFCURVE",
"280 510 CURVE SMOOTH",
"280 778 OFFCURVE",
"421.5 925 OFFCURVE",
"627 920 CURVE SMOOTH",
"714.974 917.86 OFFCURVE",
"813 884 OFFCURVE",
"899 826 CURVE",
"948 952 LINE",
"842 1020 OFFCURVE",
"727 1052 OFFCURVE",
"618 1052 CURVE SMOOTH",
"323.5 1052 OFFCURVE",
"106 853 OFFCURVE",
"106 511 CURVE SMOOTH",
"106 180 OFFCURVE",
"328.5 -22 OFFCURVE",
"609 -22 CURVE SMOOTH"
);
}
);
width = 1016;
}
);
unicode = 0063;
},
{
glyphname = d;
lastChange = "2018-07-25 18:37:45 +0000";
layers = (
{
components = (
{
name = lc_kick;
transform = "{1, 0, 0, 1, 768, 0}";
}
);
layerId = "850197A4-73EE-4DD1-A43D-17FCD4749099";
paths = (
{
closed = 1;
nodes = (
"715 -22 OFFCURVE",
"794 44 OFFCURVE",
"863 161 CURVE",
"1008 228 LINE",
"1008 1560 LINE",
"838 1560 LINE",
"838 1014 LINE",
"773 1037 OFFCURVE",
"696 1052 OFFCURVE",
"631 1052 CURVE SMOOTH",
"335 1052 OFFCURVE",
"106 869 OFFCURVE",
"106 474 CURVE SMOOTH",
"106 159 OFFCURVE",
"318 -22 OFFCURVE",
"552 -22 CURVE SMOOTH"
);
},
{
closed = 1;
nodes = (
"397 110 OFFCURVE",
"280 243 OFFCURVE",
"280 473 CURVE SMOOTH",
"280 724 OFFCURVE",
"378 920 OFFCURVE",
"630 920 CURVE SMOOTH",
"696 920 OFFCURVE",
"763.657 912.908 OFFCURVE",
"839 886 CURVE",
"839 497 LINE SMOOTH",
"839 258 OFFCURVE",
"747 110 OFFCURVE",
"558 110 CURVE SMOOTH"
);
}
);
width = 1203;
}
);
unicode = 0064;
userData = {
com.typemytype.robofont.guides = (
);
com.typemytype.robofont.layerData = {
b = {
anchors = (
);
components = (
);
contours = (
{
points = (
{
segmentType = line;
x = 1008;
y = 228;
},
{
name = inserted;
x = 1008;
y = 151;
},
{
x = 1037;
y = 113;
},
{
segmentType = curve;
smooth = 1;
x = 1098;
y = 113;
},
{
name = inserted;
x = 1124;
y = 113;
},
{
x = 1153;
y = 117;
},
{
segmentType = curve;
smooth = 0;
x = 1187;
y = 125;
},
{
segmentType = line;
smooth = 0;
x = 1205;
y = -1;
},
{
name = inserted;
x = 1152;
y = -20;
},
{
x = 1098;
y = -29;
},
{
segmentType = curve;
smooth = 1;
x = 1044;
y = -29;
},
{
name = inserted;
x = 909;
y = -29;
},
{
x = 838;
y = 50;
},
{
segmentType = curve;
smooth = 1;
x = 838;
y = 209;
}
);
}
);
lib = {
};
name = d;
unicodes = (
);
width = 1203;
};
};
};
},
{
glyphname = eth;
lastChange = "2018-07-25 18:37:45 +0000";
layers = (
{
layerId = "850197A4-73EE-4DD1-A43D-17FCD4749099";
paths = (
{
closed = 1;
nodes = (
"906 -22 OFFCURVE",
"1079 234 OFFCURVE",
"1079 602 CURVE SMOOTH",
"1079 906 OFFCURVE",
"972 1119 OFFCURVE",
"837 1260 CURVE",
"994 1361 LINE",
"933 1456 LINE",
"750 1338 LINE",
"653 1414 OFFCURVE",
"551 1462 OFFCURVE",
"467 1490 CURVE",
"392 1383 LINE",
"447 1366 OFFCURVE",
"537 1325 OFFCURVE",
"626 1258 CURVE",
"467 1156 LINE",
"529 1061 LINE",
"715 1181 LINE",
"819 1076 OFFCURVE",
"902 928 OFFCURVE",
"902 733 CURVE SMOOTH",
"902 723 LINE",
"833 838 OFFCURVE",
"729 915 OFFCURVE",
"556 915 CURVE SMOOTH",
"299 915 OFFCURVE",
"98 738 OFFCURVE",
"98 446 CURVE SMOOTH",
"98 186 OFFCURVE",
"288 -22 OFFCURVE",
"589 -22 CURVE SMOOTH"
);
},
{
closed = 1;
nodes = (
"408 118 OFFCURVE",
"274 239 OFFCURVE",
"274 441 CURVE SMOOTH",
"274 638 OFFCURVE",
"391 775 OFFCURVE",
"582 775 CURVE SMOOTH",
"745 775 OFFCURVE",
"845 664 OFFCURVE",
"887 536 CURVE",
"887 310 OFFCURVE",
"798 118 OFFCURVE",
"582 118 CURVE SMOOTH"
);
}
);
width = 1173;
}
);
unicode = 00F0;
},
{
glyphname = e;
lastChange = "2018-07-25 18:37:45 +0000";
layers = (
{
layerId = "850197A4-73EE-4DD1-A43D-17FCD4749099";
paths = (
{
closed = 1;
nodes = (
"756 -22 OFFCURVE",
"879 17 OFFCURVE",
"998 100 CURVE",
"940 223 LINE",
"877 186 OFFCURVE",
"766 110 OFFCURVE",
"615 110 CURVE SMOOTH",
"495 110 OFFCURVE",
"335 166 OFFCURVE",
"290 398 CURVE",
"613 398 OFFCURVE",
"951 510 OFFCURVE",
"951 755 CURVE SMOOTH",
"951 922 OFFCURVE",
"819 1052 OFFCURVE",
"612 1052 CURVE SMOOTH",
"282 1052 OFFCURVE",
"106 803 OFFCURVE",
"106 505 CURVE SMOOTH",
"106 168 OFFCURVE",
"341 -22 OFFCURVE",
"600 -22 CURVE SMOOTH"
);
},
{
closed = 1;
nodes = (
"280 761 OFFCURVE",
"418 920 OFFCURVE",
"600 920 CURVE SMOOTH",
"715 920 OFFCURVE",
"788 852 OFFCURVE",
"788 758 CURVE SMOOTH",
"788 597 OFFCURVE",
"485 519 OFFCURVE",
"279 519 CURVE"
);
}
);
width = 1070;
}
);
unicode = 0065;
},
{
glyphname = f;
lastChange = "2018-07-25 18:37:45 +0000";
layers = (
{
layerId = "850197A4-73EE-4DD1-A43D-17FCD4749099";
paths = (
{
closed = 1;
nodes = (
"407 0 LINE",
"407 920 LINE",
"666 920 LINE",
"666 1026 LINE",
"407 1026 LINE",
"407 1159 LINE SMOOTH",
"407 1336 OFFCURVE",
"492 1424 OFFCURVE",
"731 1424 CURVE",
"714 1560 LINE",
"334 1560 OFFCURVE",
"237 1380 OFFCURVE",
"237 1147 CURVE SMOOTH",
"237 1026 LINE",
"35 1026 LINE",
"35 920 LINE",
"237 920 LINE",
"237 0 LINE"
);
}
);
width = 750;
}
);
unicode = 0066;
},
{
glyphname = g;
lastChange = "2018-07-25 18:37:45 +0000";
layers = (
{
layerId = "850197A4-73EE-4DD1-A43D-17FCD4749099";
paths = (
{
closed = 1;
nodes = (
"845.048 -566 OFFCURVE",
"1006.048 -309 OFFCURVE",
"1006.048 9 CURVE SMOOTH",
"1006.048 971 LINE",
"926.048 1023 OFFCURVE",
"782.048 1052 OFFCURVE",
"653.048 1052 CURVE SMOOTH",
"367.277 1052 OFFCURVE",
"106 846.2 OFFCURVE",
"106 469.838 CURVE SMOOTH",
"106 186.521 OFFCURVE",
"285.349 -22 OFFCURVE",
"528.048 -22 CURVE SMOOTH",
"664.048 -22 OFFCURVE",
"770.048 21 OFFCURVE",
"836.048 136 CURVE",
"836.048 -12 LINE SMOOTH",
"836.048 -272 OFFCURVE",
"721.048 -424 OFFCURVE",
"489.048 -424 CURVE SMOOTH",
"410.048 -424 OFFCURVE",
"319.048 -407 OFFCURVE",
"214.048 -370 CURVE",
"196.048 -513 LINE",
"309.048 -549 OFFCURVE",
"409.048 -566 OFFCURVE",
"497.048 -566 CURVE SMOOTH"
);
},
{
closed = 1;
nodes = (
"365.836 109.893 OFFCURVE",
"281.204 278.577 OFFCURVE",
"281.204 465.131 CURVE SMOOTH",
"281.204 681.548 OFFCURVE",
"398.21 920.285 OFFCURVE",
"645.955 920.285 CURVE SMOOTH",
"720.821 920.285 OFFCURVE",
"794.741 907.425 OFFCURVE",
"836.048 894 CURVE",
"836.048 453 LINE SMOOTH",
"836.048 258.029 OFFCURVE",
"747.302 109.893 OFFCURVE",
"555.83 109.893 CURVE SMOOTH"
);
}
);
width = 1161.048;
}
);
unicode = 0067;
userData = {
com.typemytype.robofont.layerData = {
b = {
anchors = (
);
components = (
);
contours = (
);
lib = {
};
name = g;
unicodes = (
);
width = 1161.048;
};
};
};
},
{
glyphname = gcommaaccent;
lastChange = "2018-07-25 18:37:45 +0000";
layers = (
{
layerId = "850197A4-73EE-4DD1-A43D-17FCD4749099";
paths = (
{
closed = 1;
nodes = (
"811 -494 OFFCURVE",
"1009 -306 OFFCURVE",
"1009 -23 CURVE SMOOTH",
"1009 962 LINE",
"929 1014 OFFCURVE",
"789 1048 OFFCURVE",
"660 1048 CURVE SMOOTH",
"328 1048 OFFCURVE",
"100 804 OFFCURVE",
"100 438 CURVE SMOOTH",
"100 162 OFFCURVE",
"266 -22 OFFCURVE",
"506 -22 CURVE SMOOTH",
"642 -22 OFFCURVE",
"773 39 OFFCURVE",
"845 133 CURVE",
"845 -44 LINE SMOOTH",
"845 -232 OFFCURVE",
"712 -357 OFFCURVE",
"511 -357 CURVE SMOOTH",
"426 -357 OFFCURVE",
"308 -326 OFFCURVE",
"218 -280 CURVE",
"199 -433 LINE",
"299 -470 OFFCURVE",
"427 -494 OFFCURVE",
"524 -494 CURVE SMOOTH"
);
},
{
closed = 1;
nodes = (
"374 116 OFFCURVE",
"270 249 OFFCURVE",
"270 448 CURVE SMOOTH",
"270 723 OFFCURVE",
"425 907 OFFCURVE",
"657 907 CURVE SMOOTH",
"730 907 OFFCURVE",
"805 893 OFFCURVE",
"845 872 CURVE",
"845 453 LINE SMOOTH",
"845 261 OFFCURVE",
"719 116 OFFCURVE",
"530 116 CURVE SMOOTH"
);
},
{
closed = 1;
nodes = (
"606 1162 LINE",
"709 1625 LINE",
"583 1625 LINE",
"426 1162 LINE"
);
}
);
width = 1129;
}
);
unicode = 0123;
},
{
glyphname = h;
lastChange = "2018-07-25 18:37:45 +0000";
layers = (
{
components = (
{
name = lc_kick;
transform = "{1, 0, 0, 1, 803, 0}";
}
);
layerId = "850197A4-73EE-4DD1-A43D-17FCD4749099";
paths = (
{
closed = 1;
nodes = (
"350 0 LINE",
"350 532 LINE SMOOTH",
"350 753 OFFCURVE",
"490 912 OFFCURVE",
"657 920 CURVE SMOOTH",
"802 927 OFFCURVE",
"873 853 OFFCURVE",
"873 607 CURVE SMOOTH",
"873 216 LINE",
"1043 235 LINE",
"1043 625 LINE SMOOTH",
"1043 946 OFFCURVE",
"895 1052 OFFCURVE",
"709 1052 CURVE SMOOTH",
"546 1052 OFFCURVE",
"432 986 OFFCURVE",
"350 876 CURVE",
"350 1560 LINE",
"180 1560 LINE",
"180 0 LINE"
);
}
);
width = 1239;
}
);
unicode = 0068;
userData = {
com.typemytype.robofont.layerData = {
b = {
anchors = (
);
components = (
);
contours = (
);
lib = {
};
name = h;
unicodes = (
);
width = 1239;
};
};
};
},
{
glyphname = hbar;
lastChange = "2018-07-25 18:37:45 +0000";
layers = (
{
components = (
{
name = h;
}
);
layerId = "850197A4-73EE-4DD1-A43D-17FCD4749099";
paths = (
{
closed = 1;
nodes = (
"606 1207 LINE",
"606 1341 LINE",
"55 1341 LINE",
"55 1207 LINE"
);
}
);
width = 1233;
}
);
unicode = 0127;
userData = {
com.typemytype.robofont.layerData = {
b = {
anchors = (
);
components = (
);
contours = (
);
lib = {
};
name = hbar;
unicodes = (
);
width = 1233;
};
};
};
},
{
glyphname = i;
lastChange = "2018-07-25 18:37:45 +0000";
layers = (
{
components = (
{
name = lc_kick;
transform = "{1, 0, 0, 1, 137, 0}";
}
);
layerId = "850197A4-73EE-4DD1-A43D-17FCD4749099";
paths = (
{
closed = 1;
nodes = (
"377 235 LINE",
"377 1026 LINE",
"207 1026 LINE",
"207 216 LINE"
);
},
{
closed = 1;
nodes = (
"301 1236 LINE SMOOTH",
"360 1236 OFFCURVE",
"418 1273 OFFCURVE",
"418 1346 CURVE SMOOTH",
"418 1420 OFFCURVE",
"359 1458 OFFCURVE",
"301 1458 CURVE SMOOTH",
"300 1458 LINE SMOOTH",
"240 1458 OFFCURVE",
"180 1421 OFFCURVE",
"180 1347 CURVE SMOOTH",
"180 1274 OFFCURVE",
"240 1236 OFFCURVE",
"300 1236 CURVE SMOOTH"
);
}
);
width = 633;
}
);
unicode = 0069;
userData = {
com.typemytype.robofont.layerData = {
b = {
anchors = (
);
components = (
);
contours = (
);
lib = {
};
name = i;
unicodes = (
);
width = 633;
};
};
};
},
{
glyphname = dotlessi;
lastChange = "2018-07-25 18:37:45 +0000";
layers = (
{
layerId = "850197A4-73EE-4DD1-A43D-17FCD4749099";
paths = (
{
closed = 1;
nodes = (
"520 -18 OFFCURVE",
"589 -3 OFFCURVE",
"659 26 CURVE",
"636 145 LINE",
"583 126 OFFCURVE",
"530 111 OFFCURVE",
"484 111 CURVE SMOOTH",
"411 111 OFFCURVE",
"357 149 OFFCURVE",
"357 267 CURVE SMOOTH",
"357 1026 LINE",
"193 1026 LINE",
"193 262 LINE SMOOTH",
"193 66 OFFCURVE",
"308 -18 OFFCURVE",
"456 -18 CURVE SMOOTH"
);
}
);
width = 633;
}
);
unicode = 0131;
},
{
glyphname = j;
lastChange = "2018-07-25 18:37:45 +0000";
layers = (
{
layerId = "850197A4-73EE-4DD1-A43D-17FCD4749099";
paths = (
{
closed = 1;
nodes = (
"354 -464 OFFCURVE",
"431 -390 OFFCURVE",
"431 -226 CURVE SMOOTH",
"431 1026 LINE",
"261 1026 LINE",
"261 -207 LINE SMOOTH",
"261 -288 OFFCURVE",
"229 -322 OFFCURVE",
"154 -322 CURVE SMOOTH",
"128 -322 OFFCURVE",
"97 -318 OFFCURVE",
"60 -310 CURVE",
"41 -436 LINE",
"107 -455 OFFCURVE",
"165 -464 OFFCURVE",
"215 -464 CURVE SMOOTH"
);
},
{
closed = 1;
nodes = (
"351 1236 LINE SMOOTH",
"410 1236 OFFCURVE",
"468 1273 OFFCURVE",
"468 1346 CURVE SMOOTH",
"468 1420 OFFCURVE",
"409 1458 OFFCURVE",
"351 1458 CURVE SMOOTH",
"350 1458 LINE SMOOTH",
"290 1458 OFFCURVE",
"230 1421 OFFCURVE",
"230 1347 CURVE SMOOTH",
"230 1274 OFFCURVE",
"290 1236 OFFCURVE",
"350 1236 CURVE SMOOTH"
);
}
);
width = 595;
}
);
unicode = 006A;
userData = {
com.typemytype.robofont.layerData = {
b = {
anchors = (
);
components = (
);
contours = (
{
points = (
{
segmentType = curve;
smooth = 1;
x = 215;
y = -464;
},
{
smooth = 0;
x = 354;
y = -464;
},
{
smooth = 0;
x = 431;
y = -390;
},
{
segmentType = curve;
smooth = 1;
x = 431;
y = -226;
},
{
segmentType = line;
smooth = 0;
x = 431;
y = 1026;
},
{
segmentType = line;
smooth = 0;
x = 261;
y = 1026;
},
{
segmentType = line;
smooth = 1;
x = 261;
y = -207;
},
{
smooth = 0;
x = 261;
y = -288;
},
{
smooth = 0;
x = 229;
y = -322;
},
{
segmentType = curve;
smooth = 1;
x = 154;
y = -322;
},
{
smooth = 0;
x = 128;
y = -322;
},
{
smooth = 0;
x = 97;
y = -318;
},
{
segmentType = curve;
smooth = 0;
x = 60;
y = -310;
},
{
segmentType = line;
smooth = 0;
x = 41;
y = -436;
},
{
smooth = 0;
x = 107;
y = -455;
},
{
smooth = 0;
x = 165;
y = -464;
}
);
}
);
lib = {
};
name = j;
unicodes = (
);
width = 595;
};
};
};
},
{
glyphname = dotlessj;
lastChange = "2018-07-25 18:37:45 +0000";
layers = (
{
layerId = "850197A4-73EE-4DD1-A43D-17FCD4749099";
paths = (
{
closed = 1;
nodes = (
"302 -464 OFFCURVE",
"381 -360 OFFCURVE",
"381 -84 CURVE SMOOTH",
"381 1026 LINE",
"216 1026 LINE",
"216 -76 LINE SMOOTH",
"216 -269 OFFCURVE",
"189 -329 OFFCURVE",
"78 -329 CURVE SMOOTH",
"20 -329 OFFCURVE",
"-35 -311 OFFCURVE",
"-35 -311 CURVE",
"-50 -443 LINE",
"-17 -452 OFFCURVE",
"44 -464 OFFCURVE",
"101 -464 CURVE SMOOTH"
);
}
);
width = 558;
}
);
unicode = 0237;
},
{
glyphname = k;
lastChange = "2018-07-25 18:37:45 +0000";
layers = (
{
layerId = "850197A4-73EE-4DD1-A43D-17FCD4749099";
paths = (
{
closed = 1;
nodes = (
"350 0 LINE",
"350 460 LINE",
"843 0 LINE",
"1060 0 LINE",
"506 513 LINE",
"998 1026 LINE",
"791 1026 LINE",
"350 556 LINE",
"350 1560 LINE",
"180 1560 LINE",
"180 0 LINE"
);
}
);
width = 1073;
}
);
unicode = 006B;
},
{
glyphname = kgreenlandic;
lastChange = "2018-07-25 18:37:45 +0000";
layers = (
{
layerId = "850197A4-73EE-4DD1-A43D-17FCD4749099";
paths = (
{
closed = 1;
nodes = (
"353 0 LINE",
"353 471 LINE",
"843 0 LINE",
"1062 0 LINE",
"871 174 OFFCURVE",
"691 338 OFFCURVE",
"508 512 CURVE",
"1024 1026 LINE",
"800 1026 LINE",
"353 557 LINE",
"353 1026 LINE",
"188 1026 LINE",
"188 0 LINE"
);
}
);
width = 1071;
}
);
unicode = 0138;
},
{
glyphname = l;
lastChange = "2018-07-25 18:37:45 +0000";
layers = (
{
components = (
{
name = lc_kick_2;
transform = "{1, 0, 0, 1, 144, 0}";
}
);
layerId = "850197A4-73EE-4DD1-A43D-17FCD4749099";
paths = (
{
closed = 1;
nodes = (
"384 235 LINE",
"384 1560 LINE",
"214 1560 LINE",
"214 216 LINE"
);
}
);
width = 661;
}
);
unicode = 006C;
userData = {
com.typemytype.robofont.layerData = {
b = {
anchors = (
);
components = (
);
contours = (
{
points = (
{
segmentType = curve;
smooth = 1;
x = 384;
y = 1580;
},
{
segmentType = line;
smooth = 1;
x = 384;
y = 223;
},
{
name = inserted;
x = 384;
y = 145;
},
{
x = 415;
y = 106;
},
{
segmentType = curve;
smooth = 1;
x = 477;
y = 106;
},
{
name = inserted;
x = 499;
y = 106;
},
{
x = 528;
y = 110;
},
{
segmentType = curve;
smooth = 0;
x = 567;
y = 118;
},
{
segmentType = line;
smooth = 0;
x = 587;
y = -11;
},
{
name = inserted;
x = 532;
y = -30;
},
{
x = 478;
y = -39;
},
{
segmentType = curve;
smooth = 1;
x = 421;
y = -39;
},
{
name = inserted;
x = 282;
y = -39;
},
{
x = 214;
y = 42;
},
{
segmentType = curve;
smooth = 1;
x = 214;
y = 204;
},
{
segmentType = line;
smooth = 0;
x = 214;
y = 1518;
},
{
segmentType = line;
smooth = 0;
x = 85;
y = 1535;
},
{
segmentType = line;
smooth = 0;
x = 85;
y = 1647;
},
{
segmentType = line;
smooth = 1;
x = 320;
y = 1647;
},
{
name = inserted;
x = 363;
y = 1647;
},
{
x = 384;
y = 1625;
}
);
}
);
lib = {
};
name = l;
unicodes = (
);
width = 661;
};
};
};
},
{
glyphname = lslash;
lastChange = "2018-07-25 18:37:45 +0000";
layers = (
{
layerId = "850197A4-73EE-4DD1-A43D-17FCD4749099";
paths = (
{
closed = 1;
nodes = (
"343 0 LINE",
"343 788 LINE",
"514 890 LINE",
"514 1027 LINE",
"343 925 LINE",
"343 1492 LINE",
"178 1492 LINE",
"178 826 LINE",
"10 726 LINE",
"10 589 LINE",
"178 689 LINE",
"178 0 LINE"
);
}
);
width = 513;
}
);
unicode = 0142;
},
{
glyphname = m;
lastChange = "2018-07-25 18:37:45 +0000";
layers = (
{
components = (
{
name = lc_kick;
transform = "{1, 0, 0, 1, 1413, 0}";
}
);
layerId = "850197A4-73EE-4DD1-A43D-17FCD4749099";
paths = (
{
closed = 1;
nodes = (
"351 0 LINE",
"351 515 LINE SMOOTH",
"351 796 OFFCURVE",
"528 920 OFFCURVE",
"657 920 CURVE SMOOTH",
"782 920 OFFCURVE",
"840 840 OFFCURVE",
"840 607 CURVE SMOOTH",
"840 2 LINE",
"1011 0 LINE",
"1011 542 LINE SMOOTH",
"1011 792 OFFCURVE",
"1148 920 OFFCURVE",
"1291 920 CURVE SMOOTH",
"1430 920 OFFCURVE",
"1483 853 OFFCURVE",
"1483 607 CURVE SMOOTH",
"1483 216 LINE",
"1653 235 LINE",
"1653 625 LINE SMOOTH",
"1653 946 OFFCURVE",
"1501 1052 OFFCURVE",
"1320 1052 CURVE SMOOTH",
"1155 1052 OFFCURVE",
"1045 988 OFFCURVE",
"968 870 CURVE",
"913 1003 OFFCURVE",
"806 1052 OFFCURVE",
"684 1052 CURVE SMOOTH",
"528 1052 OFFCURVE",
"413 984 OFFCURVE",
"339 878 CURVE",
"327 976 OFFCURVE",
"309 1026 OFFCURVE",
"309 1026 CURVE",
"138 1026 LINE",
"138 1026 OFFCURVE",
"181 833 OFFCURVE",
"181 634 CURVE SMOOTH",
"181 0 LINE"
);
}
);
width = 1856;
}
);
unicode = 006D;
userData = {
com.typemytype.robofont.layerData = {
b = {
anchors = (
);
components = (
);
contours = (
);
lib = {
};
name = m;
unicodes = (
);
width = 1856;
};
};
};
},
{
glyphname = n;
lastChange = "2018-07-25 18:37:45 +0000";
layers = (
{
components = (
{
name = lc_kick;
transform = "{1, 0, 0, 1, 800, 0}";
}
);
layerId = "850197A4-73EE-4DD1-A43D-17FCD4749099";
paths = (
{
closed = 1;
nodes = (
"351 0 LINE",
"351 552 LINE SMOOTH",
"351 815 OFFCURVE",
"500 920 OFFCURVE",
"661 920 CURVE SMOOTH",
"793 920 OFFCURVE",
"870 859 OFFCURVE",
"870 621 CURVE SMOOTH",
"870 216 LINE",
"1040 235 LINE",
"1040 625 LINE SMOOTH",
"1040 946 OFFCURVE",
"880 1052 OFFCURVE",
"686 1052 CURVE SMOOTH",
"528 1052 OFFCURVE",
"421 993 OFFCURVE",
"339 878 CURVE",
"327 977 OFFCURVE",
"309 1026 OFFCURVE",
"309 1026 CURVE",
"138 1026 LINE",
"138 1026 OFFCURVE",
"181 833 OFFCURVE",
"181 634 CURVE SMOOTH",
"181 0 LINE"
);
}
);
width = 1253;
}
);
unicode = 006E;
userData = {
com.typemytype.robofont.layerData = {
b = {
anchors = (
);
components = (
);
contours = (
{
points = (
{
segmentType = curve;
smooth = 1;
x = 873;
y = 209;
},
{
segmentType = line;
smooth = 1;
x = 873;
y = 857;
},
{
smooth = 0;
x = 873;
y = 1035;
},
{
smooth = 0;
x = 818;
y = 1105;
},
{
segmentType = curve;
smooth = 1;
x = 663;
y = 1105;
},
{
name = inserted;
x = 530;
y = 1105;
},
{
x = 402;
y = 1053;
},
{
segmentType = curve;
smooth = 0;
x = 273;
y = 950;
},
{
segmentType = line;
smooth = 0;
x = 273;
y = 125;
},
{
segmentType = line;
smooth = 0;
x = 422;
y = 110;
},
{
segmentType = line;
smooth = 0;
x = 422;
y = 1;
},
{
segmentType = line;
smooth = 0;
x = -39;
y = 1;
},
{
segmentType = line;
smooth = 0;
x = -39;
y = 110;
},
{
segmentType = line;
smooth = 0;
x = 108;
y = 125;
},
{
segmentType = line;
smooth = 0;
x = 108;
y = 1079;
},
{
segmentType = line;
smooth = 0;
x = -39;
y = 1095;
},
{
segmentType = line;
smooth = 0;
x = -39;
y = 1203;
},
{
segmentType = line;
smooth = 1;
x = 183;
y = 1203;
},
{
name = inserted;
x = 227;
y = 1203;
},
{
x = 249;
y = 1183;
},
{
segmentType = curve;
smooth = 1;
x = 249;
y = 1141;
},
{
segmentType = line;
smooth = 0;
x = 249;
y = 1058;
},
{
name = inserted;
x = 398;
y = 1176;
},
{
x = 546;
y = 1233;
},
{
segmentType = curve;
smooth = 1;
x = 694;
y = 1233;
},
{
smooth = 0;
x = 941;
y = 1233;
},
{
smooth = 0;
x = 1040;
y = 1113;
},
{
segmentType = curve;
smooth = 1;
x = 1040;
y = 857;
},
{
segmentType = line;
smooth = 1;
x = 1040;
y = 228;
},
{
name = inserted;
x = 1040;
y = 151;
},
{
x = 1069;
y = 113;
},
{
segmentType = curve;
smooth = 1;
x = 1130;
y = 113;
},
{
name = inserted;
x = 1156;
y = 113;
},
{
x = 1185;
y = 117;
},
{
segmentType = curve;
smooth = 0;
x = 1219;
y = 125;
},
{
segmentType = line;
smooth = 0;
x = 1237;
y = -1;
},
{
name = inserted;
x = 1184;
y = -20;
},
{
x = 1130;
y = -29;
},
{
segmentType = curve;
smooth = 1;
x = 1076;
y = -29;
},
{
name = inserted;
x = 941;
y = -29;
},
{
x = 873;
y = 50;
}
);
}
);
lib = {
};
name = n;
unicodes = (
);
width = 1253;
};
};
};
},
{
glyphname = o;
lastChange = "2018-07-25 18:37:45 +0000";
layers = (
{
layerId = "850197A4-73EE-4DD1-A43D-17FCD4749099";
paths = (
{
closed = 1;
nodes = (
"894 -22 OFFCURVE",
"1098 192 OFFCURVE",
"1098 513 CURVE SMOOTH",
"1098 834 OFFCURVE",
"894 1052 OFFCURVE",
"606 1052 CURVE SMOOTH",
"314 1052 OFFCURVE",
"106 835 OFFCURVE",
"106 513 CURVE SMOOTH",
"106 193 OFFCURVE",
"313 -22 OFFCURVE",
"606 -22 CURVE SMOOTH"
);
},
{
closed = 1;
nodes = (
"407 110 OFFCURVE",
"280 276 OFFCURVE",
"280 513 CURVE SMOOTH",
"280 755 OFFCURVE",
"408 920 OFFCURVE",
"606 920 CURVE SMOOTH",
"801 920 OFFCURVE",
"924 754 OFFCURVE",
"924 513 CURVE SMOOTH",
"924 275 OFFCURVE",
"800 110 OFFCURVE",
"606 110 CURVE SMOOTH"
);
}
);
width = 1204;
}
);
unicode = 006F;
},
{
glyphname = oslash;
lastChange = "2018-07-25 18:37:45 +0000";
layers = (
{
components = (
{
name = o;
}
);
layerId = "850197A4-73EE-4DD1-A43D-17FCD4749099";
paths = (
{
closed = 1;
nodes = (
"969 1245 LINE",
"869 1277 LINE",
"257 -229 LINE",
"353 -261 LINE"
);
}
);
width = 1216;
}
);
unicode = 00F8;
},
{
glyphname = oe;
lastChange = "2018-07-25 18:37:45 +0000";
layers = (
{
layerId = "850197A4-73EE-4DD1-A43D-17FCD4749099";
paths = (
{
closed = 1;
nodes = (
"788 -22 OFFCURVE",
"932 67 OFFCURVE",
"1018 222 CURVE",
"1108 63 OFFCURVE",
"1262 -22 OFFCURVE",
"1433 -22 CURVE SMOOTH",
"1589 -22 OFFCURVE",
"1699 25 OFFCURVE",
"1819 122 CURVE",
"1751 232 LINE",
"1686 179 OFFCURVE",
"1595 114 OFFCURVE",
"1444 114 CURVE SMOOTH",
"1260 114 OFFCURVE",
"1132 233 OFFCURVE",
"1108 445 CURVE",
"1440 445 OFFCURVE",
"1778 510 OFFCURVE",
"1778 755 CURVE SMOOTH",
"1778 922 OFFCURVE",
"1641 1052 OFFCURVE",
"1434 1052 CURVE SMOOTH",
"1246 1052 OFFCURVE",
"1104 954 OFFCURVE",
"1021 801 CURVE",
"935 959 OFFCURVE",
"789 1052 OFFCURVE",
"612 1052 CURVE SMOOTH",
"320 1052 OFFCURVE",
"112 833 OFFCURVE",
"112 511 CURVE SMOOTH",
"112 191 OFFCURVE",
"320 -22 OFFCURVE",
"613 -22 CURVE SMOOTH"
);
},
{
closed = 1;
nodes = (
"414 114 OFFCURVE",
"282 276 OFFCURVE",
"282 513 CURVE SMOOTH",
"282 755 OFFCURVE",
"414 916 OFFCURVE",
"612 916 CURVE SMOOTH",
"807 916 OFFCURVE",
"933 756 OFFCURVE",
"933 515 CURVE SMOOTH",
"933 277 OFFCURVE",
"807 114 OFFCURVE",
"613 114 CURVE SMOOTH"
);
},
{
closed = 1;
nodes = (
"1120 794 OFFCURVE",
"1269 916 OFFCURVE",
"1435 916 CURVE SMOOTH",
"1550 916 OFFCURVE",
"1615 852 OFFCURVE",
"1615 758 CURVE SMOOTH",
"1615 597 OFFCURVE",
"1339 566 OFFCURVE",
"1106 566 CURVE"
);
}
);
width = 1903;
}
);
unicode = 0153;
},
{
glyphname = p;
lastChange = "2018-07-25 18:37:45 +0000";
layers = (
{
layerId = "850197A4-73EE-4DD1-A43D-17FCD4749099";
paths = (
{
closed = 1;
nodes = (
"351 -574 LINE",
"351 22 LINE",
"417 -1 OFFCURVE",
"503 -22 OFFCURVE",
"596 -22 CURVE SMOOTH",
"886 -22 OFFCURVE",
"1088 186 OFFCURVE",
"1088 543 CURVE SMOOTH",
"1088 853 OFFCURVE",
"925 1052 OFFCURVE",
"674 1052 CURVE SMOOTH",
"499 1052 OFFCURVE",
"398 969 OFFCURVE",
"338 870 CURVE",
"326 963 OFFCURVE",
"309 1026 OFFCURVE",
"309 1026 CURVE",
"138 1026 LINE",
"138 1026 OFFCURVE",
"181 833 OFFCURVE",
"181 634 CURVE SMOOTH",
"181 -574 LINE"
);
},
{
closed = 1;
nodes = (
"487 110 OFFCURVE",
"414 135 OFFCURVE",
"351 161 CURVE",
"351 500 LINE SMOOTH",
"351 721 OFFCURVE",
"436 920 OFFCURVE",
"639 920 CURVE SMOOTH",
"817 920 OFFCURVE",
"914 785 OFFCURVE",
"914 541 CURVE SMOOTH",
"914 239 OFFCURVE",
"763 110 OFFCURVE",
"570 110 CURVE SMOOTH"
);
}
);
width = 1194;
}
);
unicode = 0070;
userData = {
com.typemytype.robofont.layerData = {
b = {
anchors = (
);
components = (
);
contours = (
{
points = (
{
segmentType = curve;
smooth = 1;
x = 581;
y = -22;
},
{
smooth = 0;
x = 348;
y = -22;
},
{
smooth = 0;
x = 180;
y = 71;
},
{
segmentType = curve;
smooth = 0;
x = 180;
y = 71;
},
{
segmentType = line;
smooth = 0;
x = 180;
y = 1560;
},
{
segmentType = line;
smooth = 0;
x = 350;
y = 1560;
},
{
segmentType = line;
smooth = 0;
x = 350;
y = 868;
},
{
smooth = 0;
x = 442;
y = 1002;
},
{
smooth = 0;
x = 553;
y = 1052;
},
{
segmentType = curve;
smooth = 1;
x = 688;
y = 1052;
},
{
smooth = 0;
x = 911;
y = 1052;
},
{
smooth = 0;
x = 1089;
y = 865;
},
{
segmentType = curve;
smooth = 1;
x = 1089;
y = 545;
},
{
smooth = 0;
x = 1089;
y = 215;
},
{
smooth = 0;
x = 885;
y = -22;
}
);
},
{
points = (
{
segmentType = curve;
smooth = 1;
x = 575;
y = 114;
},
{
smooth = 0;
x = 799;
y = 114;
},
{
smooth = 0;
x = 915;
y = 318;
},
{
segmentType = curve;
smooth = 1;
x = 915;
y = 550;
},
{
smooth = 0;
x = 915;
y = 793;
},
{
smooth = 0;
x = 807;
y = 920;
},
{
segmentType = curve;
smooth = 1;
x = 665;
y = 920;
},
{
smooth = 0;
x = 512;
y = 920;
},
{
smooth = 0;
x = 350;
y = 791;
},
{
segmentType = curve;
smooth = 1;
x = 350;
y = 601;
},
{
segmentType = line;
smooth = 0;
x = 350;
y = 151;
},
{
smooth = 0;
x = 350;
y = 151;
},
{
smooth = 0;
x = 427;
y = 114;
}
);
}
);
lib = {
};
name = p;
unicodes = (
);
width = 1194;
};
};
};
},
{
glyphname = thorn;
lastChange = "2018-07-25 18:37:45 +0000";
layers = (
{
layerId = "850197A4-73EE-4DD1-A43D-17FCD4749099";
paths = (
{
closed = 1;
nodes = (
"333 -508 LINE",
"333 135 LINE",
"416 30 OFFCURVE",
"526 -22 OFFCURVE",
"664 -22 CURVE SMOOTH",
"952 -22 OFFCURVE",
"1123 197 OFFCURVE",
"1123 527 CURVE SMOOTH",
"1123 807 OFFCURVE",
"978 1052 OFFCURVE",
"664 1052 CURVE SMOOTH",
"509 1052 OFFCURVE",
"406 982 OFFCURVE",
"335 882 CURVE",
"335 1456 LINE",
"168 1456 LINE",
"168 -508 LINE"
);
},
{
closed = 1;
nodes = (
"443 109 OFFCURVE",
"333 263 OFFCURVE",
"333 494 CURVE SMOOTH",
"333 732 OFFCURVE",
"418 916 OFFCURVE",
"647 916 CURVE SMOOTH",
"863 916 OFFCURVE",
"947 745 OFFCURVE",
"947 521 CURVE SMOOTH",
"947 296 OFFCURVE",
"858 109 OFFCURVE",
"641 109 CURVE SMOOTH"
);
}
);
width = 1223;
}
);
unicode = 00FE;
},
{
glyphname = q;
lastChange = "2018-07-25 18:37:45 +0000";
layers = (
{
layerId = "850197A4-73EE-4DD1-A43D-17FCD4749099";
paths = (
{
closed = 1;
nodes = (
"965 -555 OFFCURVE",
"983 -551 OFFCURVE",
"999 -544 CURVE SMOOTH",
"1316 -405 LINE",
"1270 -285 LINE",
"1009 -394 LINE",
"1009 954 LINE",
"929 1006 OFFCURVE",
"789 1052 OFFCURVE",
"660 1052 CURVE SMOOTH",
"328 1052 OFFCURVE",
"106 820 OFFCURVE",
"106 438 CURVE SMOOTH",
"106 162 OFFCURVE",
"274 -22 OFFCURVE",
"514 -22 CURVE SMOOTH",
"650 -22 OFFCURVE",
"763 28 OFFCURVE",
"839 153 CURVE",
"839 -441 LINE SMOOTH",
"839 -526 OFFCURVE",
"896 -555 OFFCURVE",
"946 -555 CURVE SMOOTH"
);
},
{
closed = 1;
nodes = (
"379 110 OFFCURVE",
"280 248 OFFCURVE",
"280 448 CURVE SMOOTH",
"280 734 OFFCURVE",
"425 920 OFFCURVE",
"657 920 CURVE SMOOTH",
"730 920 OFFCURVE",
"799 893 OFFCURVE",
"839 881 CURVE",
"839 476 LINE SMOOTH",
"839 273 OFFCURVE",
"739 110 OFFCURVE",
"535 110 CURVE SMOOTH"
);
}
);
width = 1183;
}
);
unicode = 0071;
userData = {
com.typemytype.robofont.layerData = {
b = {
anchors = (
);
components = (
);
contours = (
);
lib = {
};
name = q;
unicodes = (
);
width = 1183;
};
};
};
},
{
glyphname = r;
lastChange = "2018-07-25 18:37:45 +0000";
layers = (
{
layerId = "850197A4-73EE-4DD1-A43D-17FCD4749099";
paths = (
{
closed = 1;
nodes = (
"353 0 LINE",
"353 457 LINE SMOOTH",
"353 680 OFFCURVE",
"412 904 OFFCURVE",
"614 904 CURVE SMOOTH",
"649 904 OFFCURVE",
"688 898 OFFCURVE",
"732 883 CURVE",
"746 1028 LINE",
"697 1041 OFFCURVE",
"652 1047 OFFCURVE",
"612 1047 CURVE",
"472 1047 OFFCURVE",
"385 975 OFFCURVE",
"339 890 CURVE",
"327 981 OFFCURVE",
"311 1026 OFFCURVE",
"311 1026 CURVE",
"140 1026 LINE",
"140 1026 OFFCURVE",
"183 833 OFFCURVE",
"183 634 CURVE SMOOTH",
"183 0 LINE"
);
}
);
width = 778;
}
);
unicode = 0072;
},
{
glyphname = s;
lastChange = "2018-07-25 18:37:45 +0000";
layers = (
{
layerId = "850197A4-73EE-4DD1-A43D-17FCD4749099";
paths = (
{
closed = 1;
nodes = (
"661 -22 OFFCURVE",
"804 91 OFFCURVE",
"804 290 CURVE SMOOTH",
"804 468 OFFCURVE",
"678 525 OFFCURVE",
"514 601 CURVE SMOOTH",
"365 670 OFFCURVE",
"283 695 OFFCURVE",
"283 784 CURVE SMOOTH",
"283 872 OFFCURVE",
"366 920 OFFCURVE",
"469 920 CURVE SMOOTH",
"551 920 OFFCURVE",
"649 887 OFFCURVE",
"733 838 CURVE",
"771 976 LINE",
"701 1013 OFFCURVE",
"596 1052 OFFCURVE",
"460 1052 CURVE SMOOTH",
"268 1052 OFFCURVE",
"113 961 OFFCURVE",
"113 771 CURVE SMOOTH",
"113 575 OFFCURVE",
"294 532 OFFCURVE",
"438 465 CURVE SMOOTH",
"597 392 OFFCURVE",
"641 365 OFFCURVE",
"641 272 CURVE SMOOTH",
"641 155 OFFCURVE",
"552 110 OFFCURVE",
"453 110 CURVE SMOOTH",
"353 110 OFFCURVE",
"233 156 OFFCURVE",
"157 206 CURVE",
"105 75 LINE",
"166 38 OFFCURVE",
"292 -22 OFFCURVE",
"462 -22 CURVE SMOOTH"
);
}
);
width = 890;
}
);
unicode = 0073;
},
{
glyphname = germandbls;
lastChange = "2018-07-25 18:37:45 +0000";
layers = (
{
layerId = "850197A4-73EE-4DD1-A43D-17FCD4749099";
paths = (
{
closed = 1;
nodes = (
"988 -22 OFFCURVE",
"1181 102 OFFCURVE",
"1181 341 CURVE SMOOTH",
"1181 601 OFFCURVE",
"986 704 OFFCURVE",
"738 775 CURVE SMOOTH",
"712 782 OFFCURVE",
"702 790 OFFCURVE",
"702 797 CURVE SMOOTH",
"702 805 OFFCURVE",
"714 812 OFFCURVE",
"735 819 CURVE SMOOTH",
"902 876 OFFCURVE",
"996 1026 OFFCURVE",
"996 1168 CURVE SMOOTH",
"996 1329 OFFCURVE",
"877 1480 OFFCURVE",
"612 1480 CURVE SMOOTH",
"347 1480 OFFCURVE",
"182 1325 OFFCURVE",
"182 1040 CURVE SMOOTH",
"184 0 LINE",
"349 0 LINE",
"345 1007 LINE SMOOTH",
"344 1197 OFFCURVE",
"421 1351 OFFCURVE",
"611 1351 CURVE SMOOTH",
"747 1351 OFFCURVE",
"819 1266 OFFCURVE",
"819 1164 CURVE SMOOTH",
"819 1064 OFFCURVE",
"750 948 OFFCURVE",
"604 881 CURVE SMOOTH",
"555 858 OFFCURVE",
"533 823 OFFCURVE",
"533 790 CURVE SMOOTH",
"533 760 OFFCURVE",
"551 731 OFFCURVE",
"585 713 CURVE SMOOTH",
"770 616 OFFCURVE",
"1024 580 OFFCURVE",
"1024 324 CURVE SMOOTH",
"1024 199 OFFCURVE",
"919 109 OFFCURVE",
"796 109 CURVE SMOOTH",
"687 109 OFFCURVE",
"605 173 OFFCURVE",
"544 243 CURVE",
"479 138 LINE",
"551 47 OFFCURVE",
"656 -22 OFFCURVE",
"800 -22 CURVE SMOOTH"
);
}
);
width = 1263;
}
);
unicode = 00DF;
},
{
glyphname = t;
lastChange = "2018-07-25 18:37:45 +0000";
layers = (
{
components = (
{
name = lc_kick_2;
transform = "{1, 0, 0, 1, 185, 0}";
}
);
layerId = "850197A4-73EE-4DD1-A43D-17FCD4749099";
paths = (
{
closed = 1;
nodes = (
"425 235 LINE SMOOTH",
"425 920 LINE",
"681 920 LINE",
"681 1026 LINE",
"425 1026 LINE",
"425 1353 LINE",
"255 1353 LINE",
"255 1026 LINE",
"52 1026 LINE",
"52 920 LINE",
"255 920 LINE",
"255 216 LINE"
);
}
);
width = 776;
}
);
unicode = 0074;
userData = {
com.typemytype.robofont.layerData = {
b = {
anchors = (
);
components = (
);
contours = (
{
points = (
{
segmentType = line;
smooth = 0;
x = 52;
y = 920;
},
{
segmentType = line;
smooth = 0;
x = 52;
y = 1026;
},
{
segmentType = line;
smooth = 0;
x = 255;
y = 1026;
},
{
segmentType = line;
smooth = 0;
x = 255;
y = 1353;
},
{
segmentType = line;
smooth = 0;
x = 425;
y = 1353;
},
{
segmentType = line;
smooth = 0;
x = 425;
y = 1026;
},
{
segmentType = line;
smooth = 0;
x = 708;
y = 1026;
},
{
segmentType = line;
smooth = 0;
x = 708;
y = 920;
},
{
segmentType = line;
smooth = 0;
x = 425;
y = 920;
},
{
segmentType = line;
smooth = 1;
x = 425;
y = 320;
},
{
smooth = 0;
x = 425;
y = 195;
},
{
smooth = 0;
x = 442;
y = 123;
},
{
segmentType = curve;
smooth = 1;
x = 648;
y = 123;
},
{
smooth = 0;
x = 664;
y = 123;
},
{
smooth = 0;
x = 681;
y = 123;
},
{
segmentType = curve;
smooth = 0;
x = 699;
y = 124;
},
{
segmentType = line;
smooth = 0;
x = 685;
y = -10;
},
{
smooth = 0;
x = 655;
y = -12;
},
{
smooth = 0;
x = 626;
y = -13;
},
{
segmentType = curve;
smooth = 1;
x = 600;
y = -13;
},
{
smooth = 0;
x = 292;
y = -13;
},
{
smooth = 0;
x = 255;
y = 144;
},
{
segmentType = curve;
smooth = 1;
x = 255;
y = 326;
},
{
segmentType = line;
smooth = 0;
x = 255;
y = 920;
}
);
}
);
lib = {
};
name = t;
unicodes = (
);
width = 776;
};
};
};
},
{
glyphname = u;
lastChange = "2018-07-25 18:37:45 +0000";
layers = (
{
components = (
{
name = lc_kick;
transform = "{1, 0, 0, 1, 783, 0}";
}
);
layerId = "850197A4-73EE-4DD1-A43D-17FCD4749099";
paths = (
{
closed = 1;
nodes = (
"698 -22 OFFCURVE",
"786 51 OFFCURVE",
"859 145 CURVE",
"1023 235 LINE SMOOTH",
"1023 1026 LINE",
"853 1026 LINE",
"853 482 LINE",
"853 259 OFFCURVE",
"723 110 OFFCURVE",
"558 110 CURVE SMOOTH",
"445 110 OFFCURVE",
"347 165 OFFCURVE",
"347 352 CURVE SMOOTH",
"347 365 LINE SMOOTH",
"353 583 LINE SMOOTH",
"354 613 OFFCURVE",
"354 640 OFFCURVE",
"354 667 CURVE SMOOTH",
"354 906 OFFCURVE",
"325 1026 OFFCURVE",
"325 1026 CURVE",
"154 1026 LINE",
"154 1026 OFFCURVE",
"183 832 OFFCURVE",
"183 634 CURVE SMOOTH",
"183 617 OFFCURVE",
"182 599 OFFCURVE",
"182 582 CURVE SMOOTH",
"176 365 LINE",
"176 347 LINE SMOOTH",
"176 78 OFFCURVE",
"352 -22 OFFCURVE",
"533 -22 CURVE SMOOTH"
);
}
);
width = 1216;
}
);
unicode = 0075;
userData = {
com.typemytype.robofont.layerData = {
b = {
anchors = (
);
components = (
);
contours = (
{
points = (
{
segmentType = curve;
smooth = 1;
x = 1023;
y = 1173;
},
{
segmentType = line;
smooth = 1;
x = 1023;
y = 241;
},
{
name = inserted;
x = 1023;
y = 163;
},
{
x = 1054;
y = 124;
},
{
segmentType = curve;
smooth = 1;
x = 1117;
y = 124;
},
{
name = inserted;
x = 1152;
y = 124;
},
{
x = 1181;
y = 128;
},
{
segmentType = curve;
smooth = 0;
x = 1205;
y = 136;
},
{
segmentType = line;
smooth = 0;
x = 1227;
y = 7;
},
{
name = inserted;
x = 1171;
y = -12;
},
{
x = 1116;
y = -21;
},
{
segmentType = curve;
smooth = 1;
x = 1061;
y = -21;
},
{
name = inserted;
x = 946;
y = -21;
},
{
x = 879;
y = 34;
},
{
segmentType = curve;
smooth = 0;
x = 859;
y = 145;
},
{
name = inserted;
x = 709;
y = 34;
},
{
x = 568;
y = -21;
},
{
segmentType = curve;
smooth = 1;
x = 431;
y = -21;
},
{
smooth = 0;
x = 160;
y = -21;
},
{
smooth = 0;
x = 62;
y = 96;
},
{
segmentType = curve;
smooth = 1;
x = 62;
y = 364;
},
{
segmentType = line;
smooth = 0;
x = 62;
y = 1111;
},
{
segmentType = line;
smooth = 0;
x = -89;
y = 1128;
},
{
segmentType = line;
smooth = 0;
x = -89;
y = 1239;
},
{
segmentType = line;
smooth = 1;
x = 158;
y = 1239;
},
{
name = inserted;
x = 207;
y = 1239;
},
{
x = 231;
y = 1217;
},
{
segmentType = curve;
smooth = 1;
x = 231;
y = 1173;
},
{
segmentType = line;
smooth = 1;
x = 231;
y = 364;
},
{
smooth = 0;
x = 231;
y = 183;
},
{
smooth = 0;
x = 289;
y = 108;
},
{
segmentType = curve;
smooth = 1;
x = 446;
y = 108;
},
{
name = inserted;
x = 584;
y = 108;
},
{
x = 718;
y = 164;
},
{
segmentType = curve;
smooth = 0;
x = 855;
y = 276;
},
{
segmentType = line;
smooth = 0;
x = 855;
y = 1111;
},
{
segmentType = line;
smooth = 0;
x = 725;
y = 1128;
},
{
segmentType = line;
smooth = 0;
x = 725;
y = 1239;
},
{
segmentType = line;
smooth = 1;
x = 959;
y = 1239;
},
{
name = inserted;
x = 1002;
y = 1239;
},
{
x = 1023;
y = 1217;
}
);
}
);
lib = {
};
name = u;
unicodes = (
);
width = 1216;
};
};
};
},
{
glyphname = v;
lastChange = "2018-07-25 18:37:45 +0000";
layers = (
{
layerId = "850197A4-73EE-4DD1-A43D-17FCD4749099";
paths = (
{
closed = 1;
nodes = (
"616 0 LINE",
"1014 1026 LINE",
"837 1026 LINE",
"738 739 OFFCURVE",
"626 465 OFFCURVE",
"538 167 CURVE",
"481 353 LINE",
"228 1026 LINE",
"46 1026 LINE",
"448 0 LINE"
);
}
);
width = 1060;
}
);
unicode = 0076;
},
{
glyphname = w;
lastChange = "2018-07-25 18:37:45 +0000";
layers = (
{
layerId = "850197A4-73EE-4DD1-A43D-17FCD4749099";
paths = (
{
closed = 1;
nodes = (
"542 0 LINE",
"834 831 LINE",
"1100 0 LINE",
"1260 0 LINE",
"1610 1026 LINE",
"1441 1026 LINE",
"1219 287 LINE",
"1207 255 OFFCURVE",
"1198 219 OFFCURVE",
"1185 189 CURVE",
"1175 219 OFFCURVE",
"1165 258 OFFCURVE",
"1156 286 CURVE SMOOTH",
"919 1026 LINE",
"760 1026 LINE",
"500 276 LINE",
"488 249 OFFCURVE",
"479 214 OFFCURVE",
"469 186 CURVE",
"459 217 OFFCURVE",
"449 255 OFFCURVE",
"440 284 CURVE SMOOTH",
"209 1026 LINE",
"33 1026 LINE",
"380 0 LINE"
);
}
);
width = 1643;
}
);
unicode = 0077;
},
{
glyphname = x;
lastChange = "2018-07-25 18:37:45 +0000";
layers = (
{
layerId = "850197A4-73EE-4DD1-A43D-17FCD4749099";
paths = (
{
closed = 1;
nodes = (
"204 0 LINE",
"501 396 LINE",
"780 0 LINE",
"981 0 LINE",
"598 518 LINE",
"968 1026 LINE",
"789 1026 LINE",
"512 638 LINE",
"235 1026 LINE",
"33 1026 LINE",
"406 514 LINE",
"14 0 LINE"
);
}
);
width = 995;
}
);
unicode = 0078;
},
{
glyphname = y;
lastChange = "2018-07-25 18:37:45 +0000";
layers = (
{
layerId = "850197A4-73EE-4DD1-A43D-17FCD4749099";
paths = (
{
closed = 1;
nodes = (
"880 -566 OFFCURVE",
"1041 -309 OFFCURVE",
"1041 9 CURVE SMOOTH",
"1041 1026 LINE",
"871 1026 LINE",
"871 453 LINE SMOOTH",
"871 258 OFFCURVE",
"782 110 OFFCURVE",
"591 110 CURVE",
"563 -22 LINE",
"699 -22 OFFCURVE",
"805 21 OFFCURVE",
"871 136 CURVE",
"871 -12 LINE SMOOTH",
"871 -272 OFFCURVE",
"756 -424 OFFCURVE",
"524 -424 CURVE SMOOTH",
"445 -424 OFFCURVE",
"354 -407 OFFCURVE",
"249 -370 CURVE",
"231 -513 LINE",
"344 -549 OFFCURVE",
"444 -566 OFFCURVE",
"532 -566 CURVE SMOOTH"
);
},
{
closed = 1;
nodes = (
"591 110 LINE",
"477 110 OFFCURVE",
"347 165 OFFCURVE",
"347 354 CURVE SMOOTH",
"347 365 LINE SMOOTH",
"353 595 LINE SMOOTH",
"354 633 OFFCURVE",
"354 667 OFFCURVE",
"354 699 CURVE SMOOTH",
"354 959 OFFCURVE",
"325 1026 OFFCURVE",
"325 1026 CURVE",
"154 1026 LINE",
"154 1026 OFFCURVE",
"183 927 OFFCURVE",
"183 679 CURVE SMOOTH",
"183 649 OFFCURVE",
"183 617 OFFCURVE",
"182 582 CURVE SMOOTH",
"176 365 LINE SMOOTH",
"176 349 LINE SMOOTH",
"176 76 OFFCURVE",
"381 -22 OFFCURVE",
"563 -22 CURVE"
);
}
);
width = 1197;
}
);
unicode = 0079;
userData = {
com.typemytype.robofont.layerData = {
b = {
anchors = (
);
components = (
);
contours = (
{
points = (
{
segmentType = line;
smooth = 0;
x = 591;
y = 110;
},
{
smooth = 0;
x = 782;
y = 110;
},
{
smooth = 0;
x = 871;
y = 258;
},
{
segmentType = curve;
smooth = 1;
x = 871;
y = 453;
},
{
segmentType = line;
smooth = 0;
x = 871;
y = 1026;
},
{
segmentType = line;
smooth = 0;
x = 1041;
y = 1026;
},
{
segmentType = line;
smooth = 1;
x = 1041;
y = 9;
},
{
smooth = 0;
x = 1041;
y = -309;
},
{
smooth = 0;
x = 880;
y = -566;
},
{
segmentType = curve;
smooth = 1;
x = 532;
y = -566;
},
{
smooth = 0;
x = 444;
y = -566;
},
{
smooth = 0;
x = 344;
y = -549;
},
{
segmentType = curve;
smooth = 0;
x = 231;
y = -513;
},
{
segmentType = line;
smooth = 0;
x = 249;
y = -370;
},
{
smooth = 0;
x = 354;
y = -407;
},
{
smooth = 0;
x = 445;
y = -424;
},
{
segmentType = curve;
smooth = 1;
x = 524;
y = -424;
},
{
smooth = 0;
x = 756;
y = -424;
},
{
smooth = 0;
x = 871;
y = -272;
},
{
segmentType = curve;
smooth = 1;
x = 871;
y = -12;
},
{
segmentType = line;
smooth = 0;
x = 871;
y = 136;
},
{
smooth = 0;
x = 805;
y = 21;
},
{
smooth = 0;
x = 699;
y = -22;
},
{
segmentType = curve;
smooth = 0;
x = 563;
y = -22;
}
);
}
);
lib = {
};
name = y;
unicodes = (
);
width = 1197;
};
};
};
},
{
glyphname = z;
lastChange = "2018-07-25 18:37:45 +0000";
layers = (
{
layerId = "850197A4-73EE-4DD1-A43D-17FCD4749099";
paths = (
{
closed = 1;
nodes = (
"892 0 LINE",
"892 134 LINE",
"332 134 LINE",
"875 939 LINE",
"875 1026 LINE",
"133 1026 LINE",
"133 891 LINE",
"652 891 LINE",
"107 89 LINE",
"107 0 LINE"
);
}
);
width = 982;
}
);
unicode = 007A;
},
{
glyphname = k.alt.2;
lastChange = "2018-07-25 18:37:45 +0000";
layers = (
{
layerId = "850197A4-73EE-4DD1-A43D-17FCD4749099";
paths = (
{
closed = 1;
nodes = (
"1044 -24 OFFCURVE",
"1075 -17 OFFCURVE",
"1108 -4 CURVE",
"1120 131 LINE",
"1094 117 OFFCURVE",
"1070 110 OFFCURVE",
"1048 110 CURVE SMOOTH",
"960 110 OFFCURVE",
"896 207 OFFCURVE",
"831 295 CURVE SMOOTH",
"671 512 LINE",
"1008 976 LINE",
"860 1026 LINE",
"336 288 LINE",
"336 1526 LINE",
"172 1526 LINE",
"172 60 LINE SMOOTH",
"172 11 OFFCURVE",
"203 -15 OFFCURVE",
"239 -15 CURVE SMOOTH",
"265 -15 OFFCURVE",
"294 -1 OFFCURVE",
"317 27 CURVE",
"582 390 LINE",
"718 206 LINE SMOOTH",
"812 78 OFFCURVE",
"898 -24 OFFCURVE",
"1015 -24 CURVE SMOOTH"
);
}
);
width = 1126;
}
);
},
{
glyphname = f.alt;
lastChange = "2018-07-25 18:37:45 +0000";
layers = (
{
layerId = "850197A4-73EE-4DD1-A43D-17FCD4749099";
paths = (
{
closed = 1;
nodes = (
"403 -393 OFFCURVE",
"425 -215 OFFCURVE",
"425 -83 CURVE SMOOTH",
"425 919 LINE",
"671 919 LINE",
"671 1026 LINE",
"425 1026 LINE",
"425 1196 LINE SMOOTH",
"425 1393 OFFCURVE",
"542 1406 OFFCURVE",
"721 1406 CURVE",
"721 1526 LINE",
"667 1526 LINE SMOOTH",
"404 1526 OFFCURVE",
"266 1447 OFFCURVE",
"266 1194 CURVE SMOOTH",
"266 1026 LINE",
"64 1026 LINE",
"64 919 LINE",
"266 919 LINE",
"266 -76 LINE SMOOTH",
"266 -227 OFFCURVE",
"239 -255 OFFCURVE",
"153 -269 CURVE",
"173 -404 LINE"
);
}
);
width = 711;
}
);
},
{
glyphname = k.alt;
lastChange = "2018-07-25 18:37:45 +0000";
layers = (
{
layerId = "850197A4-73EE-4DD1-A43D-17FCD4749099";
paths = (
{
closed = 1;
nodes = (
"313 0 LINE",
"602 445 LINE",
"872 0 LINE",
"1053 0 LINE",
"689 580 LINE",
"985 1026 LINE",
"808 1026 LINE",
"351 308 LINE",
"351 1526 LINE",
"188 1526 LINE",
"188 0 LINE"
);
}
);
width = 1068;
}
);
},
{
glyphname = ordmasculine;
lastChange = "2018-07-25 18:37:45 +0000";
layers = (
{
layerId = "850197A4-73EE-4DD1-A43D-17FCD4749099";
paths = (
{
closed = 1;
nodes = (
"757 771 OFFCURVE",
"903 896 OFFCURVE",
"903 1125 CURVE SMOOTH",
"903 1326 OFFCURVE",
"775 1480 OFFCURVE",
"548 1480 CURVE SMOOTH",
"341 1480 OFFCURVE",
"191 1357 OFFCURVE",
"191 1128 CURVE SMOOTH",
"191 905 OFFCURVE",
"329 771 OFFCURVE",
"549 771 CURVE SMOOTH"
);
},
{
closed = 1;
nodes = (
"407 879 OFFCURVE",
"331 981 OFFCURVE",
"331 1127 CURVE SMOOTH",
"331 1268 OFFCURVE",
"409 1373 OFFCURVE",
"546 1373 CURVE SMOOTH",
"686 1373 OFFCURVE",
"765 1268 OFFCURVE",
"765 1123 CURVE SMOOTH",
"765 983 OFFCURVE",
"686 879 OFFCURVE",
"549 879 CURVE SMOOTH"
);
}
);
width = 1094;
}
);
unicode = 00BA;
},
{
glyphname = Delta;
lastChange = "2018-07-25 18:37:45 +0000";
layers = (
{
layerId = "850197A4-73EE-4DD1-A43D-17FCD4749099";
paths = (
{
closed = 1;
nodes = (
"1244 0 LINE",
"1244 80 LINE",
"735 1456 LINE",
"560 1456 LINE",
"50 80 LINE",
"50 0 LINE"
);
},
{
closed = 1;
nodes = (
"612 1187 LINE",
"643 1294 LINE",
"675 1187 LINE",
"1050 135 LINE",
"245 135 LINE"
);
}
);
width = 1294;
}
);
unicode = "0394,03B4";
},
{
glyphname = uni03A9;
lastChange = "2018-07-25 18:37:45 +0000";
layers = (
{
layerId = "850197A4-73EE-4DD1-A43D-17FCD4749099";
paths = (
{
closed = 1;
nodes = (
"641 0 LINE",
"638 121 LINE",
"454 246 OFFCURVE",
"303 477 OFFCURVE",
"303 790 CURVE SMOOTH",
"303 1093 OFFCURVE",
"468 1330 OFFCURVE",
"794 1330 CURVE SMOOTH",
"1094 1330 OFFCURVE",
"1273 1126 OFFCURVE",
"1273 785 CURVE SMOOTH",
"1273 509 OFFCURVE",
"1123 253 OFFCURVE",
"933 121 CURVE",
"937 0 LINE",
"1444 0 LINE",
"1453 138 LINE",
"1131 137 LINE",
"1297 273 OFFCURVE",
"1451 497 OFFCURVE",
"1451 803 CURVE SMOOTH",
"1451 1221 OFFCURVE",
"1212 1480 OFFCURVE",
"798 1480 CURVE SMOOTH",
"383 1480 OFFCURVE",
"124 1236 OFFCURVE",
"124 807 CURVE SMOOTH",
"124 524 OFFCURVE",
"262 273 OFFCURVE",
"439 137 CURVE",
"103 138 LINE",
"114 0 LINE"
);
}
);
width = 1572;
}
);
unicode = "03A9,03C9";
},
{
glyphname = uni03BC;
lastChange = "2018-07-25 18:37:45 +0000";
layers = (
{
layerId = "850197A4-73EE-4DD1-A43D-17FCD4749099";
paths = (
{
closed = 1;
nodes = (
"342 -202 LINE",
"342 26 LINE",
"401 -8 OFFCURVE",
"471 -22 OFFCURVE",
"541 -22 CURVE SMOOTH",
"693 -22 OFFCURVE",
"806 37 OFFCURVE",
"881 161 CURVE",
"911 32 OFFCURVE",
"1005 -14 OFFCURVE",
"1142 -14 CURVE",
"1171 121 LINE",
"1045 121 OFFCURVE",
"1026 182 OFFCURVE",
"1026 328 CURVE SMOOTH",
"1026 1026 LINE",
"862 1026 LINE",
"862 482 LINE SMOOTH",
"862 259 OFFCURVE",
"726 114 OFFCURVE",
"561 114 CURVE SMOOTH",
"448 114 OFFCURVE",
"344 165 OFFCURVE",
"344 352 CURVE SMOOTH",
"344 365 LINE SMOOTH",
"350 595 LINE SMOOTH",
"351 616 OFFCURVE",
"351 636 OFFCURVE",
"351 656 CURVE SMOOTH",
"351 951 OFFCURVE",
"291 1026 OFFCURVE",
"291 1026 CURVE",
"126 1000 LINE",
"126 1000 OFFCURVE",
"186 913 OFFCURVE",
"186 639 CURVE SMOOTH",
"186 621 OFFCURVE",
"186 602 OFFCURVE",
"185 582 CURVE SMOOTH",
"187 -202 LINE"
);
}
);
width = 1239;
}
);
unicode = 03BC;
},
{
glyphname = pi;
lastChange = "2018-07-25 18:37:45 +0000";
layers = (
{
layerId = "850197A4-73EE-4DD1-A43D-17FCD4749099";
paths = (
{
closed = 1;
nodes = (
"1099 -22 OFFCURVE",
"1144 -16 OFFCURVE",
"1189 -8 CURVE",
"1179 114 LINE",
"1150 105 OFFCURVE",
"1124 101 OFFCURVE",
"1099 101 CURVE SMOOTH",
"1015 101 OFFCURVE",
"1001 160 OFFCURVE",
"1001 242 CURVE SMOOTH",
"1001 893 LINE",
"1205 893 LINE",
"1205 1026 LINE",
"420 1026 LINE SMOOTH",
"278 1026 OFFCURVE",
"156 993 OFFCURVE",
"77 933 CURVE",
"107 782 LINE",
"174 854 OFFCURVE",
"281 893 OFFCURVE",
"375 893 CURVE",
"375 655 OFFCURVE",
"293 216 OFFCURVE",
"170 0 CURVE",
"351 0 LINE",
"443 161 OFFCURVE",
"527 618 OFFCURVE",
"527 893 CURVE",
"842 893 LINE",
"842 265 LINE SMOOTH",
"842 90 OFFCURVE",
"879 -22 OFFCURVE",
"1052 -22 CURVE SMOOTH"
);
}
);
width = 1278;
}
);
unicode = 03C0;
},
{
glyphname = zero;
lastChange = "2018-07-25 18:37:45 +0000";
layers = (
{
layerId = "850197A4-73EE-4DD1-A43D-17FCD4749099";
paths = (
{
closed = 1;
nodes = (
"1022 -24 OFFCURVE",
"1154 361 OFFCURVE",
"1154 786 CURVE SMOOTH",
"1154 1213 OFFCURVE",
"1048 1586 OFFCURVE",
"656 1586 CURVE SMOOTH",
"284 1586 OFFCURVE",
"162 1199 OFFCURVE",
"162 786 CURVE SMOOTH",
"162 355 OFFCURVE",
"281 -24 OFFCURVE",
"656 -24 CURVE SMOOTH"
);
},
{
closed = 1;
nodes = (
"383 126 OFFCURVE",
"346 499 OFFCURVE",
"346 786 CURVE SMOOTH",
"346 1060 OFFCURVE",
"401 1436 OFFCURVE",
"656 1436 CURVE SMOOTH",
"928 1436 OFFCURVE",
"970 1072 OFFCURVE",
"970 786 CURVE SMOOTH",
"970 516 OFFCURVE",
"907 126 OFFCURVE",
"656 126 CURVE SMOOTH"
);
}
);
width = 1316;
}
);
unicode = 0030;
},
{
glyphname = one;
lastChange = "2018-07-25 18:37:45 +0000";
layers = (
{
layerId = "850197A4-73EE-4DD1-A43D-17FCD4749099";
paths = (
{
closed = 1;
nodes = (
"474 0 LINE",
"474 1560 LINE",
"302 1560 LINE",
"302 0 LINE"
);
}
);
width = 775;
}
);
unicode = 0031;
},
{
glyphname = two;
lastChange = "2018-07-25 18:37:45 +0000";
layers = (
{
layerId = "850197A4-73EE-4DD1-A43D-17FCD4749099";
paths = (
{
closed = 1;
nodes = (
"1060 0 LINE",
"1060 144 LINE",
"448 144 LINE",
"811 605 LINE SMOOTH",
"977 815 OFFCURVE",
"1059 948 OFFCURVE",
"1059 1152 CURVE SMOOTH",
"1059 1422 OFFCURVE",
"885 1586 OFFCURVE",
"618 1586 CURVE SMOOTH",
"360 1586 OFFCURVE",
"191 1369 OFFCURVE",
"191 1369 CURVE",
"289 1241 LINE SMOOTH",
"290 1240 OFFCURVE",
"424 1436 OFFCURVE",
"621 1436 CURVE SMOOTH",
"788 1436 OFFCURVE",
"889 1324 OFFCURVE",
"889 1157 CURVE SMOOTH",
"889 1022 OFFCURVE",
"840 902 OFFCURVE",
"701 725 CURVE SMOOTH",
"237 135 LINE",
"237 0 LINE"
);
}
);
width = 1316;
}
);
unicode = 0032;
},
{
glyphname = three;
lastChange = "2018-07-25 18:37:45 +0000";
layers = (
{
layerId = "850197A4-73EE-4DD1-A43D-17FCD4749099";
paths = (
{
closed = 1;
nodes = (
"907 -24 OFFCURVE",
"1120 128 OFFCURVE",
"1120 434 CURVE SMOOTH",
"1120 623 OFFCURVE",
"1008 780 OFFCURVE",
"818 819 CURVE",
"980 867 OFFCURVE",
"1066 1022 OFFCURVE",
"1066 1185 CURVE SMOOTH",
"1066 1446 OFFCURVE",
"858 1586 OFFCURVE",
"626 1586 CURVE SMOOTH",
"464 1586 OFFCURVE",
"288 1523 OFFCURVE",
"185 1400 CURVE",
"281 1291 LINE",
"380 1391 OFFCURVE",
"487 1435 OFFCURVE",
"630 1435 CURVE SMOOTH",
"786 1435 OFFCURVE",
"901 1345 OFFCURVE",
"901 1179 CURVE SMOOTH",
"901 990 OFFCURVE",
"778 884 OFFCURVE",
"552 884 CURVE SMOOTH",
"488 884 LINE",
"488 736 LINE",
"566 736 LINE SMOOTH",
"805 736 OFFCURVE",
"944 639 OFFCURVE",
"950 446 CURVE SMOOTH",
"950 430 LINE SMOOTH",
"950 245 OFFCURVE",
"844 125 OFFCURVE",
"646 125 CURVE SMOOTH",
"538 125 OFFCURVE",
"413 159 OFFCURVE",
"288 225 CURVE",
"235 85 LINE",
"350 16 OFFCURVE",
"515 -24 OFFCURVE",
"658 -24 CURVE SMOOTH"
);
}
);
width = 1316;
}
);
unicode = 0033;
},
{
glyphname = four;
lastChange = "2018-07-25 18:37:45 +0000";
layers = (
{
layerId = "850197A4-73EE-4DD1-A43D-17FCD4749099";
paths = (
{
closed = 1;
nodes = (
"930 0 LINE",
"930 370 LINE",
"1158 370 LINE",
"1158 509 LINE",
"929 509 LINE",
"929 868 LINE",
"787 868 LINE",
"787 509 LINE",
"350 509 LINE",
"764 1560 LINE",
"596 1560 LINE",
"161 499 LINE",
"161 370 LINE",
"787 370 LINE",
"787 0 LINE"
);
}
);
width = 1316;
}
);
unicode = 0034;
},
{
glyphname = five;
lastChange = "2018-07-25 18:37:45 +0000";
layers = (
{
layerId = "850197A4-73EE-4DD1-A43D-17FCD4749099";
paths = (
{
closed = 1;
nodes = (
"974 -24 OFFCURVE",
"1145 198 OFFCURVE",
"1145 470 CURVE SMOOTH",
"1145 740 OFFCURVE",
"971 944 OFFCURVE",
"721 944 CURVE SMOOTH",
"626 944 OFFCURVE",
"502 896 OFFCURVE",
"440 830 CURVE",
"461 1410 LINE",
"1039 1410 LINE",
"1039 1560 LINE",
"308 1560 LINE",
"293 714 LINE",
"450 672 LINE",
"491 734 OFFCURVE",
"589 796 OFFCURVE",
"713 796 CURVE SMOOTH",
"889 796 OFFCURVE",
"983 637 OFFCURVE",
"983 472 CURVE SMOOTH",
"983 271 OFFCURVE",
"866 123 OFFCURVE",
"664 123 CURVE SMOOTH",
"545 123 OFFCURVE",
"410 171 OFFCURVE",
"302 295 CURVE",
"211 179 LINE",
"330 46 OFFCURVE",
"505 -24 OFFCURVE",
"666 -24 CURVE SMOOTH"
);
}
);
width = 1316;
}
);
unicode = 0035;
},
{
glyphname = six;
lastChange = "2018-07-25 18:37:45 +0000";
layers = (
{
layerId = "850197A4-73EE-4DD1-A43D-17FCD4749099";
paths = (
{
closed = 1;
nodes = (
"955 -24 OFFCURVE",
"1151 175 OFFCURVE",
"1151 464 CURVE SMOOTH",
"1151 754 OFFCURVE",
"974 946 OFFCURVE",
"710 946 CURVE SMOOTH",
"604 946 OFFCURVE",
"433 903 OFFCURVE",
"368 781 CURVE",
"408 1082 OFFCURVE",
"574 1352 OFFCURVE",
"951 1452 CURVE",
"915 1587 LINE",
"353 1451 OFFCURVE",
"185 960 OFFCURVE",
"185 585 CURVE SMOOTH",
"185 249 OFFCURVE",
"313 -24 OFFCURVE",
"686 -24 CURVE SMOOTH"
);
},
{
closed = 1;
nodes = (
"465 126 OFFCURVE",
"355 263 OFFCURVE",
"355 492 CURVE SMOOTH",
"355 683 OFFCURVE",
"505 802 OFFCURVE",
"690 802 CURVE SMOOTH",
"895 802 OFFCURVE",
"984 652 OFFCURVE",
"984 459 CURVE SMOOTH",
"984 254 OFFCURVE",
"858 126 OFFCURVE",
"681 126 CURVE SMOOTH"
);
}
);
width = 1316;
}
);
unicode = 0036;
},
{
glyphname = seven;
lastChange = "2018-07-25 18:37:45 +0000";
layers = (
{
layerId = "850197A4-73EE-4DD1-A43D-17FCD4749099";
paths = (
{
closed = 1;
nodes = (
"593 0 LINE",
"1131 1469 LINE",
"1131 1560 LINE",
"209 1560 LINE",
"209 1415 LINE",
"931 1415 LINE",
"407 0 LINE"
);
}
);
width = 1316;
}
);
unicode = 0037;
},
{
glyphname = eight;
lastChange = "2018-07-25 18:37:45 +0000";
layers = (
{
layerId = "850197A4-73EE-4DD1-A43D-17FCD4749099";
paths = (
{
closed = 1;
nodes = (
"922 -24 OFFCURVE",
"1132 120 OFFCURVE",
"1132 396 CURVE SMOOTH",
"1132 609 OFFCURVE",
"994 770 OFFCURVE",
"821 823 CURVE",
"973 872 OFFCURVE",
"1097 1004 OFFCURVE",
"1097 1197 CURVE SMOOTH",
"1097 1421 OFFCURVE",
"916 1586 OFFCURVE",
"657 1586 CURVE SMOOTH",
"431 1586 OFFCURVE",
"219 1457 OFFCURVE",
"219 1197 CURVE SMOOTH",
"219 1004 OFFCURVE",
"334 872 OFFCURVE",
"486 823 CURVE",
"313 770 OFFCURVE",
"184 609 OFFCURVE",
"184 396 CURVE SMOOTH",
"184 152 OFFCURVE",
"381 -24 OFFCURVE",
"657 -24 CURVE SMOOTH"
);
},
{
closed = 1;
nodes = (
"484 114 OFFCURVE",
"361 224 OFFCURVE",
"361 403 CURVE SMOOTH",
"361 606 OFFCURVE",
"494 728 OFFCURVE",
"657 762 CURVE",
"808 730 OFFCURVE",
"955 620 OFFCURVE",
"955 403 CURVE SMOOTH",
"955 232 OFFCURVE",
"839 114 OFFCURVE",
"657 114 CURVE SMOOTH"
);
},
{
closed = 1;
nodes = (
"506 918 OFFCURVE",
"384 1010 OFFCURVE",
"384 1199 CURVE SMOOTH",
"384 1342 OFFCURVE",
"496 1454 OFFCURVE",
"657 1454 CURVE SMOOTH",
"807 1454 OFFCURVE",
"932 1355 OFFCURVE",
"932 1199 CURVE SMOOTH",
"932 1010 OFFCURVE",
"808 918 OFFCURVE",
"657 889 CURVE"
);
}
);
width = 1316;
}
);
unicode = 0038;
},
{
glyphname = nine;
lastChange = "2018-07-25 18:37:45 +0000";
layers = (
{
layerId = "850197A4-73EE-4DD1-A43D-17FCD4749099";
paths = (
{
closed = 1;
nodes = (
"998 0 LINE",
"998 1489 LINE",
"921 1547 OFFCURVE",
"800 1586 OFFCURVE",
"647 1586 CURVE SMOOTH",
"335 1586 OFFCURVE",
"177 1326 OFFCURVE",
"177 1089 CURVE SMOOTH",
"177 867 OFFCURVE",
"330 715 OFFCURVE",
"524 715 CURVE SMOOTH",
"629 715 OFFCURVE",
"735 774 OFFCURVE",
"824 874 CURVE",
"824 0 LINE"
);
},
{
closed = 1;
nodes = (
"427 864 OFFCURVE",
"351 957 OFFCURVE",
"351 1097 CURVE SMOOTH",
"351 1262 OFFCURVE",
"451 1443 OFFCURVE",
"666 1443 CURVE SMOOTH",
"749 1443 OFFCURVE",
"804 1421 OFFCURVE",
"818 1412 CURVE",
"818 1279 LINE SMOOTH",
"818 993 OFFCURVE",
"667 864 OFFCURVE",
"540 864 CURVE SMOOTH"
);
}
);
width = 1316;
}
);
unicode = 0039;
},
{
glyphname = nine.alt.2;
lastChange = "2018-07-25 18:37:45 +0000";
layers = (
{
layerId = "850197A4-73EE-4DD1-A43D-17FCD4749099";
paths = (
{
closed = 1;
nodes = (
"999 598 LINE",
"1090 729 OFFCURVE",
"1138 865 OFFCURVE",
"1138 991 CURVE SMOOTH",
"1138 1243 OFFCURVE",
"979 1481 OFFCURVE",
"635 1481 CURVE SMOOTH",
"356 1481 OFFCURVE",
"142 1282 OFFCURVE",
"142 995 CURVE SMOOTH",
"142 724 OFFCURVE",
"324 515 OFFCURVE",
"622 515 CURVE SMOOTH",
"728 515 OFFCURVE",
"800 569 OFFCURVE",
"808 575 CURVE",
"415 0 LINE",
"545 -76 LINE"
);
},
{
closed = 1;
nodes = (
"397 659 OFFCURVE",
"314 821 OFFCURVE",
"314 994 CURVE SMOOTH",
"314 1205 OFFCURVE",
"441 1331 OFFCURVE",
"646 1331 CURVE SMOOTH",
"872 1331 OFFCURVE",
"971 1202 OFFCURVE",
"971 992 CURVE SMOOTH",
"971 791 OFFCURVE",
"860 659 OFFCURVE",
"641 659 CURVE SMOOTH"
);
}
);
width = 1244;
}
);
},
{
glyphname = one.alt;
lastChange = "2018-07-25 18:37:45 +0000";
layers = (
{
layerId = "850197A4-73EE-4DD1-A43D-17FCD4749099";
paths = (
{
closed = 1;
nodes = (
"840 0 LINE",
"840 1456 LINE",
"675 1456 LINE",
"607 1405 OFFCURVE",
"485 1330 OFFCURVE",
"369 1277 CURVE",
"410 1146 LINE",
"516 1190 OFFCURVE",
"602 1238 OFFCURVE",
"668 1288 CURVE",
"668 0 LINE"
);
}
);
width = 1258;
}
);
},
{
glyphname = four.alt;
lastChange = "2018-07-25 18:37:45 +0000";
layers = (
{
layerId = "850197A4-73EE-4DD1-A43D-17FCD4749099";
paths = (
{
closed = 1;
nodes = (
"946 0 LINE",
"946 386 LINE",
"1163 386 LINE",
"1163 520 LINE",
"945 520 LINE",
"945 1456 LINE",
"698 1456 LINE",
"125 515 LINE",
"125 386 LINE",
"774 386 LINE",
"774 0 LINE"
);
},
{
closed = 1;
nodes = (
"470 776 OFFCURVE",
"622 1032 OFFCURVE",
"774 1287 CURVE",
"774 520 LINE",
"319 520 LINE"
);
}
);
width = 1240;
}
);
},
{
glyphname = nine.alt;
lastChange = "2018-07-25 18:37:45 +0000";
layers = (
{
layerId = "850197A4-73EE-4DD1-A43D-17FCD4749099";
paths = (
{
closed = 1;
nodes = (
"885 -24 OFFCURVE",
"1080 335 OFFCURVE",
"1080 786 CURVE SMOOTH",
"1080 1192 OFFCURVE",
"950 1480 OFFCURVE",
"581 1480 CURVE SMOOTH",
"311 1480 OFFCURVE",
"98 1317 OFFCURVE",
"98 1012 CURVE SMOOTH",
"98 754 OFFCURVE",
"264 561 OFFCURVE",
"547 561 CURVE SMOOTH",
"720 561 OFFCURVE",
"836 620 OFFCURVE",
"905 735 CURVE",
"905 711 LINE SMOOTH",
"905 409 OFFCURVE",
"801 118 OFFCURVE",
"520 118 CURVE SMOOTH",
"409 118 OFFCURVE",
"318 155 OFFCURVE",
"247 232 CURVE",
"193 104 LINE",
"280 21 OFFCURVE",
"371 -24 OFFCURVE",
"517 -24 CURVE SMOOTH"
);
},
{
closed = 1;
nodes = (
"381 701 OFFCURVE",
"274 820 OFFCURVE",
"274 1017 CURVE SMOOTH",
"274 1193 OFFCURVE",
"378 1340 OFFCURVE",
"573 1340 CURVE SMOOTH",
"759 1340 OFFCURVE",
"893 1211 OFFCURVE",
"893 999 CURVE SMOOTH",
"893 825 OFFCURVE",
"768 701 OFFCURVE",
"572 701 CURVE SMOOTH"
);
}
);
width = 1176;
}
);
},
{
glyphname = uni00B9;
lastChange = "2018-07-25 18:37:45 +0000";
layers = (
{
layerId = "850197A4-73EE-4DD1-A43D-17FCD4749099";
paths = (
{
closed = 1;
nodes = (
"560 604 LINE",
"560 720 LINE",
"438 720 LINE",
"438 1427 LINE",
"333 1412 LINE",
"281 1381 OFFCURVE",
"232 1354 OFFCURVE",
"165 1333 CURVE",
"164 1203 LINE",
"214 1222 OFFCURVE",
"272 1248 OFFCURVE",
"316 1271 CURVE",
"316 1168 LINE SMOOTH",
"316 1116 OFFCURVE",
"317 1067 OFFCURVE",
"317 1008 CURVE SMOOTH",
"317 723 LINE",
"195 723 LINE",
"195 604 LINE"
);
}
);
width = 721;
}
);
unicode = 00B9;
},
{
glyphname = uni00B2;
lastChange = "2018-07-25 18:37:45 +0000";
layers = (
{
layerId = "850197A4-73EE-4DD1-A43D-17FCD4749099";
paths = (
{
closed = 1;
nodes = (
"734 604 LINE",
"734 722 LINE",
"370 722 LINE",
"462 802 OFFCURVE",
"555 879 OFFCURVE",
"629 968 CURVE SMOOTH",
"683 1033 OFFCURVE",
"735 1108 OFFCURVE",
"735 1213 CURVE SMOOTH",
"735 1248 OFFCURVE",
"728 1279 OFFCURVE",
"715 1307 CURVE SMOOTH",
"676 1388 OFFCURVE",
"590 1440 OFFCURVE",
"472 1440 CURVE SMOOTH",
"334 1440 OFFCURVE",
"239 1370 OFFCURVE",
"196 1270 CURVE",
"281 1192 LINE",
"314 1262 OFFCURVE",
"371 1323 OFFCURVE",
"466 1323 CURVE SMOOTH",
"545 1323 OFFCURVE",
"606 1286 OFFCURVE",
"606 1211 CURVE SMOOTH",
"606 1183 OFFCURVE",
"596 1152 OFFCURVE",
"575 1118 CURVE SMOOTH",
"554 1084 OFFCURVE",
"526 1047 OFFCURVE",
"489 1006 CURVE SMOOTH",
"400 908 OFFCURVE",
"294 812 OFFCURVE",
"188 715 CURVE",
"188 604 LINE"
);
}
);
width = 927;
}
);
unicode = 00B2;
},
{
glyphname = uni00B3;
lastChange = "2018-07-25 18:37:45 +0000";
layers = (
{
layerId = "850197A4-73EE-4DD1-A43D-17FCD4749099";
paths = (
{
closed = 1;
nodes = (
"443 586 OFFCURVE",
"482 592 OFFCURVE",
"518 603 CURVE SMOOTH",
"616 634 OFFCURVE",
"702 708 OFFCURVE",
"702 834 CURVE SMOOTH",
"702 937 OFFCURVE",
"648 999 OFFCURVE",
"574 1032 CURVE",
"636 1065 OFFCURVE",
"681 1124 OFFCURVE",
"681 1213 CURVE SMOOTH",
"681 1250 OFFCURVE",
"673 1282 OFFCURVE",
"658 1310 CURVE SMOOTH",
"616 1388 OFFCURVE",
"528 1441 OFFCURVE",
"409 1441 CURVE SMOOTH",
"305 1441 OFFCURVE",
"212 1394 OFFCURVE",
"157 1340 CURVE",
"215 1244 LINE",
"264 1284 OFFCURVE",
"325 1322 OFFCURVE",
"407 1322 CURVE SMOOTH",
"488 1322 OFFCURVE",
"548 1291 OFFCURVE",
"548 1210 CURVE SMOOTH",
"548 1110 OFFCURVE",
"452 1089 OFFCURVE",
"351 1089 CURVE SMOOTH",
"302 1089 LINE",
"302 970 LINE",
"328 970 LINE SMOOTH",
"337 970 OFFCURVE",
"351 971 OFFCURVE",
"358 971 CURVE SMOOTH",
"471 971 OFFCURVE",
"573 948 OFFCURVE",
"573 837 CURVE SMOOTH",
"573 745 OFFCURVE",
"492 701 OFFCURVE",
"398 701 CURVE SMOOTH",
"333 701 OFFCURVE",
"273 727 OFFCURVE",
"217 779 CURVE",
"157 683 LINE",
"214 626 OFFCURVE",
"296 586 OFFCURVE",
"403 586 CURVE SMOOTH"
);
}
);
width = 862;
}
);
unicode = 00B3;
},
{
glyphname = uni2074;
lastChange = "2018-07-25 18:37:45 +0000";
layers = (
{
layerId = "850197A4-73EE-4DD1-A43D-17FCD4749099";
paths = (
{
closed = 1;
nodes = (
"486 615 LINE",
"486 803 LINE",
"607 803 LINE",
"597 910 LINE",
"488 910 LINE",
"488 1412 LINE",
"354 1412 LINE",
"-12 894 LINE",
"-12 803 LINE",
"366 803 LINE",
"366 615 LINE"
);
},
{
closed = 1;
nodes = (
"366 1244 LINE",
"366 910 LINE",
"127 910 LINE"
);
}
);
width = 907;
}
);
unicode = 2074;
},
{
glyphname = fraction;
lastChange = "2018-07-25 18:37:45 +0000";
layers = (
{
layerId = "850197A4-73EE-4DD1-A43D-17FCD4749099";
paths = (
{
closed = 1;
nodes = (
"151 0 LINE",
"982 1456 LINE",
"833 1456 LINE",
"0 0 LINE"
);
}
);
width = 982;
}
);
unicode = 2044;
},
{
glyphname = onehalf;
lastChange = "2018-07-25 18:37:45 +0000";
layers = (
{
layerId = "850197A4-73EE-4DD1-A43D-17FCD4749099";
paths = (
{
closed = 1;
nodes = (
"490 0 LINE",
"1321 1456 LINE",
"1172 1456 LINE",
"339 0 LINE"
);
},
{
closed = 1;
nodes = (
"350 426 LINE",
"350 1456 LINE",
"124 1456 LINE",
"124 1351 LINE",
"209 1351 LINE",
"209 426 LINE"
);
},
{
closed = 1;
nodes = (
"1795 0 LINE",
"1795 119 LINE",
"1404 119 LINE",
"1596 344 LINE SMOOTH",
"1718 486 OFFCURVE",
"1815 593 OFFCURVE",
"1815 738 CURVE SMOOTH",
"1815 927 OFFCURVE",
"1688 1052 OFFCURVE",
"1507 1052 CURVE SMOOTH",
"1316 1052 OFFCURVE",
"1217 950 OFFCURVE",
"1217 950 CURVE",
"1275 833 LINE SMOOTH",
"1275 832 OFFCURVE",
"1364 926 OFFCURVE",
"1503 926 CURVE SMOOTH",
"1612 926 OFFCURVE",
"1664 855 OFFCURVE",
"1664 738 CURVE SMOOTH",
"1664 645 OFFCURVE",
"1616 571 OFFCURVE",
"1514 451 CURVE SMOOTH",
"1236 126 LINE",
"1236 0 LINE"
);
}
);
width = 1949;
}
);
unicode = 00BD;
},
{
glyphname = onequarter;
lastChange = "2018-07-25 18:37:45 +0000";
layers = (
{
layerId = "850197A4-73EE-4DD1-A43D-17FCD4749099";
paths = (
{
closed = 1;
nodes = (
"437 0 LINE",
"1268 1456 LINE",
"1119 1456 LINE",
"286 0 LINE"
);
},
{
closed = 1;
nodes = (
"310 426 LINE",
"310 1456 LINE",
"84 1456 LINE",
"84 1351 LINE",
"169 1351 LINE",
"169 426 LINE"
);
},
{
closed = 1;
nodes = (
"1538 0 LINE",
"1538 264 LINE",
"1726 264 LINE",
"1726 363 LINE",
"1537 363 LINE",
"1537 617 LINE",
"1406 617 LINE",
"1406 363 LINE",
"1128 363 LINE",
"1465 1026 LINE",
"1328 1026 LINE",
"967 355 LINE",
"967 264 LINE",
"1406 264 LINE",
"1406 0 LINE"
);
}
);
width = 1812;
}
);
unicode = 00BC;
},
{
glyphname = threequarters;
lastChange = "2018-07-25 18:37:45 +0000";
layers = (
{
layerId = "850197A4-73EE-4DD1-A43D-17FCD4749099";
paths = (
{
closed = 1;
nodes = (
"694 0 LINE",
"1525 1456 LINE",
"1376 1456 LINE",
"543 0 LINE"
);
},
{
closed = 1;
nodes = (
"510 411 OFFCURVE",
"670 516 OFFCURVE",
"670 711 CURVE SMOOTH",
"670 847 OFFCURVE",
"607 945 OFFCURVE",
"493 972 CURVE",
"593 1003 OFFCURVE",
"648 1096 OFFCURVE",
"648 1212 CURVE SMOOTH",
"648 1394 OFFCURVE",
"500 1482 OFFCURVE",
"361 1482 CURVE SMOOTH",
"243 1482 OFFCURVE",
"140 1440 OFFCURVE",
"82 1370 CURVE",
"136 1277 LINE",
"176 1320 OFFCURVE",
"249 1364 OFFCURVE",
"348 1364 CURVE SMOOTH",
"442 1364 OFFCURVE",
"519 1299 OFFCURVE",
"519 1199 CURVE SMOOTH",
"519 1090 OFFCURVE",
"444 1028 OFFCURVE",
"311 1028 CURVE SMOOTH",
"263 1028 LINE",
"263 914 LINE",
"322 914 LINE SMOOTH",
"463 914 OFFCURVE",
"540 856 OFFCURVE",
"540 718 CURVE SMOOTH",
"540 599 OFFCURVE",
"451 529 OFFCURVE",
"340 529 CURVE SMOOTH",
"247 529 OFFCURVE",
"174 579 OFFCURVE",
"148 596 CURVE",
"110 483 LINE",
"118 478 OFFCURVE",
"213 411 OFFCURVE",
"347 411 CURVE SMOOTH"
);
},
{
closed = 1;
nodes = (
"1786 0 LINE",
"1786 264 LINE",
"1974 264 LINE",
"1974 363 LINE",
"1785 363 LINE",
"1785 617 LINE",
"1654 617 LINE",
"1654 363 LINE",
"1376 363 LINE",
"1713 1026 LINE",
"1576 1026 LINE",
"1215 355 LINE",
"1215 264 LINE",
"1654 264 LINE",
"1654 0 LINE"
);
}
);
width = 2060;
}
);
unicode = 00BE;
},
{
glyphname = period;
lastChange = "2018-07-25 18:37:45 +0000";
layers = (
{
layerId = "850197A4-73EE-4DD1-A43D-17FCD4749099";
paths = (
{
closed = 1;
nodes = (
"356 -16 OFFCURVE",
"410 23 OFFCURVE",
"410 89 CURVE SMOOTH",
"410 146 OFFCURVE",
"372 195 OFFCURVE",
"303 195 CURVE SMOOTH",
"249 195 OFFCURVE",
"195 156 OFFCURVE",
"195 90 CURVE SMOOTH",
"195 33 OFFCURVE",
"233 -16 OFFCURVE",
"302 -16 CURVE SMOOTH"
);
}
);
width = 603;
}
);
unicode = 002E;
},
{
glyphname = comma;
lastChange = "2018-07-25 18:37:45 +0000";
layers = (
{
layerId = "850197A4-73EE-4DD1-A43D-17FCD4749099";
paths = (
{
closed = 1;
nodes = (
"274 -310 LINE",
"437 207 LINE",
"250 207 LINE",
"143 -310 LINE"
);
}
);
width = 575;
}
);
unicode = 002C;
},
{
glyphname = colon;
lastChange = "2018-07-25 18:37:45 +0000";
layers = (
{
layerId = "850197A4-73EE-4DD1-A43D-17FCD4749099";
paths = (
{
closed = 1;
nodes = (
"414 832 OFFCURVE",
"458 893 OFFCURVE",
"458 955 CURVE SMOOTH",
"458 1017 OFFCURVE",
"414 1078 OFFCURVE",
"326 1078 CURVE SMOOTH",
"238 1078 OFFCURVE",
"194 1017 OFFCURVE",
"194 955 CURVE SMOOTH",
"194 893 OFFCURVE",
"238 832 OFFCURVE",
"326 832 CURVE SMOOTH"
);
},
{
closed = 1;
nodes = (
"414 48 OFFCURVE",
"458 109 OFFCURVE",
"458 171 CURVE SMOOTH",
"458 233 OFFCURVE",
"414 294 OFFCURVE",
"326 294 CURVE SMOOTH",
"238 294 OFFCURVE",
"194 233 OFFCURVE",
"194 171 CURVE SMOOTH",
"194 109 OFFCURVE",
"238 48 OFFCURVE",
"326 48 CURVE SMOOTH"
);
}
);
width = 651;
}
);
unicode = 003A;
},
{
glyphname = semicolon;
lastChange = "2018-07-25 18:37:45 +0000";
layers = (
{
layerId = "850197A4-73EE-4DD1-A43D-17FCD4749099";
paths = (
{
closed = 1;
nodes = (
"277 -256 LINE",
"440 207 LINE",
"252 207 LINE",
"146 -256 LINE"
);
},
{
closed = 1;
nodes = (
"423 832 OFFCURVE",
"467 893 OFFCURVE",
"467 955 CURVE SMOOTH",
"467 1017 OFFCURVE",
"423 1078 OFFCURVE",
"335 1078 CURVE SMOOTH",
"247 1078 OFFCURVE",
"203 1017 OFFCURVE",
"203 955 CURVE SMOOTH",
"203 893 OFFCURVE",
"247 832 OFFCURVE",
"335 832 CURVE SMOOTH"
);
}
);
width = 617;
}
);
unicode = 003B;
},
{
glyphname = ellipsis;
lastChange = "2018-07-25 18:37:45 +0000";
layers = (
{
layerId = "850197A4-73EE-4DD1-A43D-17FCD4749099";
paths = (
{
closed = 1;
nodes = (
"1440 0 LINE",
"1440 210 LINE",
"1223 210 LINE",
"1223 0 LINE"
);
},
{
closed = 1;
nodes = (
"386 0 LINE",
"386 210 LINE",
"169 210 LINE",
"169 0 LINE"
);
},
{
closed = 1;
nodes = (
"913 0 LINE",
"913 210 LINE",
"696 210 LINE",
"696 0 LINE"
);
}
);
width = 1604;
}
);
unicode = 2026;
},
{
glyphname = exclam;
lastChange = "2018-07-25 18:37:45 +0000";
layers = (
{
layerId = "850197A4-73EE-4DD1-A43D-17FCD4749099";
paths = (
{
closed = 1;
nodes = (
"324 433 LINE",
"384 1560 LINE",
"197 1560 LINE",
"258 433 LINE"
);
},
{
closed = 1;
nodes = (
"352 -6 OFFCURVE",
"409 35 OFFCURVE",
"409 105 CURVE SMOOTH",
"409 165 OFFCURVE",
"369 217 OFFCURVE",
"296 217 CURVE SMOOTH",
"239 217 OFFCURVE",
"182 176 OFFCURVE",
"182 106 CURVE SMOOTH",
"182 46 OFFCURVE",
"222 -6 OFFCURVE",
"295 -6 CURVE SMOOTH"
);
}
);
width = 587;
}
);
unicode = 0021;
},
{
glyphname = question;
lastChange = "2018-07-25 18:37:45 +0000";
layers = (
{
layerId = "850197A4-73EE-4DD1-A43D-17FCD4749099";
paths = (
{
closed = 1;
nodes = (
"438 401 LINE",
"438 711 OFFCURVE",
"849 863 OFFCURVE",
"849 1236 CURVE SMOOTH",
"849 1441 OFFCURVE",
"706 1586 OFFCURVE",
"429 1586 CURVE SMOOTH",
"323 1586 OFFCURVE",
"220 1555 OFFCURVE",
"140 1516 CURVE",
"140 1365 LINE",
"210 1404 OFFCURVE",
"324 1436 OFFCURVE",
"424 1436 CURVE SMOOTH",
"562 1436 OFFCURVE",
"680 1379 OFFCURVE",
"680 1228 CURVE SMOOTH",
"680 892 OFFCURVE",
"313 763 OFFCURVE",
"313 401 CURVE"
);
},
{
closed = 1;
nodes = (
"436 0 OFFCURVE",
"488 39 OFFCURVE",
"488 105 CURVE SMOOTH",
"488 162 OFFCURVE",
"451 211 OFFCURVE",
"383 211 CURVE SMOOTH",
"329 211 OFFCURVE",
"275 172 OFFCURVE",
"275 106 CURVE SMOOTH",
"275 49 OFFCURVE",
"313 0 OFFCURVE",
"382 0 CURVE SMOOTH"
);
}
);
width = 990;
}
);
unicode = 003F;
},
{
glyphname = periodcentered;
lastChange = "2018-07-25 18:37:45 +0000";
layers = (
{
layerId = "850197A4-73EE-4DD1-A43D-17FCD4749099";
paths = (
{
closed = 1;
nodes = (
"402 842 OFFCURVE",
"450 915 OFFCURVE",
"450 988 CURVE SMOOTH",
"450 1061 OFFCURVE",
"402 1134 OFFCURVE",
"308 1134 CURVE SMOOTH",
"214 1134 OFFCURVE",
"167 1062 OFFCURVE",
"167 989 CURVE SMOOTH",
"167 916 OFFCURVE",
"214 842 OFFCURVE",
"308 842 CURVE SMOOTH"
);
}
);
width = 617;
}
);
unicode = 00B7;
},
{
glyphname = bullet;
lastChange = "2018-07-25 18:37:45 +0000";
layers = (
{
layerId = "850197A4-73EE-4DD1-A43D-17FCD4749099";
paths = (
{
closed = 1;
nodes = (
"703 427 OFFCURVE",
"839 546 OFFCURVE",
"839 743 CURVE SMOOTH",
"839 901 OFFCURVE",
"719 1052 OFFCURVE",
"517 1052 CURVE SMOOTH",
"360 1052 OFFCURVE",
"190 940 OFFCURVE",
"190 736 CURVE SMOOTH",
"190 574 OFFCURVE",
"311 427 OFFCURVE",
"512 427 CURVE SMOOTH"
);
}
);
width = 1029;
}
);
unicode = 2022;
},
{
glyphname = asterisk;
lastChange = "2018-07-25 18:37:45 +0000";
layers = (
{
layerId = "850197A4-73EE-4DD1-A43D-17FCD4749099";
paths = (
{
closed = 1;
nodes = (
"550 1008 LINE",
"708 742 LINE",
"834 815 LINE",
"630 1066 LINE",
"892 1154 LINE",
"828 1279 LINE",
"596 1158 LINE",
"617 1456 LINE",
"463 1456 LINE",
"499 1153 LINE",
"217 1276 LINE",
"176 1151 LINE",
"468 1063 LINE",
"271 815 LINE",
"395 740 LINE"
);
}
);
width = 1068;
}
);
unicode = 002A;
},
{
glyphname = numbersign;
lastChange = "2018-07-25 18:37:45 +0000";
layers = (
{
layerId = "850197A4-73EE-4DD1-A43D-17FCD4749099";
paths = (
{
closed = 1;
nodes = (
"438 0 LINE",
"517 465 LINE",
"788 465 LINE",
"711 0 LINE",
"840 0 LINE",
"920 465 LINE",
"1176 465 LINE",
"1187 583 LINE",
"938 583 LINE",
"990 899 LINE",
"1239 899 LINE",
"1253 1026 LINE",
"1012 1026 LINE",
"1090 1455 LINE",
"957 1455 LINE",
"884 1026 LINE",
"613 1026 LINE",
"687 1455 LINE",
"557 1455 LINE",
"481 1026 LINE",
"215 1026 LINE",
"202 899 LINE",
"460 899 LINE",
"409 583 LINE",
"145 583 LINE",
"137 465 LINE",
"389 465 LINE",
"305 0 LINE"
);
},
{
closed = 1;
nodes = (
"590 899 LINE",
"861 899 LINE",
"809 583 LINE",
"535 583 LINE"
);
}
);
width = 1388;
}
);
unicode = 0023;
},
{
glyphname = slash;
lastChange = "2018-07-25 18:37:45 +0000";
layers = (
{
layerId = "850197A4-73EE-4DD1-A43D-17FCD4749099";
paths = (
{
closed = 1;
nodes = (
"243 0 LINE",
"872 1560 LINE",
"705 1560 LINE",
"80 0 LINE"
);
}
);
width = 952;
}
);
unicode = 002F;
},
{
glyphname = backslash;
lastChange = "2018-07-25 18:37:45 +0000";
layers = (
{
layerId = "850197A4-73EE-4DD1-A43D-17FCD4749099";
paths = (
{
closed = 1;
nodes = (
"875 0 LINE",
"250 1456 LINE",
"83 1456 LINE",
"712 0 LINE"
);
}
);
width = 954;
}
);
unicode = 005C;
},
{
glyphname = parenleft;
lastChange = "2018-07-25 18:37:45 +0000";
layers = (
{
layerId = "850197A4-73EE-4DD1-A43D-17FCD4749099";
paths = (
{
closed = 1;
nodes = (
"560 -205 LINE",
"391 64 OFFCURVE",
"303 369 OFFCURVE",
"303 676 CURVE SMOOTH",
"303 978 OFFCURVE",
"388 1283 OFFCURVE",
"564 1560 CURVE",
"417 1560 LINE",
"228 1264 OFFCURVE",
"136 966 OFFCURVE",
"136 671 CURVE SMOOTH",
"136 374 OFFCURVE",
"230 81 OFFCURVE",
"411 -205 CURVE"
);
}
);
width = 640;
}
);
unicode = 0028;
},
{
glyphname = parenright;
lastChange = "2018-07-25 18:37:45 +0000";
layers = (
{
layerId = "850197A4-73EE-4DD1-A43D-17FCD4749099";
paths = (
{
closed = 1;
nodes = (
"229 -205 LINE",
"410 81 OFFCURVE",
"504 374 OFFCURVE",
"504 671 CURVE SMOOTH",
"504 966 OFFCURVE",
"412 1264 OFFCURVE",
"223 1560 CURVE",
"76 1560 LINE",
"252 1283 OFFCURVE",
"337 978 OFFCURVE",
"337 676 CURVE SMOOTH",
"337 369 OFFCURVE",
"249 64 OFFCURVE",
"80 -205 CURVE"
);
}
);
width = 640;
}
);
unicode = 0029;
},
{
glyphname = braceleft;
lastChange = "2018-07-25 18:37:45 +0000";
layers = (
{
layerId = "850197A4-73EE-4DD1-A43D-17FCD4749099";
paths = (
{
closed = 1;
nodes = (
"657 -82 LINE",
"546 -82 OFFCURVE",
"442 -42 OFFCURVE",
"442 128 CURVE SMOOTH",
"442 360 LINE SMOOTH",
"442 467 OFFCURVE",
"380 582 OFFCURVE",
"263 625 CURVE",
"368 657 OFFCURVE",
"442 736 OFFCURVE",
"442 875 CURVE SMOOTH",
"442 1148 LINE SMOOTH",
"442 1281 OFFCURVE",
"545 1335 OFFCURVE",
"658 1337 CURVE",
"658 1480 LINE",
"396 1480 OFFCURVE",
"275 1350 OFFCURVE",
"275 1156 CURVE SMOOTH",
"275 912 LINE",
"274 783 OFFCURVE",
"198 703 OFFCURVE",
"83 695 CURVE",
"83 560 LINE",
"223 548 OFFCURVE",
"275 449 OFFCURVE",
"275 319 CURVE SMOOTH",
"275 69 LINE SMOOTH",
"275 -128 OFFCURVE",
"433 -219 OFFCURVE",
"657 -225 CURVE"
);
}
);
width = 747;
}
);
unicode = 007B;
},
{
glyphname = braceright;
lastChange = "2018-07-25 18:37:45 +0000";
layers = (
{
layerId = "850197A4-73EE-4DD1-A43D-17FCD4749099";
paths = (
{
closed = 1;
nodes = (
"352 -225 OFFCURVE",
"473 -95 OFFCURVE",
"473 99 CURVE SMOOTH",
"473 343 LINE",
"474 472 OFFCURVE",
"550 552 OFFCURVE",
"665 560 CURVE",
"665 695 LINE",
"525 707 OFFCURVE",
"473 806 OFFCURVE",
"473 936 CURVE SMOOTH",
"473 1186 LINE SMOOTH",
"473 1383 OFFCURVE",
"315 1474 OFFCURVE",
"91 1480 CURVE",
"91 1337 LINE",
"202 1337 OFFCURVE",
"306 1297 OFFCURVE",
"306 1127 CURVE SMOOTH",
"306 895 LINE SMOOTH",
"306 788 OFFCURVE",
"368 673 OFFCURVE",
"485 630 CURVE",
"380 598 OFFCURVE",
"306 519 OFFCURVE",
"306 380 CURVE SMOOTH",
"306 107 LINE SMOOTH",
"306 -26 OFFCURVE",
"203 -80 OFFCURVE",
"90 -82 CURVE",
"90 -225 LINE"
);
}
);
width = 747;
}
);
unicode = 007D;
},
{
glyphname = bracketleft;
lastChange = "2018-07-25 18:37:45 +0000";
layers = (
{
layerId = "850197A4-73EE-4DD1-A43D-17FCD4749099";
paths = (
{
closed = 1;
nodes = (
"551 -200 LINE",
"551 -78 LINE",
"357 -78 LINE",
"357 1388 LINE",
"550 1388 LINE",
"550 1510 LINE",
"194 1510 LINE",
"194 -200 LINE"
);
}
);
width = 731;
}
);
unicode = 005B;
},
{
glyphname = bracketright;
lastChange = "2018-07-25 18:37:45 +0000";
layers = (
{
layerId = "850197A4-73EE-4DD1-A43D-17FCD4749099";
paths = (
{
closed = 1;
nodes = (
"538 -200 LINE",
"538 1510 LINE",
"181 1510 LINE",
"181 1388 LINE",
"375 1388 LINE",
"375 -78 LINE",
"182 -78 LINE",
"182 -200 LINE"
);
}
);
width = 731;
}
);
unicode = 005D;
},
{
glyphname = hyphen;
lastChange = "2018-07-25 18:37:45 +0000";
layers = (
{
layerId = "850197A4-73EE-4DD1-A43D-17FCD4749099";
paths = (
{
closed = 1;
nodes = (
"999 637 LINE",
"999 780 LINE",
"200 780 LINE",
"200 637 LINE"
);
}
);
width = 1199;
}
);
unicode = 002D;
},
{
glyphname = endash;
lastChange = "2018-07-25 18:37:45 +0000";
layers = (
{
layerId = "850197A4-73EE-4DD1-A43D-17FCD4749099";
paths = (
{
closed = 1;
nodes = (
"1266 489 LINE",
"1266 626 LINE",
"200 626 LINE",
"200 489 LINE"
);
}
);
width = 1466;
}
);
unicode = 2013;
},
{
glyphname = emdash;
lastChange = "2018-07-25 18:37:45 +0000";
layers = (
{
layerId = "850197A4-73EE-4DD1-A43D-17FCD4749099";
paths = (
{
closed = 1;
nodes = (
"2296 489 LINE",
"2296 626 LINE",
"200 626 LINE",
"200 489 LINE"
);
}
);
width = 2496;
}
);
unicode = 2014;
},
{
glyphname = underscore;
lastChange = "2018-07-25 18:37:45 +0000";
layers = (
{
layerId = "850197A4-73EE-4DD1-A43D-17FCD4749099";
paths = (
{
closed = 1;
nodes = (
"1183 -152 LINE",
"1183 -24 LINE",
"200 -24 LINE",
"200 -152 LINE"
);
}
);
width = 1383;
}
);
unicode = 005F;
},
{
glyphname = quotesinglbase;
lastChange = "2018-07-25 18:37:45 +0000";
layers = (
{
layerId = "850197A4-73EE-4DD1-A43D-17FCD4749099";
paths = (
{
closed = 1;
nodes = (
"276 -238 LINE",
"430 201 LINE",
"249 201 LINE",
"143 -238 LINE"
);
}
);
width = 572;
}
);
unicode = 201A;
},
{
glyphname = quotedblbase;
lastChange = "2018-07-25 18:37:45 +0000";
layers = (
{
layerId = "850197A4-73EE-4DD1-A43D-17FCD4749099";
paths = (
{
closed = 1;
nodes = (
"636 -238 LINE",
"790 201 LINE",
"607 201 LINE",
"503 -238 LINE"
);
},
{
closed = 1;
nodes = (
"278 -238 LINE",
"431 201 LINE",
"249 201 LINE",
"144 -238 LINE"
);
}
);
width = 933;
}
);
unicode = 201E;
},
{
glyphname = quotedblleft;
lastChange = "2018-07-25 18:37:45 +0000";
layers = (
{
layerId = "850197A4-73EE-4DD1-A43D-17FCD4749099";
paths = (
{
closed = 1;
nodes = (
"676 1016 LINE",
"780 1560 LINE",
"647 1560 LINE",
"493 1016 LINE"
);
},
{
closed = 1;
nodes = (
"326 1016 LINE",
"431 1560 LINE",
"298 1560 LINE",
"144 1016 LINE"
);
}
);
width = 923;
}
);
unicode = 201C;
},
{
glyphname = quotedblright;
lastChange = "2018-07-25 18:37:45 +0000";
layers = (
{
layerId = "850197A4-73EE-4DD1-A43D-17FCD4749099";
paths = (
{
closed = 1;
nodes = (
"605 1016 LINE",
"759 1560 LINE",
"577 1560 LINE",
"472 1016 LINE"
);
},
{
closed = 1;
nodes = (
"279 1016 LINE",
"432 1560 LINE",
"250 1560 LINE",
"146 1016 LINE"
);
}
);
width = 899;
}
);
unicode = 201D;
},
{
glyphname = quoteleft;
lastChange = "2018-07-25 18:37:45 +0000";
layers = (
{
layerId = "850197A4-73EE-4DD1-A43D-17FCD4749099";
paths = (
{
closed = 1;
nodes = (
"326 1016 LINE",
"430 1456 LINE",
"298 1456 LINE",
"144 1016 LINE"
);
}
);
width = 573;
}
);
unicode = 2018;
},
{
glyphname = quoteright;
lastChange = "2018-07-25 18:37:45 +0000";
layers = (
{
layerId = "850197A4-73EE-4DD1-A43D-17FCD4749099";
paths = (
{
closed = 1;
nodes = (
"277 1016 LINE",
"431 1456 LINE",
"250 1456 LINE",
"145 1016 LINE"
);
}
);
width = 571;
}
);
unicode = 2019;
},
{
glyphname = guillemotleft;
lastChange = "2018-07-25 18:37:45 +0000";
layers = (
{
layerId = "850197A4-73EE-4DD1-A43D-17FCD4749099";
paths = (
{
closed = 1;
nodes = (
"506 173 LINE",
"257 543 LINE",
"514 916 LINE",
"361 916 LINE",
"87 543 LINE",
"355 173 LINE"
);
},
{
closed = 1;
nodes = (
"871 173 LINE",
"615 543 LINE",
"878 916 LINE",
"719 916 LINE",
"452 543 LINE",
"714 173 LINE"
);
}
);
width = 965;
}
);
unicode = 00AB;
},
{
glyphname = guillemotright;
lastChange = "2018-07-25 18:37:45 +0000";
layers = (
{
layerId = "850197A4-73EE-4DD1-A43D-17FCD4749099";
paths = (
{
closed = 1;
nodes = (
"248 173 LINE",
"515 544 LINE",
"253 916 LINE",
"95 916 LINE",
"352 544 LINE",
"88 173 LINE"
);
},
{
closed = 1;
nodes = (
"631 173 LINE",
"905 544 LINE",
"636 916 LINE",
"487 916 LINE",
"733 544 LINE",
"480 173 LINE"
);
}
);
width = 990;
}
);
unicode = 00BB;
},
{
glyphname = guilsinglleft;
lastChange = "2018-07-25 18:37:45 +0000";
layers = (
{
layerId = "850197A4-73EE-4DD1-A43D-17FCD4749099";
paths = (
{
closed = 1;
nodes = (
"540 171 LINE",
"285 541 LINE",
"548 914 LINE",
"389 914 LINE",
"115 541 LINE",
"384 171 LINE"
);
}
);
width = 652;
}
);
unicode = 2039;
},
{
glyphname = guilsinglright;
lastChange = "2018-07-25 18:37:45 +0000";
layers = (
{
layerId = "850197A4-73EE-4DD1-A43D-17FCD4749099";
paths = (
{
closed = 1;
nodes = (
"300 171 LINE",
"577 542 LINE",
"306 914 LINE",
"151 914 LINE",
"405 542 LINE",
"143 171 LINE"
);
}
);
width = 652;
}
);
unicode = 203A;
},
{
glyphname = quotedbl;
lastChange = "2018-07-25 18:37:45 +0000";
layers = (
{
layerId = "850197A4-73EE-4DD1-A43D-17FCD4749099";
paths = (
{
closed = 1;
nodes = (
"598 931 LINE",
"656 1456 LINE",
"489 1456 LINE",
"490 931 LINE"
);
},
{
closed = 1;
nodes = (
"300 931 LINE",
"356 1456 LINE",
"190 1456 LINE",
"191 931 LINE"
);
}
);
width = 847;
}
);
unicode = 0022;
},
{
glyphname = quotesingle;
lastChange = "2018-07-25 18:37:45 +0000";
layers = (
{
layerId = "850197A4-73EE-4DD1-A43D-17FCD4749099";
paths = (
{
closed = 1;
nodes = (
"306 994 LINE",
"356 1456 LINE",
"190 1456 LINE",
"192 994 LINE"
);
}
);
width = 548;
}
);
unicode = 0027;
},
{
glyphname = Euro;
lastChange = "2018-07-25 18:37:45 +0000";
layers = (
{
components = (
{
name = C;
transform = "{1, 0, 0, 1, 25, 0}";
}
);
layerId = "850197A4-73EE-4DD1-A43D-17FCD4749099";
paths = (
{
closed = 1;
nodes = (
"850 516 LINE",
"869 644 LINE",
"313 644 LINE",
"313 794 LINE",
"883 794 LINE",
"903 922 LINE",
"32 922 LINE",
"10 794 LINE",
"222 794 LINE",
"222 644 LINE",
"33 644 LINE",
"13 516 LINE"
);
}
);
width = 1394;
}
);
unicode = 20AC;
},
{
glyphname = cent;
lastChange = "2018-07-25 18:37:45 +0000";
layers = (
{
layerId = "850197A4-73EE-4DD1-A43D-17FCD4749099";
paths = (
{
closed = 1;
nodes = (
"661 -235 LINE",
"661 -20 LINE",
"756 -10 OFFCURVE",
"862 23 OFFCURVE",
"968 87 CURVE",
"932 225 LINE",
"836 159 OFFCURVE",
"743 129 OFFCURVE",
"661 120 CURVE",
"661 907 LINE",
"753 898 OFFCURVE",
"826 862 OFFCURVE",
"875 801 CURVE",
"952 912 LINE",
"892 991 OFFCURVE",
"790 1039 OFFCURVE",
"661 1049 CURVE",
"661 1281 LINE",
"553 1281 LINE",
"553 1049 LINE",
"277 1024 OFFCURVE",
"105 805 OFFCURVE",
"105 503 CURVE SMOOTH",
"105 213 OFFCURVE",
"298 6 OFFCURVE",
"553 -20 CURVE",
"553 -235 LINE"
);
},
{
closed = 1;
nodes = (
"390 148 OFFCURVE",
"278 285 OFFCURVE",
"278 508 CURVE SMOOTH",
"278 714 OFFCURVE",
"373 874 OFFCURVE",
"553 904 CURVE",
"553 122 LINE"
);
}
);
width = 1059;
}
);
unicode = 00A2;
},
{
glyphname = currency;
lastChange = "2018-07-25 18:37:45 +0000";
layers = (
{
layerId = "850197A4-73EE-4DD1-A43D-17FCD4749099";
paths = (
{
closed = 1;
nodes = (
"374 363 LINE",
"439 308 OFFCURVE",
"522 274 OFFCURVE",
"611 274 CURVE SMOOTH",
"707 274 OFFCURVE",
"795 310 OFFCURVE",
"861 371 CURVE",
"1027 210 LINE",
"1064 246 LINE",
"896 408 LINE",
"954 475 OFFCURVE",
"990 560 OFFCURVE",
"990 659 CURVE SMOOTH",
"990 758 OFFCURVE",
"953 848 OFFCURVE",
"891 917 CURVE",
"1049 1081 LINE",
"1009 1120 LINE",
"853 956 LINE",
"789 1013 OFFCURVE",
"706 1048 OFFCURVE",
"613 1048 CURVE SMOOTH",
"519 1048 OFFCURVE",
"429 1009 OFFCURVE",
"362 947 CURVE",
"202 1104 LINE",
"163 1065 LINE",
"326 908 LINE",
"268 840 OFFCURVE",
"232 754 OFFCURVE",
"232 661 CURVE SMOOTH",
"232 559 OFFCURVE",
"273 467 OFFCURVE",
"337 398 CURVE",
"178 232 LINE",
"214 195 LINE"
);
},
{
closed = 1;
nodes = (
"447 351 OFFCURVE",
"320 489 OFFCURVE",
"320 658 CURVE SMOOTH",
"320 825 OFFCURVE",
"451 965 OFFCURVE",
"610 965 CURVE SMOOTH",
"773 965 OFFCURVE",
"898 826 OFFCURVE",
"898 659 CURVE SMOOTH",
"898 485 OFFCURVE",
"773 351 OFFCURVE",
"609 351 CURVE SMOOTH"
);
}
);
width = 1227;
}
);
unicode = 00A4;
},
{
glyphname = dollar;
lastChange = "2018-07-25 18:37:45 +0000";
layers = (
{
components = (
{
name = S;
}
);
layerId = "850197A4-73EE-4DD1-A43D-17FCD4749099";
paths = (
{
closed = 1;
nodes = (
"611 -196 LINE",
"611 1747 LINE",
"547 1747 LINE",
"547 -196 LINE"
);
}
);
width = 1102;
}
);
unicode = 0024;
},
{
glyphname = florin;
lastChange = "2018-07-25 18:37:45 +0000";
layers = (
{
layerId = "850197A4-73EE-4DD1-A43D-17FCD4749099";
paths = (
{
closed = 1;
nodes = (
"424 -242 OFFCURVE",
"481 -18 OFFCURVE",
"522 210 CURVE SMOOTH",
"645 906 LINE",
"844 906 LINE",
"862 1026 LINE",
"665 1026 LINE",
"700 1229 LINE SMOOTH",
"717 1326 OFFCURVE",
"756 1384 OFFCURVE",
"871 1384 CURVE SMOOTH",
"911 1384 OFFCURVE",
"947 1375 OFFCURVE",
"980 1362 CURVE",
"988 1507 LINE",
"944 1518 OFFCURVE",
"895 1526 OFFCURVE",
"845 1526 CURVE SMOOTH",
"628 1526 OFFCURVE",
"570 1393 OFFCURVE",
"534 1201 CURVE SMOOTH",
"501 1026 LINE",
"339 1026 LINE",
"321 906 LINE",
"480 906 LINE",
"332 97 LINE SMOOTH",
"315 5 OFFCURVE",
"274 -104 OFFCURVE",
"162 -104 CURVE SMOOTH",
"137 -104 OFFCURVE",
"111 -99 OFFCURVE",
"84 -88 CURVE",
"72 -226 LINE",
"110 -237 OFFCURVE",
"145 -242 OFFCURVE",
"176 -242 CURVE SMOOTH"
);
}
);
width = 1088;
}
);
unicode = 0192;
},
{
glyphname = sterling;
lastChange = "2018-07-25 18:37:45 +0000";
layers = (
{
layerId = "850197A4-73EE-4DD1-A43D-17FCD4749099";
paths = (
{
closed = 1;
nodes = (
"1137 0 LINE",
"1137 141 LINE",
"387 141 LINE",
"481 217 OFFCURVE",
"524 352 OFFCURVE",
"524 551 CURVE SMOOTH",
"524 711 LINE",
"863 711 LINE",
"863 843 LINE",
"522 843 LINE",
"522 1085 LINE SMOOTH",
"522 1294 OFFCURVE",
"579 1436 OFFCURVE",
"779 1436 CURVE SMOOTH",
"886 1436 OFFCURVE",
"972 1407 OFFCURVE",
"1042 1364 CURVE",
"1094 1495 LINE",
"1017 1556 OFFCURVE",
"908 1586 OFFCURVE",
"769 1586 CURVE SMOOTH",
"473 1586 OFFCURVE",
"350 1379 OFFCURVE",
"350 1029 CURVE SMOOTH",
"350 843 LINE",
"168 843 LINE",
"168 711 LINE",
"351 711 LINE",
"351 500 LINE SMOOTH",
"351 332 OFFCURVE",
"298 199 OFFCURVE",
"194 138 CURVE",
"194 0 LINE"
);
}
);
width = 1273;
}
);
unicode = 00A3;
},
{
glyphname = yen;
lastChange = "2018-07-25 18:37:45 +0000";
layers = (
{
components = (
{
name = Y;
transform = "{1, 0, 0, 1, 148, 0}";
}
);
layerId = "850197A4-73EE-4DD1-A43D-17FCD4749099";
paths = (
{
closed = 1;
nodes = (
"1216 283 LINE",
"1216 403 LINE",
"835 403 LINE",
"835 574 LINE",
"1213 574 LINE",
"1213 696 LINE",
"309 696 LINE",
"309 574 LINE",
"694 574 LINE",
"694 403 LINE",
"315 403 LINE",
"315 283 LINE"
);
}
);
width = 1530;
}
);
unicode = 00A5;
},
{
glyphname = plus;
lastChange = "2018-07-25 18:37:45 +0000";
layers = (
{
layerId = "850197A4-73EE-4DD1-A43D-17FCD4749099";
paths = (
{
closed = 1;
nodes = (
"765 202 LINE",
"765 675 LINE",
"1188 675 LINE",
"1188 814 LINE",
"767 814 LINE",
"767 1282 LINE",
"619 1282 LINE",
"619 814 LINE",
"195 814 LINE",
"195 675 LINE",
"616 675 LINE",
"616 202 LINE"
);
}
);
width = 1383;
}
);
unicode = 002B;
},
{
glyphname = minus;
lastChange = "2018-07-25 18:37:45 +0000";
layers = (
{
layerId = "850197A4-73EE-4DD1-A43D-17FCD4749099";
paths = (
{
closed = 1;
nodes = (
"1235 496 LINE",
"1235 633 LINE",
"208 633 LINE",
"208 496 LINE"
);
}
);
width = 1445;
}
);
unicode = 2212;
},
{
glyphname = multiply;
lastChange = "2018-07-25 18:37:45 +0000";
layers = (
{
layerId = "850197A4-73EE-4DD1-A43D-17FCD4749099";
paths = (
{
closed = 1;
nodes = (
"670 450 LINE",
"960 154 LINE",
"1064 258 LINE",
"769 554 LINE",
"1064 850 LINE",
"960 954 LINE",
"670 657 LINE",
"379 954 LINE",
"276 851 LINE",
"570 554 LINE",
"276 257 LINE",
"379 154 LINE"
);
}
);
width = 1340;
}
);
unicode = 00D7;
},
{
glyphname = divide;
lastChange = "2018-07-25 18:37:45 +0000";
layers = (
{
layerId = "850197A4-73EE-4DD1-A43D-17FCD4749099";
paths = (
{
closed = 1;
nodes = (
"1234 527 LINE",
"1234 666 LINE",
"208 666 LINE",
"208 527 LINE"
);
},
{
closed = 1;
nodes = (
"830 80 LINE",
"830 290 LINE",
"622 290 LINE",
"622 80 LINE"
);
},
{
closed = 1;
nodes = (
"830 896 LINE",
"830 1106 LINE",
"622 1106 LINE",
"622 896 LINE"
);
}
);
width = 1445;
}
);
unicode = 00F7;
},
{
glyphname = equal;
lastChange = "2018-07-25 18:37:45 +0000";
layers = (
{
layerId = "850197A4-73EE-4DD1-A43D-17FCD4749099";
paths = (
{
closed = 1;
nodes = (
"1073 809 LINE",
"1073 947 LINE",
"200 947 LINE",
"200 809 LINE"
);
},
{
closed = 1;
nodes = (
"1074 403 LINE",
"1074 540 LINE",
"201 540 LINE",
"201 403 LINE"
);
}
);
width = 1274;
}
);
unicode = 003D;
},
{
glyphname = notequal;
lastChange = "2018-07-25 18:37:45 +0000";
layers = (
{
layerId = "850197A4-73EE-4DD1-A43D-17FCD4749099";
paths = (
{
closed = 1;
nodes = (
"599 325 LINE",
"1162 325 LINE",
"1162 445 LINE",
"656 445 LINE",
"798 728 LINE",
"1162 728 LINE",
"1160 849 LINE",
"854 849 LINE",
"978 1105 LINE",
"856 1123 LINE",
"725 849 LINE",
"170 849 LINE",
"170 728 LINE",
"670 728 LINE",
"529 445 LINE",
"170 445 LINE",
"170 325 LINE",
"471 325 LINE",
"345 64 LINE",
"465 46 LINE"
);
}
);
width = 1339;
}
);
unicode = 2260;
},
{
glyphname = greater;
lastChange = "2018-07-25 18:37:45 +0000";
layers = (
{
layerId = "850197A4-73EE-4DD1-A43D-17FCD4749099";
paths = (
{
closed = 1;
nodes = (
"1080 505 LINE",
"1080 594 LINE",
"96 1078 LINE",
"96 926 LINE",
"859 555 LINE",
"91 212 LINE",
"91 58 LINE"
);
}
);
width = 1165;
}
);
unicode = 003E;
},
{
glyphname = less;
lastChange = "2018-07-25 18:37:45 +0000";
layers = (
{
layerId = "850197A4-73EE-4DD1-A43D-17FCD4749099";
paths = (
{
closed = 1;
nodes = (
"1067 200 LINE",
"304 552 LINE",
"1071 914 LINE",
"1071 1067 LINE",
"85 595 LINE",
"85 508 LINE",
"1067 48 LINE"
);
}
);
width = 1161;
}
);
unicode = 003C;
},
{
glyphname = greaterequal;
lastChange = "2018-07-25 18:37:45 +0000";
layers = (
{
layerId = "850197A4-73EE-4DD1-A43D-17FCD4749099";
paths = (
{
closed = 1;
nodes = (
"1141 699 LINE",
"1141 779 LINE",
"206 1252 LINE",
"206 1112 LINE",
"963 738 LINE",
"202 390 LINE",
"202 249 LINE"
);
},
{
closed = 1;
nodes = (
"1160 0 LINE",
"1160 122 LINE",
"171 122 LINE",
"171 0 LINE"
);
}
);
width = 1339;
}
);
unicode = 2265;
},
{
glyphname = lessequal;
lastChange = "2018-07-25 18:37:45 +0000";
layers = (
{
layerId = "850197A4-73EE-4DD1-A43D-17FCD4749099";
paths = (
{
closed = 1;
nodes = (
"1135 388 LINE",
"382 741 LINE",
"1135 1110 LINE",
"1135 1250 LINE",
"207 778 LINE",
"207 697 LINE",
"1135 247 LINE"
);
},
{
closed = 1;
nodes = (
"1164 0 LINE",
"1164 122 LINE",
"171 122 LINE",
"171 0 LINE"
);
}
);
width = 1340;
}
);
unicode = 2264;
},
{
glyphname = plusminus;
lastChange = "2018-07-25 18:37:45 +0000";
layers = (
{
layerId = "850197A4-73EE-4DD1-A43D-17FCD4749099";
paths = (
{
closed = 1;
nodes = (
"785 308 LINE",
"785 680 LINE",
"1224 680 LINE",
"1224 818 LINE",
"782 818 LINE",
"782 1192 LINE",
"633 1192 LINE",
"633 818 LINE",
"196 818 LINE",
"196 680 LINE",
"635 680 LINE",
"635 308 LINE"
);
},
{
closed = 1;
nodes = (
"1228 0 LINE",
"1228 138 LINE",
"196 138 LINE",
"196 0 LINE"
);
}
);
width = 1425;
}
);
unicode = 00B1;
},
{
glyphname = approxequal;
lastChange = "2018-07-25 18:37:45 +0000";
layers = (
{
layerId = "850197A4-73EE-4DD1-A43D-17FCD4749099";
paths = (
{
closed = 1;
nodes = (
"303 349 OFFCURVE",
"349 426 OFFCURVE",
"452 426 CURVE SMOOTH",
"576 426 OFFCURVE",
"698 262 OFFCURVE",
"883 262 CURVE SMOOTH",
"1050 262 OFFCURVE",
"1132 375 OFFCURVE",
"1165 518 CURVE",
"1055 546 LINE",
"1025 463 OFFCURVE",
"985 380 OFFCURVE",
"889 380 CURVE SMOOTH",
"783 380 OFFCURVE",
"655 546 OFFCURVE",
"455 546 CURVE SMOOTH",
"293 546 OFFCURVE",
"199 433 OFFCURVE",
"164 289 CURVE",
"278 261 LINE"
);
},
{
closed = 1;
nodes = (
"302 721 OFFCURVE",
"347 799 OFFCURVE",
"449 799 CURVE SMOOTH",
"578 799 OFFCURVE",
"697 634 OFFCURVE",
"881 634 CURVE SMOOTH",
"1047 634 OFFCURVE",
"1133 745 OFFCURVE",
"1163 890 CURVE",
"1053 918 LINE",
"1024 832 OFFCURVE",
"984 752 OFFCURVE",
"887 752 CURVE SMOOTH",
"774 752 OFFCURVE",
"636 917 OFFCURVE",
"453 917 CURVE SMOOTH",
"289 917 OFFCURVE",
"195 808 OFFCURVE",
"162 661 CURVE",
"277 634 LINE"
);
}
);
width = 1328;
}
);
unicode = 2248;
},
{
glyphname = asciitilde;
lastChange = "2018-07-25 18:37:45 +0000";
layers = (
{
layerId = "850197A4-73EE-4DD1-A43D-17FCD4749099";
paths = (
{
closed = 1;
nodes = (
"285 475 OFFCURVE",
"341 571 OFFCURVE",
"447 571 CURVE SMOOTH",
"534 571 OFFCURVE",
"652 498 OFFCURVE",
"751 452 CURVE SMOOTH",
"791 433 OFFCURVE",
"841 410 OFFCURVE",
"891 410 CURVE SMOOTH",
"1046 410 OFFCURVE",
"1147 528 OFFCURVE",
"1184 684 CURVE",
"1059 723 LINE",
"1041 641 OFFCURVE",
"988 545 OFFCURVE",
"892 545 CURVE SMOOTH",
"821 545 OFFCURVE",
"704 623 OFFCURVE",
"605 664 CURVE SMOOTH",
"558 683 OFFCURVE",
"504 705 OFFCURVE",
"445 705 CURVE SMOOTH",
"291 705 OFFCURVE",
"182 593 OFFCURVE",
"150 440 CURVE",
"265 385 LINE"
);
}
);
width = 1331;
}
);
unicode = 007E;
},
{
glyphname = logicalnot;
lastChange = "2018-07-25 18:37:45 +0000";
layers = (
{
layerId = "850197A4-73EE-4DD1-A43D-17FCD4749099";
paths = (
{
closed = 1;
nodes = (
"1218 238 LINE",
"1218 798 LINE",
"196 798 LINE",
"196 659 LINE",
"1068 659 LINE",
"1068 238 LINE"
);
}
);
width = 1417;
}
);
unicode = 00AC;
},
{
glyphname = asciicircum;
lastChange = "2018-07-25 18:37:45 +0000";
layers = (
{
layerId = "850197A4-73EE-4DD1-A43D-17FCD4749099";
paths = (
{
closed = 1;
nodes = (
"328 550 LINE",
"691 1260 LINE",
"1065 550 LINE",
"1220 550 LINE",
"741 1432 LINE",
"644 1432 LINE",
"172 550 LINE"
);
}
);
width = 1390;
}
);
unicode = 005E;
},
{
glyphname = infinity;
lastChange = "2018-07-25 18:37:45 +0000";
layers = (
{
layerId = "850197A4-73EE-4DD1-A43D-17FCD4749099";
paths = (
{
closed = 1;
nodes = (
"629 236 OFFCURVE",
"752 363 OFFCURVE",
"845 488 CURVE",
"971 320 OFFCURVE",
"1087 236 OFFCURVE",
"1229 236 CURVE SMOOTH",
"1408 236 OFFCURVE",
"1581 366 OFFCURVE",
"1581 595 CURVE SMOOTH",
"1581 793 OFFCURVE",
"1453 944 OFFCURVE",
"1231 944 CURVE SMOOTH",
"1049 944 OFFCURVE",
"939 817 OFFCURVE",
"847 692 CURVE",
"750 823 OFFCURVE",
"652 944 OFFCURVE",
"456 944 CURVE SMOOTH",
"254 944 OFFCURVE",
"106 818 OFFCURVE",
"106 612 CURVE SMOOTH",
"106 416 OFFCURVE",
"234 236 OFFCURVE",
"461 236 CURVE SMOOTH"
);
},
{
closed = 1;
nodes = (
"337 355 OFFCURVE",
"236 444 OFFCURVE",
"236 592 CURVE SMOOTH",
"236 716 OFFCURVE",
"308 829 OFFCURVE",
"454 829 CURVE SMOOTH",
"604 829 OFFCURVE",
"700 705 OFFCURVE",
"778 589 CURVE",
"702 481 OFFCURVE",
"625 355 OFFCURVE",
"464 355 CURVE SMOOTH"
);
},
{
closed = 1;
nodes = (
"1065 355 OFFCURVE",
"999 473 OFFCURVE",
"911 592 CURVE",
"983 702 OFFCURVE",
"1067 829 OFFCURVE",
"1227 829 CURVE SMOOTH",
"1342 829 OFFCURVE",
"1442 755 OFFCURVE",
"1442 618 CURVE SMOOTH",
"1442 466 OFFCURVE",
"1377 355 OFFCURVE",
"1232 355 CURVE SMOOTH"
);
}
);
width = 1683;
}
);
unicode = 221E;
},
{
glyphname = integral;
lastChange = "2018-07-25 18:37:45 +0000";
layers = (
{
layerId = "850197A4-73EE-4DD1-A43D-17FCD4749099";
paths = (
{
closed = 1;
nodes = (
"402 -259 OFFCURVE",
"476 -105 OFFCURVE",
"476 117 CURVE SMOOTH",
"476 1174 LINE SMOOTH",
"476 1310 OFFCURVE",
"502 1391 OFFCURVE",
"638 1391 CURVE SMOOTH",
"675 1391 OFFCURVE",
"722 1386 OFFCURVE",
"748 1376 CURVE",
"746 1505 LINE",
"702 1515 OFFCURVE",
"665 1526 OFFCURVE",
"610 1526 CURVE SMOOTH",
"388 1526 OFFCURVE",
"312 1372 OFFCURVE",
"312 1150 CURVE SMOOTH",
"312 93 LINE SMOOTH",
"312 -43 OFFCURVE",
"288 -124 OFFCURVE",
"152 -124 CURVE SMOOTH",
"115 -124 OFFCURVE",
"68 -119 OFFCURVE",
"42 -109 CURVE",
"44 -238 LINE",
"92 -251 OFFCURVE",
"121 -259 OFFCURVE",
"180 -259 CURVE SMOOTH"
);
}
);
width = 794;
}
);
unicode = 222B;
},
{
glyphname = product;
lastChange = "2018-07-25 18:37:45 +0000";
layers = (
{
layerId = "850197A4-73EE-4DD1-A43D-17FCD4749099";
paths = (
{
closed = 1;
nodes = (
"476 0 LINE",
"476 1311 LINE",
"1092 1311 LINE",
"1092 0 LINE",
"1270 0 LINE",
"1270 1311 LINE",
"1449 1311 LINE",
"1449 1456 LINE",
"100 1456 LINE",
"100 1311 LINE",
"301 1311 LINE",
"301 0 LINE"
);
}
);
width = 1549;
}
);
unicode = 220F;
},
{
glyphname = summation;
lastChange = "2018-07-25 18:37:45 +0000";
layers = (
{
layerId = "850197A4-73EE-4DD1-A43D-17FCD4749099";
paths = (
{
closed = 1;
nodes = (
"1055 0 LINE",
"1055 148 LINE",
"356 148 LINE",
"760 741 LINE",
"386 1314 LINE",
"1010 1314 LINE",
"1010 1456 LINE",
"178 1456 LINE",
"178 1338 LINE",
"564 739 LINE",
"156 123 LINE",
"156 0 LINE"
);
}
);
width = 1175;
}
);
unicode = 2211;
},
{
glyphname = radical;
lastChange = "2018-07-25 18:37:45 +0000";
layers = (
{
layerId = "850197A4-73EE-4DD1-A43D-17FCD4749099";
paths = (
{
closed = 1;
nodes = (
"680 0 LINE",
"1138 1456 LINE",
"1008 1456 LINE",
"667 370 LINE",
"613 162 LINE",
"551 367 LINE",
"401 808 LINE",
"108 757 LINE",
"128 645 LINE",
"300 673 LINE",
"551 0 LINE"
);
}
);
width = 1238;
}
);
unicode = 221A;
},
{
glyphname = partialdiff;
lastChange = "2018-07-25 18:37:45 +0000";
layers = (
{
layerId = "850197A4-73EE-4DD1-A43D-17FCD4749099";
paths = (
{
closed = 1;
nodes = (
"875 -22 OFFCURVE",
"1061 373 OFFCURVE",
"1061 857 CURVE SMOOTH",
"1061 1192 OFFCURVE",
"941 1480 OFFCURVE",
"585 1480 CURVE SMOOTH",
"468 1480 OFFCURVE",
"361 1439 OFFCURVE",
"289 1389 CURVE",
"299 1251 LINE",
"366 1298 OFFCURVE",
"453 1346 OFFCURVE",
"562 1346 CURVE SMOOTH",
"781 1346 OFFCURVE",
"890 1193 OFFCURVE",
"890 916 CURVE SMOOTH",
"890 895 OFFCURVE",
"889 861 OFFCURVE",
"889 841 CURVE",
"819 932 OFFCURVE",
"727 1007 OFFCURVE",
"583 1007 CURVE SMOOTH",
"322 1007 OFFCURVE",
"93 776 OFFCURVE",
"93 425 CURVE SMOOTH",
"93 177 OFFCURVE",
"224 -22 OFFCURVE",
"492 -22 CURVE SMOOTH"
);
},
{
closed = 1;
nodes = (
"350 113 OFFCURVE",
"262 240 OFFCURVE",
"262 422 CURVE SMOOTH",
"262 671 OFFCURVE",
"375 874 OFFCURVE",
"605 874 CURVE SMOOTH",
"741 874 OFFCURVE",
"829 779 OFFCURVE",
"872 660 CURVE",
"841 389 OFFCURVE",
"755 113 OFFCURVE",
"495 113 CURVE SMOOTH"
);
}
);
width = 1153;
}
);
unicode = 2202;
},
{
glyphname = percent;
lastChange = "2018-07-25 18:37:45 +0000";
layers = (
{
layerId = "850197A4-73EE-4DD1-A43D-17FCD4749099";
paths = (
{
closed = 1;
nodes = (
"520 0 LINE",
"1415 1560 LINE",
"1266 1560 LINE",
"366 0 LINE"
);
},
{
closed = 1;
nodes = (
"636 824 OFFCURVE",
"780 969 OFFCURVE",
"780 1207 CURVE SMOOTH",
"780 1433 OFFCURVE",
"656 1586 OFFCURVE",
"437 1586 CURVE SMOOTH",
"232 1586 OFFCURVE",
"88 1441 OFFCURVE",
"88 1202 CURVE SMOOTH",
"88 997 OFFCURVE",
"204 824 OFFCURVE",
"432 824 CURVE SMOOTH"
);
},
{
closed = 1;
nodes = (
"297 937 OFFCURVE",
"232 1046 OFFCURVE",
"232 1201 CURVE SMOOTH",
"232 1348 OFFCURVE",
"294 1473 OFFCURVE",
"436 1473 CURVE SMOOTH",
"576 1473 OFFCURVE",
"636 1355 OFFCURVE",
"636 1208 CURVE SMOOTH",
"636 1062 OFFCURVE",
"576 937 OFFCURVE",
"435 937 CURVE SMOOTH"
);
},
{
closed = 1;
nodes = (
"1557 -24 OFFCURVE",
"1701 121 OFFCURVE",
"1701 359 CURVE SMOOTH",
"1701 585 OFFCURVE",
"1577 738 OFFCURVE",
"1358 738 CURVE SMOOTH",
"1153 738 OFFCURVE",
"1009 593 OFFCURVE",
"1009 354 CURVE SMOOTH",
"1009 149 OFFCURVE",
"1125 -24 OFFCURVE",
"1353 -24 CURVE SMOOTH"
);
},
{
closed = 1;
nodes = (
"1218 89 OFFCURVE",
"1153 198 OFFCURVE",
"1153 353 CURVE SMOOTH",
"1153 500 OFFCURVE",
"1215 625 OFFCURVE",
"1357 625 CURVE SMOOTH",
"1497 625 OFFCURVE",
"1557 507 OFFCURVE",
"1557 360 CURVE SMOOTH",
"1557 214 OFFCURVE",
"1497 89 OFFCURVE",
"1356 89 CURVE SMOOTH"
);
}
);
width = 1788;
}
);
unicode = 0025;
},
{
glyphname = perthousand;
lastChange = "2018-07-25 18:37:45 +0000";
layers = (
{
components = (
{
name = percent;
}
);
layerId = "850197A4-73EE-4DD1-A43D-17FCD4749099";
paths = (
{
closed = 1;
nodes = (
"2355 -24 OFFCURVE",
"2499 121 OFFCURVE",
"2499 359 CURVE SMOOTH",
"2499 585 OFFCURVE",
"2375 738 OFFCURVE",
"2156 738 CURVE SMOOTH",
"1951 738 OFFCURVE",
"1807 593 OFFCURVE",
"1807 354 CURVE SMOOTH",
"1807 149 OFFCURVE",
"1923 -24 OFFCURVE",
"2151 -24 CURVE SMOOTH"
);
},
{
closed = 1;
nodes = (
"2016 89 OFFCURVE",
"1951 198 OFFCURVE",
"1951 353 CURVE SMOOTH",
"1951 500 OFFCURVE",
"2013 625 OFFCURVE",
"2155 625 CURVE SMOOTH",
"2295 625 OFFCURVE",
"2355 507 OFFCURVE",
"2355 360 CURVE SMOOTH",
"2355 214 OFFCURVE",
"2295 89 OFFCURVE",
"2154 89 CURVE SMOOTH"
);
}
);
width = 2567;
}
);
unicode = 2030;
},
{
glyphname = lozenge;
lastChange = "2018-07-25 18:37:45 +0000";
layers = (
{
layerId = "850197A4-73EE-4DD1-A43D-17FCD4749099";
paths = (
{
closed = 1;
nodes = (
"644 0 LINE",
"1097 717 LINE",
"652 1456 LINE",
"550 1456 LINE",
"100 716 LINE",
"542 0 LINE"
);
},
{
closed = 1;
nodes = (
"249 718 LINE",
"602 1310 LINE",
"946 716 LINE",
"593 143 LINE"
);
}
);
width = 1197;
}
);
unicode = 25CA;
},
{
glyphname = at;
lastChange = "2018-07-25 18:37:45 +0000";
layers = (
{
layerId = "850197A4-73EE-4DD1-A43D-17FCD4749099";
paths = (
{
closed = 1;
nodes = (
"1254 -61 OFFCURVE",
"1454 31 OFFCURVE",
"1577 170 CURVE",
"1520 230 LINE",
"1401 124 OFFCURVE",
"1268 40 OFFCURVE",
"1007 40 CURVE SMOOTH",
"601 40 OFFCURVE",
"313 309 OFFCURVE",
"313 725 CURVE SMOOTH",
"313 1128 OFFCURVE",
"609 1430 OFFCURVE",
"1004 1430 CURVE SMOOTH",
"1347 1430 OFFCURVE",
"1657 1207 OFFCURVE",
"1657 842 CURVE SMOOTH",
"1657 573 OFFCURVE",
"1518 385 OFFCURVE",
"1347 385 CURVE SMOOTH",
"1289 385 OFFCURVE",
"1268 415 OFFCURVE",
"1268 471 CURVE SMOOTH",
"1268 541 OFFCURVE",
"1321 756 OFFCURVE",
"1407 1152 CURVE",
"1267 1152 LINE",
"1249 1067 LINE",
"1212 1136 OFFCURVE",
"1131 1183 OFFCURVE",
"1029 1183 CURVE SMOOTH",
"787 1183 OFFCURVE",
"562 941 OFFCURVE",
"562 655 CURVE SMOOTH",
"562 493 OFFCURVE",
"643 302 OFFCURVE",
"862 302 CURVE SMOOTH",
"973 302 OFFCURVE",
"1113 392 OFFCURVE",
"1169 525 CURVE",
"1169 399 OFFCURVE",
"1229 310 OFFCURVE",
"1347 310 CURVE SMOOTH",
"1568 310 OFFCURVE",
"1769 525 OFFCURVE",
"1769 839 CURVE SMOOTH",
"1769 1253 OFFCURVE",
"1420 1524 OFFCURVE",
"1006 1524 CURVE SMOOTH",
"556 1524 OFFCURVE",
"186 1191 OFFCURVE",
"186 727 CURVE SMOOTH",
"186 264 OFFCURVE",
"544 -61 OFFCURVE",
"1002 -61 CURVE SMOOTH"
);
},
{
closed = 1;
nodes = (
"777 410 OFFCURVE",
"701 488 OFFCURVE",
"701 635 CURVE SMOOTH",
"701 878 OFFCURVE",
"849 1088 OFFCURVE",
"1032 1088 CURVE SMOOTH",
"1143 1088 OFFCURVE",
"1197 981 OFFCURVE",
"1197 866 CURVE SMOOTH",
"1197 667 OFFCURVE",
"1068 410 OFFCURVE",
"888 410 CURVE SMOOTH"
);
}
);
width = 1953;
}
);
unicode = 0040;
},
{
glyphname = ampersand;
lastChange = "2018-07-25 18:37:45 +0000";
layers = (
{
layerId = "850197A4-73EE-4DD1-A43D-17FCD4749099";
paths = (
{
closed = 1;
nodes = (
"838 -24 OFFCURVE",
"977 71 OFFCURVE",
"1084 187 CURVE",
"1165 101 OFFCURVE",
"1241 10 OFFCURVE",
"1381 -12 CURVE",
"1505 87 LINE",
"1466 96 OFFCURVE",
"1431 105 OFFCURVE",
"1402 115 CURVE SMOOTH",
"1299 151 OFFCURVE",
"1238 210 OFFCURVE",
"1169 286 CURVE",
"1272 430 OFFCURVE",
"1351 669 OFFCURVE",
"1359 909 CURVE",
"1210 930 LINE",
"1210 888 OFFCURVE",
"1206 846 OFFCURVE",
"1199 801 CURVE SMOOTH",
"1179 662 OFFCURVE",
"1125 496 OFFCURVE",
"1064 401 CURVE",
"652 887 LINE",
"775 963 OFFCURVE",
"966 1117 OFFCURVE",
"966 1293 CURVE SMOOTH",
"966 1478 OFFCURVE",
"824 1586 OFFCURVE",
"631 1586 CURVE SMOOTH",
"388 1586 OFFCURVE",
"279 1452 OFFCURVE",
"279 1291 CURVE SMOOTH",
"279 1168 OFFCURVE",
"342 1029 OFFCURVE",
"456 921 CURVE",
"317 829 OFFCURVE",
"127 658 OFFCURVE",
"127 401 CURVE SMOOTH",
"127 139 OFFCURVE",
"338 -24 OFFCURVE",
"627 -24 CURVE SMOOTH"
);
},
{
closed = 1;
nodes = (
"453 115 OFFCURVE",
"286 197 OFFCURVE",
"286 418 CURVE SMOOTH",
"286 586 OFFCURVE",
"380 707 OFFCURVE",
"534 817 CURVE",
"985 292 LINE",
"898 197 OFFCURVE",
"802 115 OFFCURVE",
"630 115 CURVE SMOOTH"
);
},
{
closed = 1;
nodes = (
"497 1064 OFFCURVE",
"432 1188 OFFCURVE",
"432 1288 CURVE SMOOTH",
"432 1380 OFFCURVE",
"487 1452 OFFCURVE",
"638 1452 CURVE SMOOTH",
"735 1452 OFFCURVE",
"812 1398 OFFCURVE",
"812 1289 CURVE SMOOTH",
"812 1168 OFFCURVE",
"671 1044 OFFCURVE",
"571 984 CURVE"
);
}
);
width = 1541;
}
);
unicode = 0026;
},
{
glyphname = paragraph;
lastChange = "2018-07-25 18:37:45 +0000";
layers = (
{
layerId = "850197A4-73EE-4DD1-A43D-17FCD4749099";
paths = (
{
closed = 1;
nodes = (
"606 0 LINE",
"606 1331 LINE",
"807 1331 LINE",
"807 0 LINE",
"936 0 LINE",
"936 1331 LINE",
"1023 1331 LINE",
"1023 1455 LINE",
"642 1455 LINE SMOOTH",
"389 1455 OFFCURVE",
"137 1398 OFFCURVE",
"137 1134 CURVE SMOOTH",
"137 946 OFFCURVE",
"253 830 OFFCURVE",
"468 830 CURVE",
"468 0 LINE"
);
}
);
width = 1150;
}
);
unicode = 00B6;
},
{
glyphname = section;
lastChange = "2018-07-25 18:37:45 +0000";
layers = (
{
layerId = "850197A4-73EE-4DD1-A43D-17FCD4749099";
paths = (
{
closed = 1;
nodes = (
"685 -24 OFFCURVE",
"869 57 OFFCURVE",
"869 269 CURVE SMOOTH",
"869 392 OFFCURVE",
"791 449 OFFCURVE",
"706 491 CURVE",
"789 541 OFFCURVE",
"892 614 OFFCURVE",
"892 742 CURVE SMOOTH",
"892 931 OFFCURVE",
"648 985 OFFCURVE",
"496 1069 CURVE SMOOTH",
"440 1100 OFFCURVE",
"388 1135 OFFCURVE",
"388 1215 CURVE SMOOTH",
"388 1319 OFFCURVE",
"489 1346 OFFCURVE",
"594 1346 CURVE SMOOTH",
"675 1346 OFFCURVE",
"755 1323 OFFCURVE",
"815 1296 CURVE",
"813 1440 LINE",
"738 1462 OFFCURVE",
"678 1480 OFFCURVE",
"589 1480 CURVE SMOOTH",
"397 1480 OFFCURVE",
"217 1405 OFFCURVE",
"217 1211 CURVE SMOOTH",
"217 1087 OFFCURVE",
"285 1025 OFFCURVE",
"370 974 CURVE",
"282 931 OFFCURVE",
"181 861 OFFCURVE",
"181 734 CURVE SMOOTH",
"181 599 OFFCURVE",
"296 518 OFFCURVE",
"415 466 CURVE SMOOTH",
"495 431 LINE SMOOTH",
"600 385 OFFCURVE",
"697 371 OFFCURVE",
"697 260 CURVE SMOOTH",
"697 172 OFFCURVE",
"595 110 OFFCURVE",
"468 110 CURVE SMOOTH",
"368 110 OFFCURVE",
"289 136 OFFCURVE",
"206 172 CURVE",
"208 27 LINE",
"284 -4 OFFCURVE",
"375 -24 OFFCURVE",
"473 -24 CURVE SMOOTH"
);
},
{
closed = 1;
nodes = (
"471 599 OFFCURVE",
"358 622 OFFCURVE",
"358 746 CURVE SMOOTH",
"358 834 OFFCURVE",
"428 889 OFFCURVE",
"486 920 CURVE",
"563 887 OFFCURVE",
"714 849 OFFCURVE",
"714 728 CURVE SMOOTH",
"714 649 OFFCURVE",
"640 596 OFFCURVE",
"578 557 CURVE"
);
}
);
width = 1071;
}
);
unicode = 00A7;
},
{
glyphname = copyright;
lastChange = "2018-07-25 18:37:45 +0000";
layers = (
{
layerId = "850197A4-73EE-4DD1-A43D-17FCD4749099";
paths = (
{
closed = 1;
nodes = (
"1354 -25 OFFCURVE",
"1692 314 OFFCURVE",
"1692 727 CURVE SMOOTH",
"1692 1141 OFFCURVE",
"1354 1480 OFFCURVE",
"940 1480 CURVE SMOOTH",
"526 1480 OFFCURVE",
"188 1141 OFFCURVE",
"188 727 CURVE SMOOTH",
"188 314 OFFCURVE",
"526 -25 OFFCURVE",
"940 -25 CURVE SMOOTH"
);
},
{
closed = 1;
nodes = (
"1080 249 OFFCURVE",
"1178 279 OFFCURVE",
"1261 339 CURVE",
"1224 460 LINE",
"1166 411 OFFCURVE",
"1092 380 OFFCURVE",
"995 380 CURVE SMOOTH",
"784 380 OFFCURVE",
"651 504 OFFCURVE",
"651 733 CURVE SMOOTH",
"651 920 OFFCURVE",
"759 1080 OFFCURVE",
"969 1080 CURVE SMOOTH",
"1072 1080 OFFCURVE",
"1158 1048 OFFCURVE",
"1228 985 CURVE",
"1258 1105 LINE",
"1180 1174 OFFCURVE",
"1085 1208 OFFCURVE",
"975 1208 CURVE SMOOTH",
"706 1208 OFFCURVE",
"498 1042 OFFCURVE",
"498 729 CURVE SMOOTH",
"498 473 OFFCURVE",
"670 249 OFFCURVE",
"965 249 CURVE SMOOTH"
);
},
{
closed = 1;
nodes = (
"587 80 OFFCURVE",
"309 374 OFFCURVE",
"309 725 CURVE SMOOTH",
"309 1077 OFFCURVE",
"587 1371 OFFCURVE",
"939 1371 CURVE SMOOTH",
"1290 1371 OFFCURVE",
"1568 1077 OFFCURVE",
"1568 725 CURVE SMOOTH",
"1568 374 OFFCURVE",
"1290 80 OFFCURVE",
"939 80 CURVE SMOOTH"
);
}
);
width = 1880;
}
);
unicode = 00A9;
},
{
glyphname = registered;
lastChange = "2018-07-25 18:37:45 +0000";
layers = (
{
layerId = "850197A4-73EE-4DD1-A43D-17FCD4749099";
paths = (
{
closed = 1;
nodes = (
"1354 -25 OFFCURVE",
"1692 314 OFFCURVE",
"1692 727 CURVE SMOOTH",
"1692 1141 OFFCURVE",
"1354 1480 OFFCURVE",
"940 1480 CURVE SMOOTH",
"526 1480 OFFCURVE",
"188 1141 OFFCURVE",
"188 727 CURVE SMOOTH",
"188 314 OFFCURVE",
"526 -25 OFFCURVE",
"940 -25 CURVE SMOOTH"
);
},
{
closed = 1;
nodes = (
"587 80 OFFCURVE",
"309 374 OFFCURVE",
"309 725 CURVE SMOOTH",
"309 1077 OFFCURVE",
"587 1371 OFFCURVE",
"939 1371 CURVE SMOOTH",
"1290 1371 OFFCURVE",
"1568 1077 OFFCURVE",
"1568 725 CURVE SMOOTH",
"1568 374 OFFCURVE",
"1290 80 OFFCURVE",
"939 80 CURVE SMOOTH"
);
},
{
closed = 1;
nodes = (
"789 293 LINE",
"789 684 LINE",
"917 684 LINE",
"1132 293 LINE",
"1293 293 LINE",
"1052 706 LINE",
"1178 731 OFFCURVE",
"1275 802 OFFCURVE",
"1275 950 CURVE SMOOTH",
"1275 1116 OFFCURVE",
"1141 1192 OFFCURVE",
"861 1192 CURVE SMOOTH",
"647 1192 LINE",
"647 293 LINE"
);
},
{
closed = 1;
nodes = (
"787 1072 LINE",
"858 1072 LINE SMOOTH",
"925 1072 LINE SMOOTH",
"1040 1072 OFFCURVE",
"1126 1062 OFFCURVE",
"1126 935 CURVE SMOOTH",
"1126 807 OFFCURVE",
"1006 803 OFFCURVE",
"881 803 CURVE SMOOTH",
"787 803 LINE"
);
}
);
width = 1880;
}
);
unicode = 00AE;
},
{
glyphname = trademark;
lastChange = "2018-07-25 18:37:45 +0000";
layers = (
{
layerId = "850197A4-73EE-4DD1-A43D-17FCD4749099";
paths = (
{
closed = 1;
nodes = (
"929 690 LINE",
"929 1273 LINE",
"1178 719 LINE",
"1280 719 LINE",
"1530 1274 LINE",
"1530 690 LINE",
"1646 690 LINE",
"1646 1455 LINE",
"1508 1455 LINE",
"1229 846 LINE",
"961 1455 LINE",
"814 1455 LINE",
"814 690 LINE"
);
},
{
closed = 1;
nodes = (
"457 690 LINE",
"457 1354 LINE",
"707 1354 LINE",
"707 1455 LINE",
"80 1455 LINE",
"80 1354 LINE",
"333 1354 LINE",
"333 690 LINE"
);
}
);
width = 1839;
}
);
unicode = 2122;
},
{
glyphname = degree;
lastChange = "2018-07-25 18:37:45 +0000";
layers = (
{
layerId = "850197A4-73EE-4DD1-A43D-17FCD4749099";
paths = (
{
closed = 1;
nodes = (
"689 815 OFFCURVE",
"862 930 OFFCURVE",
"862 1148 CURVE SMOOTH",
"862 1322 OFFCURVE",
"733 1480 OFFCURVE",
"526 1480 CURVE SMOOTH",
"361 1480 OFFCURVE",
"190 1365 OFFCURVE",
"190 1148 CURVE SMOOTH",
"190 975 OFFCURVE",
"321 815 OFFCURVE",
"526 815 CURVE SMOOTH"
);
},
{
closed = 1;
nodes = (
"409 936 OFFCURVE",
"322 1015 OFFCURVE",
"322 1149 CURVE SMOOTH",
"322 1255 OFFCURVE",
"391 1359 OFFCURVE",
"526 1359 CURVE SMOOTH",
"635 1359 OFFCURVE",
"730 1283 OFFCURVE",
"730 1149 CURVE SMOOTH",
"730 1043 OFFCURVE",
"662 936 OFFCURVE",
"526 936 CURVE SMOOTH"
);
}
);
width = 1052;
}
);
unicode = 00B0;
},
{
glyphname = bar;
lastChange = "2018-07-25 18:37:45 +0000";
layers = (
{
layerId = "850197A4-73EE-4DD1-A43D-17FCD4749099";
paths = (
{
closed = 1;
nodes = (
"364 -200 LINE",
"364 1541 LINE",
"200 1541 LINE",
"200 -200 LINE"
);
}
);
width = 564;
}
);
unicode = 007C;
},
{
glyphname = brokenbar;
lastChange = "2018-07-25 18:37:45 +0000";
layers = (
{
layerId = "850197A4-73EE-4DD1-A43D-17FCD4749099";
paths = (
{
closed = 1;
nodes = (
"357 -491 LINE",
"357 393 LINE",
"200 393 LINE",
"200 -491 LINE"
);
},
{
closed = 1;
nodes = (
"357 677 LINE",
"357 1545 LINE",
"200 1545 LINE",
"200 677 LINE"
);
}
);
width = 557;
}
);
unicode = 00A6;
},
{
glyphname = dagger;
lastChange = "2018-07-25 18:37:45 +0000";
layers = (
{
layerId = "850197A4-73EE-4DD1-A43D-17FCD4749099";
paths = (
{
closed = 1;
nodes = (
"654 0 LINE",
"654 904 LINE",
"994 904 LINE",
"994 1026 LINE",
"654 1026 LINE",
"654 1456 LINE",
"513 1456 LINE",
"513 1026 LINE",
"190 1026 LINE",
"190 904 LINE",
"513 904 LINE",
"513 0 LINE"
);
}
);
width = 1185;
}
);
unicode = 2020;
},
{
glyphname = daggerdbl;
lastChange = "2018-07-25 18:37:45 +0000";
layers = (
{
layerId = "850197A4-73EE-4DD1-A43D-17FCD4749099";
paths = (
{
closed = 1;
nodes = (
"671 0 LINE",
"671 440 LINE",
"994 440 LINE",
"994 557 LINE",
"671 557 LINE",
"671 988 LINE",
"1001 988 LINE",
"1001 1110 LINE",
"671 1110 LINE",
"671 1456 LINE",
"527 1456 LINE",
"527 1110 LINE",
"197 1110 LINE",
"197 988 LINE",
"527 988 LINE",
"527 557 LINE",
"191 557 LINE",
"191 440 LINE",
"527 440 LINE",
"527 0 LINE"
);
}
);
width = 1192;
}
);
unicode = 2021;
},
{
glyphname = dotaccentcmb;
lastChange = "2018-07-25 18:37:45 +0000";
layers = (
{
layerId = "850197A4-73EE-4DD1-A43D-17FCD4749099";
paths = (
{
closed = 1;
nodes = (
"354 1246 LINE",
"354 1409 LINE",
"194 1409 LINE",
"194 1246 LINE"
);
}
);
width = 534;
}
);
unicode = 0307;
},
{
glyphname = dblgravecmb;
lastChange = "2018-07-25 18:37:45 +0000";
layers = (
{
layerId = "850197A4-73EE-4DD1-A43D-17FCD4749099";
paths = (
{
closed = 1;
nodes = (
"93 1143 LINE",
"-121 1456 LINE",
"-297 1456 LINE",
"-22 1143 LINE"
);
},
{
closed = 1;
nodes = (
"359 1143 LINE",
"142 1456 LINE",
"-28 1456 LINE",
"241 1143 LINE"
);
}
);
width = 4;
}
);
unicode = 030F;
},
{
glyphname = uni0311;
lastChange = "2018-07-25 18:37:45 +0000";
layers = (
{
layerId = "850197A4-73EE-4DD1-A43D-17FCD4749099";
paths = (
{
closed = 1;
nodes = (
"129 1218 LINE",
"144 1306 OFFCURVE",
"217 1347 OFFCURVE",
"319 1347 CURVE SMOOTH",
"421 1347 OFFCURVE",
"500 1302 OFFCURVE",
"520 1218 CURVE",
"606 1218 LINE",
"593 1372 OFFCURVE",
"492 1454 OFFCURVE",
"326 1454 CURVE SMOOTH",
"155 1454 OFFCURVE",
"55 1378 OFFCURVE",
"42 1218 CURVE"
);
}
);
width = 639;
}
);
unicode = 0311;
},
{
glyphname = uni0326;
lastChange = "2018-07-25 18:37:45 +0000";
layers = (
{
layerId = "850197A4-73EE-4DD1-A43D-17FCD4749099";
paths = (
{
closed = 1;
nodes = (
"-52 -463 LINE",
"111 0 LINE",
"-76 0 LINE",
"-183 -463 LINE"
);
}
);
width = 10;
}
);
unicode = 0326;
},
{
glyphname = acute;
lastChange = "2018-07-25 18:37:45 +0000";
layers = (
{
layerId = "850197A4-73EE-4DD1-A43D-17FCD4749099";
paths = (
{
closed = 1;
nodes = (
"223 1136 LINE",
"531 1456 LINE",
"319 1456 LINE",
"93 1136 LINE"
);
}
);
width = 618;
}
);
unicode = 00B4;
},
{
glyphname = breve;
lastChange = "2018-07-25 18:37:45 +0000";
layers = (
{
layerId = "850197A4-73EE-4DD1-A43D-17FCD4749099";
paths = (
{
closed = 1;
nodes = (
"438 1221 OFFCURVE",
"553 1299 OFFCURVE",
"566 1456 CURVE",
"480 1456 LINE",
"460 1371 OFFCURVE",
"388 1327 OFFCURVE",
"318 1327 CURVE SMOOTH",
"250 1327 OFFCURVE",
"184 1369 OFFCURVE",
"169 1456 CURVE",
"82 1456 LINE",
"95 1299 OFFCURVE",
"209 1221 OFFCURVE",
"323 1221 CURVE SMOOTH"
);
}
);
width = 639;
}
);
unicode = 02D8;
},
{
glyphname = caron;
lastChange = "2018-07-25 18:37:45 +0000";
layers = (
{
layerId = "850197A4-73EE-4DD1-A43D-17FCD4749099";
paths = (
{
closed = 1;
nodes = (
"434 1133 LINE",
"672 1456 LINE",
"518 1456 LINE",
"350 1241 LINE",
"186 1456 LINE",
"39 1456 LINE",
"278 1133 LINE"
);
}
);
width = 709;
}
);
unicode = 02C7;
},
{
glyphname = cedilla;
lastChange = "2018-07-25 18:37:45 +0000";
layers = (
{
layerId = "850197A4-73EE-4DD1-A43D-17FCD4749099";
paths = (
{
closed = 1;
nodes = (
"468 -396 OFFCURVE",
"588 -359 OFFCURVE",
"588 -239 CURVE SMOOTH",
"588 -131 OFFCURVE",
"492 -95 OFFCURVE",
"388 -90 CURVE",
"379 -90 LINE",
"397 17 LINE",
"300 17 LINE",
"267 -173 LINE",
"299 -171 LINE SMOOTH",
"310 -170 OFFCURVE",
"327 -168 OFFCURVE",
"336 -168 CURVE SMOOTH",
"396 -168 OFFCURVE",
"445 -182 OFFCURVE",
"445 -241 CURVE SMOOTH",
"445 -297 OFFCURVE",
"397 -313 OFFCURVE",
"331 -313 CURVE SMOOTH",
"277 -313 OFFCURVE",
"230 -301 OFFCURVE",
"180 -289 CURVE",
"172 -374 LINE",
"226 -385 OFFCURVE",
"287 -396 OFFCURVE",
"347 -396 CURVE SMOOTH"
);
}
);
width = 762;
}
);
unicode = 00B8;
},
{
glyphname = circumflex;
lastChange = "2018-07-25 18:37:45 +0000";
layers = (
{
layerId = "850197A4-73EE-4DD1-A43D-17FCD4749099";
paths = (
{
closed = 1;
nodes = (
"171 1132 LINE",
"349 1348 LINE",
"527 1132 LINE",
"659 1132 LINE",
"430 1456 LINE",
"273 1456 LINE",
"45 1132 LINE"
);
}
);
width = 709;
}
);
unicode = 02C6;
},
{
glyphname = dieresis;
lastChange = "2018-07-25 18:37:45 +0000";
layers = (
{
layerId = "850197A4-73EE-4DD1-A43D-17FCD4749099";
paths = (
{
closed = 1;
nodes = (
"659 1280 OFFCURVE",
"696 1317 OFFCURVE",
"696 1362 CURVE SMOOTH",
"696 1386 LINE SMOOTH",
"696 1431 OFFCURVE",
"659 1468 OFFCURVE",
"614 1468 CURVE SMOOTH",
"569 1468 OFFCURVE",
"532 1431 OFFCURVE",
"532 1386 CURVE SMOOTH",
"532 1362 LINE SMOOTH",
"532 1317 OFFCURVE",
"569 1280 OFFCURVE",
"614 1280 CURVE SMOOTH"
);
},
{
closed = 1;
nodes = (
"327 1280 OFFCURVE",
"364 1317 OFFCURVE",
"364 1362 CURVE SMOOTH",
"364 1386 LINE SMOOTH",
"364 1431 OFFCURVE",
"327 1468 OFFCURVE",
"282 1468 CURVE SMOOTH",
"237 1468 OFFCURVE",
"200 1431 OFFCURVE",
"200 1386 CURVE SMOOTH",
"200 1362 LINE SMOOTH",
"200 1317 OFFCURVE",
"237 1280 OFFCURVE",
"282 1280 CURVE SMOOTH"
);
}
);
width = 896;
}
);
unicode = 00A8;
},
{
glyphname = dotaccent;
lastChange = "2018-07-25 18:37:45 +0000";
layers = (
{
layerId = "850197A4-73EE-4DD1-A43D-17FCD4749099";
paths = (
{
closed = 1;
nodes = (
"354 1293 LINE",
"354 1456 LINE",
"194 1456 LINE",
"194 1293 LINE"
);
}
);
width = 534;
}
);
unicode = 02D9;
},
{
glyphname = grave;
lastChange = "2018-07-25 18:37:45 +0000";
layers = (
{
layerId = "850197A4-73EE-4DD1-A43D-17FCD4749099";
paths = (
{
closed = 1;
nodes = (
"545 1160 LINE",
"298 1480 LINE",
"84 1480 LINE",
"416 1160 LINE"
);
}
);
width = 629;
}
);
unicode = 0060;
},
{
glyphname = hungarumlaut;
lastChange = "2018-07-25 18:37:45 +0000";
layers = (
{
layerId = "850197A4-73EE-4DD1-A43D-17FCD4749099";
paths = (
{
closed = 1;
nodes = (
"553 1143 LINE",
"828 1456 LINE",
"652 1456 LINE",
"438 1143 LINE"
);
},
{
closed = 1;
nodes = (
"290 1143 LINE",
"559 1456 LINE",
"389 1456 LINE",
"172 1143 LINE"
);
}
);
width = 972;
}
);
unicode = 02DD;
},
{
glyphname = macron;
lastChange = "2018-07-25 18:37:45 +0000";
layers = (
{
layerId = "850197A4-73EE-4DD1-A43D-17FCD4749099";
paths = (
{
closed = 1;
nodes = (
"772 1322 LINE",
"772 1456 LINE",
"200 1456 LINE",
"200 1322 LINE"
);
}
);
width = 972;
}
);
unicode = 00AF;
},
{
glyphname = ogonek;
lastChange = "2018-07-25 18:37:45 +0000";
layers = (
{
layerId = "850197A4-73EE-4DD1-A43D-17FCD4749099";
paths = (
{
closed = 1;
nodes = (
"340 -390 OFFCURVE",
"407 -380 OFFCURVE",
"453 -361 CURVE",
"453 -250 LINE",
"407 -268 OFFCURVE",
"363 -281 OFFCURVE",
"299 -281 CURVE SMOOTH",
"248 -281 OFFCURVE",
"199 -250 OFFCURVE",
"199 -199 CURVE SMOOTH",
"199 -117 OFFCURVE",
"316 -52 OFFCURVE",
"402 0 CURVE",
"273 12 LINE",
"174 -35 OFFCURVE",
"58 -97 OFFCURVE",
"58 -225 CURVE SMOOTH",
"58 -335 OFFCURVE",
"151 -390 OFFCURVE",
"276 -390 CURVE SMOOTH"
);
}
);
width = 518;
}
);
unicode = 02DB;
},
{
glyphname = ring;
lastChange = "2018-07-25 18:37:45 +0000";
layers = (
{
layerId = "850197A4-73EE-4DD1-A43D-17FCD4749099";
paths = (
{
closed = 1;
nodes = (
"413 1120 OFFCURVE",
"498 1195 OFFCURVE",
"498 1300 CURVE SMOOTH",
"498 1404 OFFCURVE",
"413 1480 OFFCURVE",
"308 1480 CURVE SMOOTH",
"204 1480 OFFCURVE",
"118 1404 OFFCURVE",
"118 1300 CURVE SMOOTH",
"118 1195 OFFCURVE",
"204 1120 OFFCURVE",
"308 1120 CURVE SMOOTH"
);
},
{
closed = 1;
nodes = (
"250 1195 OFFCURVE",
"207 1243 OFFCURVE",
"207 1301 CURVE SMOOTH",
"207 1358 OFFCURVE",
"250 1406 OFFCURVE",
"308 1406 CURVE SMOOTH",
"365 1406 OFFCURVE",
"409 1358 OFFCURVE",
"409 1301 CURVE SMOOTH",
"409 1243 OFFCURVE",
"365 1195 OFFCURVE",
"308 1195 CURVE SMOOTH"
);
}
);
width = 616;
}
);
unicode = 02DA;
},
{
glyphname = tilde;
lastChange = "2018-07-25 18:37:45 +0000";
layers = (
{
layerId = "850197A4-73EE-4DD1-A43D-17FCD4749099";
paths = (
{
closed = 1;
nodes = (
"159 1263 LINE",
"166 1316 OFFCURVE",
"175 1355 OFFCURVE",
"220 1355 CURVE SMOOTH",
"296 1355 OFFCURVE",
"342 1264 OFFCURVE",
"443 1264 CURVE SMOOTH",
"567 1264 OFFCURVE",
"625 1372 OFFCURVE",
"638 1485 CURVE",
"530 1485 LINE",
"523 1436 OFFCURVE",
"516 1389 OFFCURVE",
"470 1389 CURVE SMOOTH",
"418 1389 OFFCURVE",
"360 1479 OFFCURVE",
"253 1479 CURVE SMOOTH",
"129 1479 OFFCURVE",
"64 1379 OFFCURVE",
"54 1263 CURVE"
);
}
);
width = 673;
}
);
unicode = 02DC;
},
{
glyphname = uniF6C3;
lastChange = "2018-07-25 18:37:45 +0000";
layers = (
{
layerId = "850197A4-73EE-4DD1-A43D-17FCD4749099";
paths = (
{
closed = 1;
nodes = (
"251 -463 LINE",
"414 0 LINE",
"227 0 LINE",
"120 -463 LINE"
);
}
);
width = 609;
}
);
unicode = F6C3;
},
{
glyphname = lc_kick_2;
lastChange = "2018-07-25 18:37:45 +0000";
layers = (
{
layerId = "850197A4-73EE-4DD1-A43D-17FCD4749099";
paths = (
{
closed = 1;
nodes = (
"338 -22 OFFCURVE",
"403 -6 OFFCURVE {name = inserted;}",
"463 33 CURVE",
"443 148 LINE",
"413 131 OFFCURVE",
"365 110 OFFCURVE",
"322 110 CURVE SMOOTH",
"271 110 OFFCURVE",
"240 139 OFFCURVE",
"240 235 CURVE",
"70 216 LINE",
"70 55 OFFCURVE",
"142 -22 OFFCURVE {name = inserted;}",
"277 -22 CURVE SMOOTH"
);
}
);
width = 500;
}
);
userData = {
com.typemytype.robofont.layerData = {
b = {
anchors = (
);
components = (
);
contours = (
{
points = (
{
segmentType = line;
x = 240;
y = 235;
},
{
name = inserted;
x = 240;
y = 158;
},
{
x = 269;
y = 120;
},
{
segmentType = curve;
smooth = 1;
x = 330;
y = 120;
},
{
name = inserted;
x = 356;
y = 120;
},
{
x = 385;
y = 124;
},
{
segmentType = curve;
smooth = 0;
x = 419;
y = 132;
},
{
segmentType = line;
smooth = 0;
x = 437;
y = 6;
},
{
name = inserted;
x = 384;
y = -13;
},
{
x = 330;
y = -22;
},
{
segmentType = curve;
smooth = 1;
x = 276;
y = -22;
},
{
name = inserted;
x = 141;
y = -22;
},
{
x = 70;
y = 57;
},
{
segmentType = curve;
smooth = 1;
x = 70;
y = 216;
}
);
}
);
lib = {
};
name = lc_kick_2;
unicodes = (
);
width = 500;
};
};
};
},
{
glyphname = lc_kick;
lastChange = "2018-07-25 18:37:45 +0000";
layers = (
{
layerId = "850197A4-73EE-4DD1-A43D-17FCD4749099";
paths = (
{
closed = 1;
nodes = (
"338 -22 OFFCURVE",
"416 -6 OFFCURVE {name = inserted;}",
"476 33 CURVE",
"456 148 LINE",
"426 131 OFFCURVE",
"378 110 OFFCURVE",
"335 110 CURVE SMOOTH",
"284 110 OFFCURVE",
"240 139 OFFCURVE",
"240 235 CURVE",
"70 216 LINE",
"70 55 OFFCURVE",
"142 -22 OFFCURVE {name = inserted;}",
"277 -22 CURVE SMOOTH"
);
}
